999
dxfrw 0.6.3
  0
SECTION
  2
HEADER
  9
$ACADVER
  1
AC1021
  9
$DWGCODEPAGE
  3
ANSI_1252
  9
$INSBASE
 10
0
 20
0
 30
0
  9
$EXTMIN
 10
-84
 20
-10
 30
0
  9
$EXTMAX
 10
53
 20
10
 30
0
  9
$LIMMIN
 10
0
 20
0
  9
$LIMMAX
 10
420
 20
297
  9
$ORTHOMODE
 70
    0
  9
$REGENMODE
 70
    1
  9
$FILLMODE
 70
    1
  9
$QTEXTMODE
 70
    0
  9
$MIRRTEXT
 70
    0
  9
$LTSCALE
 40
1
  9
$ATTMODE
 70
    0
  9
$TEXTSIZE
 40
2.5
  9
$TRACEWID
 40
15.68
  9
$TEXTSTYLE
  7
STANDARD
  9
$CLAYER
  8
0
  9
$CELTYPE
  6
BYLAYER
  9
$CECOLOR
 62
  256
  9
$CELTSCALE
 40
1
  9
$DISPSILH
 70
    0
  9
$DIMSCALE
 40
2.5
  9
$DIMASZ
 40
2.5
  9
$DIMEXO
 40
0.625
  9
$DIMDLI
 40
3.75
  9
$DIMRND
 40
0
  9
$DIMDLE
 40
0
  9
$DIMEXE
 40
1.25
  9
$DIMTP
 40
0
  9
$DIMTM
 40
0
  9
$DIMTXT
 40
2.5
  9
$DIMCEN
 40
2.5
  9
$DIMTSZ
 40
0
  9
$DIMTOL
 70
    0
  9
$DIMLIM
 70
    0
  9
$DIMTIH
 70
    0
  9
$DIMTOH
 70
    0
  9
$DIMSE1
 70
    0
  9
$DIMSE2
 70
    0
  9
$DIMTAD
 70
    1
  9
$DIMZIN
 70
    8
  9
$DIMBLK
  1

  9
$DIMASO
 70
    1
  9
$DIMSHO
 70
    1
  9
$DIMPOST
  1

  9
$DIMAPOST
  1

  9
$DIMALT
 70
    0
  9
$DIMALTD
 70
    3
  9
$DIMALTF
 40
0.03937
  9
$DIMLFAC
 40
1
  9
$DIMTOFL
 70
    1
  9
$DIMTVP
 40
0
  9
$DIMTIX
 70
    0
  9
$DIMSOXD
 70
    0
  9
$DIMSAH
 70
    0
  9
$DIMBLK1
  1

  9
$DIMBLK2
  1

  9
$DIMSTYLE
  2
STANDARD
  9
$DIMCLRD
 70
    0
  9
$DIMCLRE
 70
    0
  9
$DIMCLRT
 70
    0
  9
$DIMTFAC
 40
1
  9
$DIMGAP
 40
0.625
  9
$DIMJUST
 70
    0
  9
$DIMSD1
 70
    0
  9
$DIMSD2
 70
    0
  9
$DIMTOLJ
 70
    0
  9
$DIMTZIN
 70
    8
  9
$DIMALTZ
 70
    0
  9
$DIMALTTZ
 70
    0
  9
$DIMUPT
 70
    0
  9
$DIMDEC
 70
    2
  9
$DIMTDEC
 70
    2
  9
$DIMALTU
 70
    2
  9
$DIMALTTD
 70
    3
  9
$DIMTXSTY
  7
STANDARD
  9
$DIMAUNIT
 70
    0
  9
$DIMADEC
 70
    0
  9
$DIMALTRND
 40
0
  9
$DIMAZIN
 70
    0
  9
$DIMDSEP
 70
   44
  9
$DIMATFIT
 70
    3
  9
$DIMFRAC
 70
    0
  9
$DIMLDRBLK
  1
STANDARD
  9
$DIMLUNIT
 70
    2
  9
$DIMLWD
 70
   -2
  9
$DIMLWE
 70
   -2
  9
$DIMTMOVE
 70
    0
  9
$DIMFXL
 40
1
  9
$DIMFXLON
 70
    0
  9
$DIMJOGANG
 40
0.7854
  9
$DIMTFILL
 70
    0
  9
$DIMTFILLCLR
 70
    0
  9
$DIMARCSYM
 70
    0
  9
$DIMLTYPE
  6

  9
$DIMLTEX1
  6

  9
$DIMLTEX2
  6

  9
$LUNITS
 70
    2
  9
$LUPREC
 70
    4
  9
$SKETCHINC
 40
1
  9
$FILLETRAD
 40
0
  9
$AUNITS
 70
    0
  9
$AUPREC
 70
    2
  9
$MENU
  1
.
  9
$ELEVATION
 40
0
  9
$PELEVATION
 40
0
  9
$THICKNESS
 40
0
  9
$LIMCHECK
 70
    0
  9
$CHAMFERA
 40
0
  9
$CHAMFERB
 40
0
  9
$CHAMFERC
 40
0
  9
$CHAMFERD
 40
0
  9
$SKPOLY
 70
    0
  9
$USRTIMER
 70
    1
  9
$ANGBASE
 50
0
  9
$ANGDIR
 70
    0
  9
$PDMODE
 70
   34
  9
$PDSIZE
 40
0
  9
$PLINEWID
 40
0
  9
$SPLFRAME
 70
    0
  9
$SPLINETYPE
 70
    2
  9
$SPLINESEGS
 70
    8
  9
$HANDSEED
  5
20000
  9
$SURFTAB1
 70
    6
  9
$SURFTAB2
 70
    6
  9
$SURFTYPE
 70
    6
  9
$SURFU
 70
    6
  9
$SURFV
 70
    6
  9
$UCSBASE
  2

  9
$UCSNAME
  2

  9
$UCSORG
 10
0
 20
0
 30
0
  9
$UCSXDIR
 10
1
 20
0
 30
0
  9
$UCSYDIR
 10
0
 20
1
 30
0
  9
$UCSORTHOREF
  2

  9
$UCSORTHOVIEW
 70
    0
  9
$UCSORGTOP
 10
0
 20
0
 30
0
  9
$UCSORGBOTTOM
 10
0
 20
0
 30
0
  9
$UCSORGLEFT
 10
0
 20
0
 30
0
  9
$UCSORGRIGHT
 10
0
 20
0
 30
0
  9
$UCSORGFRONT
 10
0
 20
0
 30
0
  9
$UCSORGBACK
 10
0
 20
0
 30
0
  9
$PUCSBASE
  2

  9
$PUCSNAME
  2

  9
$PUCSORG
 10
0
 20
0
 30
0
  9
$PUCSXDIR
 10
1
 20
0
 30
0
  9
$PUCSYDIR
 10
0
 20
1
 30
0
  9
$PUCSORTHOREF
  2

  9
$PUCSORTHOVIEW
 70
    0
  9
$PUCSORGTOP
 10
0
 20
0
 30
0
  9
$PUCSORGBOTTOM
 10
0
 20
0
 30
0
  9
$PUCSORGLEFT
 10
0
 20
0
 30
0
  9
$PUCSORGRIGHT
 10
0
 20
0
 30
0
  9
$PUCSORGFRONT
 10
0
 20
0
 30
0
  9
$PUCSORGBACK
 10
0
 20
0
 30
0
  9
$USERI1
 70
    0
  9
$USERI2
 70
    0
  9
$USERI3
 70
    0
  9
$USERI4
 70
    0
  9
$USERI5
 70
    0
  9
$USERR1
 40
0
  9
$USERR2
 40
0
  9
$USERR3
 40
0
  9
$USERR4
 40
0
  9
$USERR5
 40
0
  9
$WORLDVIEW
 70
    1
  9
$SHADEDGE
 70
    3
  9
$SHADEDIF
 70
   70
  9
$TILEMODE
 70
    1
  9
$MAXACTVP
 70
   64
  9
$PINSBASE
 10
0
 20
0
 30
0
  9
$PLIMCHECK
 70
    0
  9
$PEXTMIN
 10
0
 20
0
 30
0
  9
$PEXTMAX
 10
50
 20
50
 30
50
  9
$GRIDMODE
 70
    0
  9
$SNAPSTYLE
 70
    0
  9
$PLIMMIN
 10
0
 20
0
  9
$PLIMMAX
 10
12
 20
9
  9
$UNITMODE
 70
    0
  9
$VISRETAIN
 70
    1
  9
$PLINEGEN
 70
    0
  9
$PSLTSCALE
 70
    1
  9
$TREEDEPTH
 70
 3020
  9
$CMLSTYLE
  2
STANDARD
  9
$CMLJUST
 70
    0
  9
$CMLSCALE
 40
20
  9
$PROXYGRAPHICS
 70
    1
  9
$MEASUREMENT
 70
    1
  9
$CELWEIGHT
370
   -1
  9
$ENDCAPS
280
    0
  9
$JOINSTYLE
280
    0
  9
$LWDISPLAY
290
    0
  9
$INSUNITS
 70
    4
  9
$HYPERLINKBASE
  1

  9
$STYLESHEET
  1

  9
$XEDIT
290
    1
  9
$CEPSNTYPE
380
    0
  9
$PSTYLEMODE
290
    1
  9
$EXTNAMES
290
    1
  9
$PSVPSCALE
 40
1
  9
$OLESTARTUP
290
    0
  9
$SORTENTS
280
  127
  9
$INDEXCTL
280
    0
  9
$HIDETEXT
280
    1
  9
$XCLIPFRAME
290
    0
  9
$HALOGAP
280
    0
  9
$OBSCOLOR
 70
  257
  9
$OBSLTYPE
280
    0
  9
$INTERSECTIONDISPLAY
280
    0
  9
$INTERSECTIONCOLOR
 70
  257
  9
$DIMASSOC
280
    1
  9
$PROJECTNAME
  1

  9
$CAMERADISPLAY
290
    0
  9
$LENSLENGTH
 40
50
  9
$CAMERAHEIGHT
 40
0
  9
$STEPSPERSEC
 40
2
  9
$STEPSIZE
 40
50
  9
$3DDWFPREC
 40
2
  9
$PSOLWIDTH
 40
5
  9
$PSOLHEIGHT
 40
80
  9
$LOFTANG1
 40
1.570796326794897
  9
$LOFTANG2
 40
1.570796326794897
  9
$LOFTMAG1
 40
0
  9
$LOFTMAG2
 40
0
  9
$LOFTPARAM
 70
    7
  9
$LOFTNORMALS
280
    1
  9
$LATITUDE
 40
1
  9
$LONGITUDE
 40
1
  9
$NORTHDIRECTION
 40
0
  9
$TIMEZONE
 70
-8000
  9
$LIGHTGLYPHDISPLAY
280
    1
  9
$TILEMODELIGHTSYNCH
280
    1
  9
$SOLIDHIST
280
    1
  9
$SHOWHIST
280
    1
  9
$DWFFRAME
280
    2
  9
$DGNFRAME
280
    0
  9
$REALWORLDSCALE
290
    1
  9
$INTERFERECOLOR
 62
    1
  9
$CSHADOW
280
    0
  9
$SHADOWPLANELOCATION
 40
0
  0
ENDSEC
  0
SECTION
  2
CLASSES
  0
ENDSEC
  0
SECTION
  2
TABLES
  0
TABLE
  2
VPORT
  5
8
330
0
100
AcDbSymbolTable
 70
    1
  0
VPORT
  5
31
330
2
100
AcDbSymbolTableRecord
100
AcDbViewportTableRecord
  2
*ACTIVE
 70
    0
 10
0
 20
0
 11
1
 21
1
 12
27.03026987600292
 22
17.6870897155361
 13
0
 23
0
 14
10
 24
10
 15
10
 25
10
 16
0
 26
0
 36
1
 17
0
 27
0
 37
0
 40
70.74835886214441
 41
1.964689265536723
 42
50
 43
0
 44
0
 50
0
 51
0
 71
    0
 72
  100
 73
    1
 74
    3
 75
    0
 76
    0
 77
    0
 78
    0
281
    0
 65
    1
110
0
120
0
130
0
111
1
121
0
131
0
112
0
122
1
132
0
 79
    0
146
0
348
10020
 60
    7
 61
    5
292
1
282
    1
141
0
142
0
 63
  250
421
3358443
  0
ENDTAB
  0
TABLE
  2
LTYPE
  5
5
330
0
100
AcDbSymbolTable
 70
    4
  0
LTYPE
  5
14
330
5
100
AcDbSymbolTableRecord
100
AcDbLinetypeTableRecord
  2
ByBlock
 70
    0
  3

 72
   65
 73
    0
 40
0
  0
LTYPE
  5
15
330
5
100
AcDbSymbolTableRecord
100
AcDbLinetypeTableRecord
  2
ByLayer
 70
    0
  3

 72
   65
 73
    0
 40
0
  0
LTYPE
  5
16
330
5
100
AcDbSymbolTableRecord
100
AcDbLinetypeTableRecord
  2
Continuous
 70
    0
  3
Solid line
 72
   65
 73
    0
 40
0
  0
LTYPE
  5
32
330
5
100
AcDbSymbolTableRecord
100
AcDbLinetypeTableRecord
  2
DOT
 70
    0
  3
Dot . . . . . . . . . . . . . . . . . . . . . .
 72
   65
 73
    2
 40
6.35
 49
0
 74
    0
 49
-6.35
 74
    0
  0
LTYPE
  5
33
330
5
100
AcDbSymbolTableRecord
100
AcDbLinetypeTableRecord
  2
DOTTINY
 70
    0
  3
Dot (.15x) .....................................
 72
   65
 73
    2
 40
0.9525
 49
0
 74
    0
 49
-0.9525
 74
    0
  0
LTYPE
  5
34
330
5
100
AcDbSymbolTableRecord
100
AcDbLinetypeTableRecord
  2
DOT2
 70
    0
  3
Dot (.5x) .....................................
 72
   65
 73
    2
 40
3.175
 49
0
 74
    0
 49
-3.175
 74
    0
  0
LTYPE
  5
35
330
5
100
AcDbSymbolTableRecord
100
AcDbLinetypeTableRecord
  2
DOTX2
 70
    0
  3
Dot (2x) .  .  .  .  .  .  .  .  .  .  .  .  .
 72
   65
 73
    2
 40
12.7
 49
0
 74
    0
 49
-12.7
 74
    0
  0
LTYPE
  5
36
330
5
100
AcDbSymbolTableRecord
100
AcDbLinetypeTableRecord
  2
DASHED
 70
    0
  3
Dashed _ _ _ _ _ _ _ _ _ _ _ _ _ _ _ _ _
 72
   65
 73
    2
 40
19.05
 49
12.7
 74
    0
 49
-6.35
 74
    0
  0
LTYPE
  5
37
330
5
100
AcDbSymbolTableRecord
100
AcDbLinetypeTableRecord
  2
DASHEDTINY
 70
    0
  3
Dashed (.15x) _ _ _ _ _ _ _ _ _ _ _ _ _ _ _ _ _
 72
   65
 73
    2
 40
2.8575
 49
1.905
 74
    0
 49
-0.9525
 74
    0
  0
LTYPE
  5
38
330
5
100
AcDbSymbolTableRecord
100
AcDbLinetypeTableRecord
  2
DASHED2
 70
    0
  3
Dashed (.5x) _ _ _ _ _ _ _ _ _ _ _ _ _ _ _ _ _
 72
   65
 73
    2
 40
9.524999999999999
 49
6.35
 74
    0
 49
-3.175
 74
    0
  0
LTYPE
  5
39
330
5
100
AcDbSymbolTableRecord
100
AcDbLinetypeTableRecord
  2
DASHEDX2
 70
    0
  3
Dashed (2x) ____  ____  ____  ____  ____  ___
 72
   65
 73
    2
 40
38.09999999999999
 49
25.4
 74
    0
 49
-12.7
 74
    0
  0
LTYPE
  5
3A
330
5
100
AcDbSymbolTableRecord
100
AcDbLinetypeTableRecord
  2
DASHDOT
 70
    0
  3
Dash dot __ . __ . __ . __ . __ . __ . __ . __
 72
   65
 73
    4
 40
25.4
 49
12.7
 74
    0
 49
-6.35
 74
    0
 49
0
 74
    0
 49
-6.35
 74
    0
  0
LTYPE
  5
3B
330
5
100
AcDbSymbolTableRecord
100
AcDbLinetypeTableRecord
  2
DASHDOTTINY
 70
    0
  3
Dash dot (.15x) _._._._._._._._._._._._._._._.
 72
   65
 73
    4
 40
3.81
 49
1.905
 74
    0
 49
-0.9525
 74
    0
 49
0
 74
    0
 49
-0.9525
 74
    0
  0
LTYPE
  5
3C
330
5
100
AcDbSymbolTableRecord
100
AcDbLinetypeTableRecord
  2
DASHDOT2
 70
    0
  3
Dash dot (.5x) _._._._._._._._._._._._._._._.
 72
   65
 73
    4
 40
12.7
 49
6.35
 74
    0
 49
-3.175
 74
    0
 49
0
 74
    0
 49
-3.175
 74
    0
  0
LTYPE
  5
3D
330
5
100
AcDbSymbolTableRecord
100
AcDbLinetypeTableRecord
  2
DASHDOTX2
 70
    0
  3
Dash dot (2x) ____  .  ____  .  ____  .  ___
 72
   65
 73
    4
 40
50.8
 49
25.4
 74
    0
 49
-12.7
 74
    0
 49
0
 74
    0
 49
-12.7
 74
    0
  0
LTYPE
  5
3E
330
5
100
AcDbSymbolTableRecord
100
AcDbLinetypeTableRecord
  2
DIVIDE
 70
    0
  3
Divide ____ . . ____ . . ____ . . ____ . . ____
 72
   65
 73
    6
 40
31.75
 49
12.7
 74
    0
 49
-6.35
 74
    0
 49
0
 74
    0
 49
-6.35
 74
    0
 49
0
 74
    0
 49
-6.35
 74
    0
  0
LTYPE
  5
3F
330
5
100
AcDbSymbolTableRecord
100
AcDbLinetypeTableRecord
  2
DIVIDETINY
 70
    0
  3
Divide (.15x) __..__..__..__..__..__..__..__.._
 72
   65
 73
    6
 40
4.7625
 49
1.905
 74
    0
 49
-0.9525
 74
    0
 49
0
 74
    0
 49
-0.9525
 74
    0
 49
0
 74
    0
 49
-0.9525
 74
    0
  0
LTYPE
  5
40
330
5
100
AcDbSymbolTableRecord
100
AcDbLinetypeTableRecord
  2
DIVIDE2
 70
    0
  3
Divide (.5x) __..__..__..__..__..__..__..__.._
 72
   65
 73
    6
 40
15.875
 49
6.35
 74
    0
 49
-3.175
 74
    0
 49
0
 74
    0
 49
-3.175
 74
    0
 49
0
 74
    0
 49
-3.175
 74
    0
  0
LTYPE
  5
41
330
5
100
AcDbSymbolTableRecord
100
AcDbLinetypeTableRecord
  2
DIVIDEX2
 70
    0
  3
Divide (2x) ________  .  .  ________  .  .  _
 72
   65
 73
    6
 40
63.5
 49
25.4
 74
    0
 49
-12.7
 74
    0
 49
0
 74
    0
 49
-12.7
 74
    0
 49
0
 74
    0
 49
-12.7
 74
    0
  0
LTYPE
  5
42
330
5
100
AcDbSymbolTableRecord
100
AcDbLinetypeTableRecord
  2
BORDER
 70
    0
  3
Border __ __ . __ __ . __ __ . __ __ . __ __ .
 72
   65
 73
    6
 40
44.45
 49
12.7
 74
    0
 49
-6.35
 74
    0
 49
12.7
 74
    0
 49
-6.35
 74
    0
 49
0
 74
    0
 49
-6.35
 74
    0
  0
LTYPE
  5
43
330
5
100
AcDbSymbolTableRecord
100
AcDbLinetypeTableRecord
  2
BORDERTINY
 70
    0
  3
Border (.15x) __.__.__.__.__.__.__.__.__.__.__.
 72
   65
 73
    6
 40
6.6675
 49
1.905
 74
    0
 49
-0.9525
 74
    0
 49
1.905
 74
    0
 49
-0.9525
 74
    0
 49
0
 74
    0
 49
-0.9525
 74
    0
  0
LTYPE
  5
44
330
5
100
AcDbSymbolTableRecord
100
AcDbLinetypeTableRecord
  2
BORDER2
 70
    0
  3
Border (.5x) __.__.__.__.__.__.__.__.__.__.__.
 72
   65
 73
    6
 40
22.225
 49
6.35
 74
    0
 49
-3.175
 74
    0
 49
6.35
 74
    0
 49
-3.175
 74
    0
 49
0
 74
    0
 49
-3.175
 74
    0
  0
LTYPE
  5
45
330
5
100
AcDbSymbolTableRecord
100
AcDbLinetypeTableRecord
  2
BORDERX2
 70
    0
  3
Border (2x) ____  ____  .  ____  ____  .  ___
 72
   65
 73
    6
 40
88.89999999999999
 49
25.4
 74
    0
 49
-12.7
 74
    0
 49
25.4
 74
    0
 49
-12.7
 74
    0
 49
0
 74
    0
 49
-12.7
 74
    0
  0
LTYPE
  5
46
330
5
100
AcDbSymbolTableRecord
100
AcDbLinetypeTableRecord
  2
CENTER
 70
    0
  3
Center ____ _ ____ _ ____ _ ____ _ ____ _ ____
 72
   65
 73
    4
 40
50.8
 49
31.75
 74
    0
 49
-6.35
 74
    0
 49
6.35
 74
    0
 49
-6.35
 74
    0
  0
LTYPE
  5
47
330
5
100
AcDbSymbolTableRecord
100
AcDbLinetypeTableRecord
  2
CENTERTINY
 70
    0
  3
Center (.15x) ___ _ ___ _ ___ _ ___ _ ___ _ ___
 72
   65
 73
    4
 40
7.619999999999999
 49
4.7625
 74
    0
 49
-0.9525
 74
    0
 49
0.9525
 74
    0
 49
-0.9525
 74
    0
  0
LTYPE
  5
48
330
5
100
AcDbSymbolTableRecord
100
AcDbLinetypeTableRecord
  2
CENTER2
 70
    0
  3
Center (.5x) ___ _ ___ _ ___ _ ___ _ ___ _ ___
 72
   65
 73
    4
 40
28.575
 49
19.05
 74
    0
 49
-3.175
 74
    0
 49
3.175
 74
    0
 49
-3.175
 74
    0
  0
LTYPE
  5
49
330
5
100
AcDbSymbolTableRecord
100
AcDbLinetypeTableRecord
  2
CENTERX2
 70
    0
  3
Center (2x) ________  __  ________  __  _____
 72
   65
 73
    4
 40
101.6
 49
63.5
 74
    0
 49
-12.7
 74
    0
 49
12.7
 74
    0
 49
-12.7
 74
    0
  0
ENDTAB
  0
TABLE
  2
LAYER
  5
2
330
0
100
AcDbSymbolTable
 70
    1
  0
LAYER
  5
10
330
2
100
AcDbSymbolTableRecord
100
AcDbLayerTableRecord
  2
0
 70
    0
 62
    7
  6
CONTINUOUS
370
   -3
390
F
  0
LAYER
  5
4A
330
2
100
AcDbSymbolTableRecord
100
AcDbLayerTableRecord
  2
Shape2DView007
 70
    0
 62
    7
  6
CONTINUOUS
370
   -3
390
F
  0
LAYER
  5
4B
330
2
100
AcDbSymbolTableRecord
100
AcDbLayerTableRecord
  2
Sketch020
 70
    0
 62
    7
  6
CONTINUOUS
370
   -3
390
F
  0
LAYER
  5
4C
330
2
100
AcDbSymbolTableRecord
100
AcDbLayerTableRecord
  2
none
 70
    0
 62
    7
  6
CONTINUOUS
370
   -3
390
F
  0
ENDTAB
  0
TABLE
  2
STYLE
  5
3
330
0
100
AcDbSymbolTable
 70
    3
  0
STYLE
  5
4D
330
2
100
AcDbSymbolTableRecord
100
AcDbTextStyleTableRecord
  2
Standard
 70
    0
 40
0
 41
1
 50
0
 71
    0
 42
1
  3
txt
  4

  0
ENDTAB
  0
TABLE
  2
VIEW
  5
6
330
0
100
AcDbSymbolTable
 70
    0
  0
ENDTAB
  0
TABLE
  2
UCS
  5
7
330
0
100
AcDbSymbolTable
 70
    0
  0
ENDTAB
  0
TABLE
  2
APPID
  5
9
330
0
100
AcDbSymbolTable
 70
    1
  0
APPID
  5
12
330
9
100
AcDbSymbolTableRecord
100
AcDbRegAppTableRecord
  2
ACAD
 70
    0
  0
APPID
  5
4E
330
9
100
AcDbSymbolTableRecord
100
AcDbRegAppTableRecord
  2
LibreCad
 70
    0
  0
ENDTAB
  0
TABLE
  2
DIMSTYLE
  5
A
330
0
100
AcDbSymbolTable
 70
    1
100
AcDbDimStyleTable
 71
    1
  0
DIMSTYLE
105
4F
330
A
100
AcDbSymbolTableRecord
100
AcDbDimStyleTableRecord
  2
Standard
 70
    0
 40
1
 41
2.5
 42
0.625
 43
0.38
 44
1.25
 45
0
 46
0
 47
0
 48
0
 49
1
140
2.5
141
0.09
142
2.5
143
25.4
144
1
145
0
146
1
147
0.625
148
0
 71
    0
 72
    0
 73
    0
 74
    1
 75
    0
 76
    0
 77
    0
 78
    1
 79
    0
170
    0
171
    2
172
    0
173
    0
174
    0
175
    0
176
    0
177
    0
178
    0
179
    0
271
    2
272
    4
273
    2
274
    2
275
    0
276
    0
277
    2
278
    0
279
    0
280
    0
281
    0
282
    0
283
    1
284
    0
285
    0
286
    0
288
    0
289
    3
340
STANDARD
341

371
   -2
372
   -2
  0
ENDTAB
  0
TABLE
  2
BLOCK_RECORD
  5
1
330
0
100
AcDbSymbolTable
 70
    2
  0
BLOCK_RECORD
  5
1F
330
1
100
AcDbSymbolTableRecord
100
AcDbBlockTableRecord
  2
*Model_Space
 70
    0
280
    1
281
    0
  0
BLOCK_RECORD
  5
1E
330
1
100
AcDbSymbolTableRecord
100
AcDbBlockTableRecord
  2
*Paper_Space
 70
    0
280
    1
281
    0
  0
ENDTAB
  0
ENDSEC
  0
SECTION
  2
BLOCKS
  0
BLOCK
  5
20
330
1F
100
AcDbEntity
  8
0
100
AcDbBlockBegin
  2
*Model_Space
 70
    0
 10
0
 20
0
 30
0
  3
*Model_Space
  1

  0
ENDBLK
  5
21
330
1F
100
AcDbEntity
  8
0
100
AcDbBlockEnd
  0
BLOCK
  5
1C
330
1B
100
AcDbEntity
  8
0
100
AcDbBlockBegin
  2
*Paper_Space
 70
    0
 10
0
 20
0
 30
0
  3
*Paper_Space
  1

  0
ENDBLK
  5
1D
330
1F
100
AcDbEntity
  8
0
100
AcDbBlockEnd
  0
ENDSEC
  0
SECTION
  2
ENTITIES
  0
LINE
  5
50
100
AcDbEntity
  8
Shape2DView007
  6
ByLayer
 62
  256
370
   -1
100
AcDbLine
 10
52.6
 20
-10
 11
-79
 21
-10
  0
ARC
  5
51
100
AcDbEntity
  8
Shape2DView007
  6
ByLayer
 62
  256
370
   -1
100
AcDbCircle
 10
-79
 20
-5
 40
5
100
AcDbArc
 50
180
 51
-90
  0
ARC
  5
52
100
AcDbEntity
  8
Shape2DView007
  6
ByLayer
 62
  256
370
   -1
100
AcDbCircle
 10
52.6
 20
-9.6
 40
0.4
100
AcDbArc
 50
-90
 51
0
  0
LINE
  5
53
100
AcDbEntity
  8
Shape2DView007
  6
ByLayer
 62
  256
370
   -1
100
AcDbLine
 10
-84
 20
-5
 11
-84
 21
5
  0
LINE
  5
54
100
AcDbEntity
  8
Shape2DView007
  6
ByLayer
 62
  256
370
   -1
100
AcDbLine
 10
53
 20
-9.6
 11
53
 21
-6.4
  0
ARC
  5
55
100
AcDbEntity
  8
Shape2DView007
  6
ByLayer
 62
  256
370
   -1
100
AcDbCircle
 10
-79
 20
5
 40
5
100
AcDbArc
 50
90
 51
180
  0
ARC
  5
56
100
AcDbEntity
  8
Shape2DView007
  6
ByLayer
 62
  256
370
   -1
100
AcDbCircle
 10
52.6
 20
-6.4
 40
0.4
100
AcDbArc
 50
-1.27222e-13
 51
90
  0
LINE
  5
57
100
AcDbEntity
  8
Shape2DView007
  6
ByLayer
 62
  256
370
   -1
100
AcDbLine
 10
-79
 20
10
 11
52.6
 21
10
  0
LINE
  5
58
100
AcDbEntity
  8
Shape2DView007
  6
ByLayer
 62
  256
370
   -1
100
AcDbLine
 10
52.6
 20
-6
 11
50.2
 21
-6
  0
ARC
  5
59
100
AcDbEntity
  8
Shape2DView007
  6
ByLayer
 62
  256
370
   -1
100
AcDbCircle
 10
52.6
 20
9.6
 40
0.4
100
AcDbArc
 50
5.08889e-13
 51
90
  0
LINE
  5
5A
100
AcDbEntity
  8
Shape2DView007
  6
ByLayer
 62
  256
370
   -1
100
AcDbLine
 10
50.2
 20
-6
 11
50.2
 21
-1.65
  0
LINE
  5
5B
100
AcDbEntity
  8
Shape2DView007
  6
ByLayer
 62
  256
370
   -1
100
AcDbLine
 10
53
 20
6.4
 11
53
 21
9.6
  0
ARC
  5
5C
100
AcDbEntity
  8
Shape2DView007
  6
ByLayer
 62
  256
370
   -1
100
AcDbCircle
 10
49.8
 20
-1.65
 40
0.4
100
AcDbArc
 50
1.27222e-13
 51
90
  0
ARC
  5
5D
100
AcDbEntity
  8
Shape2DView007
  6
ByLayer
 62
  256
370
   -1
100
AcDbCircle
 10
52.6
 20
6.4
 40
0.4
100
AcDbArc
 50
-90
 51
2.54444e-13
  0
LINE
  5
5E
100
AcDbEntity
  8
Shape2DView007
  6
ByLayer
 62
  256
370
   -1
100
AcDbLine
 10
49.8
 20
-1.25
 11
47.6
 21
-1.25
  0
LINE
  5
5F
100
AcDbEntity
  8
Shape2DView007
  6
ByLayer
 62
  256
370
   -1
100
AcDbLine
 10
50.2
 20
6
 11
52.6
 21
6
  0
ARC
  5
60
100
AcDbEntity
  8
Shape2DView007
  6
ByLayer
 62
  256
370
   -1
100
AcDbCircle
 10
47.6
 20
-1.65
 40
0.4
100
AcDbArc
 50
90
 51
180
  0
LINE
  5
61
100
AcDbEntity
  8
Shape2DView007
  6
ByLayer
 62
  256
370
   -1
100
AcDbLine
 10
50.2
 20
1.65
 11
50.2
 21
6
  0
LINE
  5
62
100
AcDbEntity
  8
Shape2DView007
  6
ByLayer
 62
  256
370
   -1
100
AcDbLine
 10
47.2
 20
-1.65
 11
47.2
 21
-2.35
  0
ARC
  5
63
100
AcDbEntity
  8
Shape2DView007
  6
ByLayer
 62
  256
370
   -1
100
AcDbCircle
 10
49.8
 20
1.65
 40
0.4
100
AcDbArc
 50
-90
 51
9.541660000000001e-14
  0
ARC
  5
64
100
AcDbEntity
  8
Shape2DView007
  6
ByLayer
 62
  256
370
   -1
100
AcDbCircle
 10
46.8
 20
-2.35
 40
0.4
100
AcDbArc
 50
-90
 51
6.36111e-14
  0
LINE
  5
65
100
AcDbEntity
  8
Shape2DView007
  6
ByLayer
 62
  256
370
   -1
100
AcDbLine
 10
47.6
 20
1.25
 11
49.8
 21
1.25
  0
LINE
  5
66
100
AcDbEntity
  8
Shape2DView007
  6
ByLayer
 62
  256
370
   -1
100
AcDbLine
 10
46.8
 20
-2.75
 11
45.1
 21
-2.75
  0
ARC
  5
67
100
AcDbEntity
  8
Shape2DView007
  6
ByLayer
 62
  256
370
   -1
100
AcDbCircle
 10
47.6
 20
1.65
 40
0.4
100
AcDbArc
 50
180
 51
-90
  0
ARC
  5
68
100
AcDbEntity
  8
Shape2DView007
  6
ByLayer
 62
  256
370
   -1
100
AcDbCircle
 10
45.1
 20
-2.35
 40
0.4
100
AcDbArc
 50
180
 51
-90
  0
LINE
  5
69
100
AcDbEntity
  8
Shape2DView007
  6
ByLayer
 62
  256
370
   -1
100
AcDbLine
 10
47.2
 20
2.35
 11
47.2
 21
1.65
  0
LINE
  5
6A
100
AcDbEntity
  8
Shape2DView007
  6
ByLayer
 62
  256
370
   -1
100
AcDbLine
 10
44.7
 20
-2.35
 11
44.7
 21
-1.65
  0
ARC
  5
6B
100
AcDbEntity
  8
Shape2DView007
  6
ByLayer
 62
  256
370
   -1
100
AcDbCircle
 10
46.8
 20
2.35
 40
0.4
100
AcDbArc
 50
6.36111e-14
 51
90
  0
ARC
  5
6C
100
AcDbEntity
  8
Shape2DView007
  6
ByLayer
 62
  256
370
   -1
100
AcDbCircle
 10
44.3
 20
-1.65
 40
0.4
100
AcDbArc
 50
9.541660000000001e-14
 51
90
  0
LINE
  5
6D
100
AcDbEntity
  8
Shape2DView007
  6
ByLayer
 62
  256
370
   -1
100
AcDbLine
 10
45.1
 20
2.75
 11
46.8
 21
2.75
  0
LINE
  5
6E
100
AcDbEntity
  8
Shape2DView007
  6
ByLayer
 62
  256
370
   -1
100
AcDbLine
 10
44.3
 20
-1.25
 11
38.1
 21
-1.25
  0
ARC
  5
6F
100
AcDbEntity
  8
Shape2DView007
  6
ByLayer
 62
  256
370
   -1
100
AcDbCircle
 10
45.1
 20
2.35
 40
0.4
100
AcDbArc
 50
90
 51
180
  0
ARC
  5
70
100
AcDbEntity
  8
Shape2DView007
  6
ByLayer
 62
  256
370
   -1
100
AcDbCircle
 10
38.1
 20
-0.85
 40
0.4
100
AcDbArc
 50
-180
 51
-90
  0
LINE
  5
71
100
AcDbEntity
  8
Shape2DView007
  6
ByLayer
 62
  256
370
   -1
100
AcDbLine
 10
44.7
 20
1.65
 11
44.7
 21
2.35
  0
LINE
  5
72
100
AcDbEntity
  8
Shape2DView007
  6
ByLayer
 62
  256
370
   -1
100
AcDbLine
 10
37.7
 20
-0.85
 11
37.7
 21
0.85
  0
ARC
  5
73
100
AcDbEntity
  8
Shape2DView007
  6
ByLayer
 62
  256
370
   -1
100
AcDbCircle
 10
44.3
 20
1.65
 40
0.4
100
AcDbArc
 50
-90
 51
9.541660000000001e-14
  0
ARC
  5
74
100
AcDbEntity
  8
Shape2DView007
  6
ByLayer
 62
  256
370
   -1
100
AcDbCircle
 10
38.1
 20
0.85
 40
0.4
100
AcDbArc
 50
90
 51
-180
  0
LINE
  5
75
100
AcDbEntity
  8
Shape2DView007
  6
ByLayer
 62
  256
370
   -1
100
AcDbLine
 10
38.1
 20
1.25
 11
44.3
 21
1.25
  0
CIRCLE
  5
76
100
AcDbEntity
  8
Shape2DView007
  6
ByLayer
 62
  256
370
   -1
100
AcDbCircle
 10
-20
 20
-7
 40
0.6
  0
CIRCLE
  5
77
100
AcDbEntity
  8
Shape2DView007
  6
ByLayer
 62
  256
370
   -1
100
AcDbCircle
 10
10
 20
5.01e-15
 40
1.55
  0
CIRCLE
  5
78
100
AcDbEntity
  8
Shape2DView007
  6
ByLayer
 62
  256
370
   -1
100
AcDbCircle
 10
2.265e-14
 20
-2.69e-15
 40
3.5
  0
ARC
  5
79
100
AcDbEntity
  8
Shape2DView007
  6
ByLayer
 62
  256
370
   -1
100
AcDbCircle
 10
-75
 20
1.501e-14
 40
3.1
100
AcDbArc
 50
90
 51
-90
  0
LINE
  5
7A
100
AcDbEntity
  8
Shape2DView007
  6
ByLayer
 62
  256
370
   -1
100
AcDbLine
 10
-50
 20
3.1
 11
-75
 21
3.1
  0
LINE
  5
7B
100
AcDbEntity
  8
Shape2DView007
  6
ByLayer
 62
  256
370
   -1
100
AcDbLine
 10
-75
 20
-3.1
 11
-50
 21
-3.1
  0
ARC
  5
7C
100
AcDbEntity
  8
Shape2DView007
  6
ByLayer
 62
  256
370
   -1
100
AcDbCircle
 10
-50
 20
1.16e-14
 40
3.1
100
AcDbArc
 50
-90
 51
90
  0
CIRCLE
  5
7D
100
AcDbEntity
  8
Shape2DView007
  6
ByLayer
 62
  256
370
   -1
100
AcDbCircle
 10
-20
 20
7
 40
0.6
  0
SPLINE
  5
7E
100
AcDbEntity
  8
Sketch020
  6
ByLayer
 62
    1
370
   -1
100
AcDbSpline
210
0
220
0
230
0
 70
    8
 71
    1
 72
    4
 73
    2
 74
    0
 42
1e-07
 43
1e-07
 40
0
 40
0
 40
19.21
 40
19.21
 10
17.6444
 20
-3.38565
 30
0
 10
17.6444
 20
-4.30053
 30
0
  0
SPLINE
  5
7F
100
AcDbEntity
  8
Sketch020
  6
ByLayer
 62
    1
370
   -1
100
AcDbSpline
210
0
220
0
230
0
 70
    8
 71
    1
 72
    4
 73
    2
 74
    0
 42
1e-07
 43
1e-07
 40
0
 40
0
 40
56.7002
 40
56.7002
 10
17.6444
 20
-4.30053
 30
0
 10
14.9441
 20
-4.29339
 30
0
  0
SPLINE
  5
80
100
AcDbEntity
  8
Sketch020
  6
ByLayer
 62
    1
370
   -1
100
AcDbSpline
210
0
220
0
230
0
 70
    8
 71
    3
 72
    8
 73
    4
 74
    0
 42
1e-07
 43
1e-07
 40
0
 40
0
 40
0
 40
0
 40
1
 40
1
 40
1
 40
1
 10
14.9441
 20
-4.29339
 30
0
 10
14.7303
 20
-4.29339
 30
0
 10
14.3835
 20
-4.27148
 30
0
 10
14.3464
 20
-4.25672
 30
0
  0
SPLINE
  5
81
100
AcDbEntity
  8
Sketch020
  6
ByLayer
 62
    1
370
   -1
100
AcDbSpline
210
0
220
0
230
0
 70
    8
 71
    1
 72
    4
 73
    2
 74
    0
 42
1e-07
 43
1e-07
 40
0
 40
0
 40
0.83006
 40
0.83006
 10
14.3464
 20
-4.25672
 30
0
 10
14.3316
 20
-4.29339
 30
0
  0
SPLINE
  5
82
100
AcDbEntity
  8
Sketch020
  6
ByLayer
 62
    1
370
   -1
100
AcDbSpline
210
0
220
0
230
0
 70
    8
 71
    3
 72
    8
 73
    4
 74
    0
 42
1e-07
 43
1e-07
 40
0
 40
0
 40
0
 40
0
 40
1
 40
1
 40
1
 40
1
 10
14.3316
 20
-4.29339
 30
0
 10
14.3978
 20
-4.30815
 30
0
 10
14.6931
 20
-4.39578
 30
0
 10
14.8184
 20
-4.45436
 30
0
  0
SPLINE
  5
83
100
AcDbEntity
  8
Sketch020
  6
ByLayer
 62
    1
370
   -1
100
AcDbSpline
210
0
220
0
230
0
 70
    8
 71
    1
 72
    4
 73
    2
 74
    0
 42
1e-07
 43
1e-07
 40
0
 40
0
 40
65.19970000000001
 40
65.19970000000001
 10
14.8184
 20
-4.45436
 30
0
 10
17.6663
 20
-5.69166
 30
0
  0
SPLINE
  5
84
100
AcDbEntity
  8
Sketch020
  6
ByLayer
 62
    1
370
   -1
100
AcDbSpline
210
0
220
0
230
0
 70
    8
 71
    1
 72
    4
 73
    2
 74
    0
 42
1e-07
 43
1e-07
 40
0
 40
0
 40
10.76
 40
10.76
 10
17.6663
 20
-5.69166
 30
0
 10
17.6663
 20
-6.2041
 30
0
  0
SPLINE
  5
85
100
AcDbEntity
  8
Sketch020
  6
ByLayer
 62
    1
370
   -1
100
AcDbSpline
210
0
220
0
230
0
 70
    8
 71
    1
 72
    4
 73
    2
 74
    0
 42
1e-07
 43
1e-07
 40
0
 40
0
 40
66.01220000000001
 40
66.01220000000001
 10
17.6663
 20
-6.2041
 30
0
 10
14.7888
 20
-7.47045
 30
0
  0
SPLINE
  5
86
100
AcDbEntity
  8
Sketch020
  6
ByLayer
 62
    1
370
   -1
100
AcDbSpline
210
0
220
0
230
0
 70
    8
 71
    3
 72
    8
 73
    4
 74
    0
 42
1e-07
 43
1e-07
 40
0
 40
0
 40
0
 40
0
 40
1
 40
1
 40
1
 40
1
 10
14.7888
 20
-7.47045
 30
0
 10
14.5898
 20
-7.5657
 30
0
 10
14.3683
 20
-7.61666
 30
0
 10
14.3316
 20
-7.62428
 30
0
  0
SPLINE
  5
87
100
AcDbEntity
  8
Sketch020
  6
ByLayer
 62
    1
370
   -1
100
AcDbSpline
210
0
220
0
230
0
 70
    8
 71
    1
 72
    4
 73
    2
 74
    0
 42
1e-07
 43
1e-07
 40
0
 40
0
 40
0.6842510000000001
 40
0.6842510000000001
 10
14.3316
 20
-7.62428
 30
0
 10
14.3464
 20
-7.65333
 30
0
  0
SPLINE
  5
88
100
AcDbEntity
  8
Sketch020
  6
ByLayer
 62
    1
370
   -1
100
AcDbSpline
210
0
220
0
230
0
 70
    8
 71
    3
 72
    8
 73
    4
 74
    0
 42
1e-07
 43
1e-07
 40
0
 40
0
 40
0
 40
0
 40
1
 40
1
 40
1
 40
1
 10
14.3464
 20
-7.65333
 30
0
 10
14.3831
 20
-7.64619
 30
0
 10
14.7303
 20
-7.62428
 30
0
 10
14.9441
 20
-7.62428
 30
0
  0
SPLINE
  5
89
100
AcDbEntity
  8
Sketch020
  6
ByLayer
 62
    1
370
   -1
100
AcDbSpline
210
0
220
0
230
0
 70
    8
 71
    1
 72
    4
 73
    2
 74
    0
 42
1e-07
 43
1e-07
 40
0
 40
0
 40
56.7008
 40
56.7008
 10
14.9441
 20
-7.62428
 30
0
 10
17.6444
 20
-7.60952
 30
0
  0
SPLINE
  5
8A
100
AcDbEntity
  8
Sketch020
  6
ByLayer
 62
    1
370
   -1
100
AcDbSpline
210
0
220
0
230
0
 70
    8
 71
    1
 72
    4
 73
    2
 74
    0
 42
1e-07
 43
1e-07
 40
0
 40
0
 40
19.21
 40
19.21
 10
17.6444
 20
-7.60952
 30
0
 10
17.6444
 20
-8.52439
 30
0
  0
SPLINE
  5
8B
100
AcDbEntity
  8
Sketch020
  6
ByLayer
 62
    1
370
   -1
100
AcDbSpline
210
0
220
0
230
0
 70
    8
 71
    1
 72
    4
 73
    2
 74
    0
 42
1e-07
 43
1e-07
 40
0
 40
0
 40
102.24
 40
102.24
 10
17.6444
 20
-8.52439
 30
0
 10
12.7752
 20
-8.52439
 30
0
  0
SPLINE
  5
8C
100
AcDbEntity
  8
Sketch020
  6
ByLayer
 62
    1
370
   -1
100
AcDbSpline
210
0
220
0
230
0
 70
    8
 71
    1
 72
    4
 73
    2
 74
    0
 42
1e-07
 43
1e-07
 40
0
 40
0
 40
20.9
 40
20.9
 10
12.7752
 20
-8.52439
 30
0
 10
12.7752
 20
-7.52903
 30
0
  0
SPLINE
  5
8D
100
AcDbEntity
  8
Sketch020
  6
ByLayer
 62
    1
370
   -1
100
AcDbSpline
210
0
220
0
230
0
 70
    8
 71
    1
 72
    4
 73
    2
 74
    0
 42
1e-07
 43
1e-07
 40
0
 40
0
 40
64.16840000000001
 40
64.16840000000001
 10
12.7752
 20
-7.52903
 30
0
 10
15.5565
 20
-6.26268
 30
0
  0
SPLINE
  5
8E
100
AcDbEntity
  8
Sketch020
  6
ByLayer
 62
    1
370
   -1
100
AcDbSpline
210
0
220
0
230
0
 70
    8
 71
    3
 72
    8
 73
    4
 74
    0
 42
1e-07
 43
1e-07
 40
0
 40
0
 40
0
 40
0
 40
1
 40
1
 40
1
 40
1
 10
15.5565
 20
-6.26268
 30
0
 10
15.8371
 20
-6.13838
 30
0
 10
16.2428
 20
-5.98455
 30
0
 10
16.3609
 20
-5.94788
 30
0
  0
SPLINE
  5
8F
100
AcDbEntity
  8
Sketch020
  6
ByLayer
 62
    1
370
   -1
100
AcDbSpline
210
0
220
0
230
0
 70
    8
 71
    1
 72
    4
 73
    2
 74
    0
 42
1e-07
 43
1e-07
 40
0
 40
0
 40
0.46
 40
0.46
 10
16.3609
 20
-5.94788
 30
0
 10
16.3609
 20
-5.92597
 30
0
  0
SPLINE
  5
90
100
AcDbEntity
  8
Sketch020
  6
ByLayer
 62
    1
370
   -1
100
AcDbSpline
210
0
220
0
230
0
 70
    8
 71
    3
 72
    8
 73
    4
 74
    0
 42
1e-07
 43
1e-07
 40
0
 40
0
 40
0
 40
0
 40
1
 40
1
 40
1
 40
1
 10
16.3609
 20
-5.92597
 30
0
 10
16.2428
 20
-5.89692
 30
0
 10
15.8371
 20
-5.72833
 30
0
 10
15.5565
 20
-5.60403
 30
0
  0
SPLINE
  5
91
100
AcDbEntity
  8
Sketch020
  6
ByLayer
 62
    1
370
   -1
100
AcDbSpline
210
0
220
0
230
0
 70
    8
 71
    1
 72
    4
 73
    2
 74
    0
 42
1e-07
 43
1e-07
 40
0
 40
0
 40
64.0406
 40
64.0406
 10
15.5565
 20
-5.60403
 30
0
 10
12.7752
 20
-4.35244
 30
0
  0
SPLINE
  5
92
100
AcDbEntity
  8
Sketch020
  6
ByLayer
 62
    1
370
   -1
100
AcDbSpline
210
0
220
0
230
0
 70
    8
 71
    1
 72
    4
 73
    2
 74
    0
 42
1e-07
 43
1e-07
 40
0
 40
0
 40
20.29
 40
20.29
 10
12.7752
 20
-4.35244
 30
0
 10
12.7752
 20
-3.38613
 30
0
  0
SPLINE
  5
93
100
AcDbEntity
  8
Sketch020
  6
ByLayer
 62
    1
370
   -1
100
AcDbSpline
210
0
220
0
230
0
 70
    8
 71
    1
 72
    4
 73
    2
 74
    0
 42
1e-07
 43
1e-07
 40
0
 40
0
 40
102.24
 40
102.24
 10
12.7752
 20
-3.38613
 30
0
 10
17.6444
 20
-3.38613
 30
0
  0
SPLINE
  5
94
100
AcDbEntity
  8
Sketch020
  6
ByLayer
 62
    1
370
   -1
100
AcDbSpline
210
0
220
0
230
0
 70
    8
 71
    1
 72
    4
 73
    2
 74
    0
 42
1e-07
 43
1e-07
 40
0
 40
0
 40
0.01
 40
0.01
 10
17.6444
 20
-3.38613
 30
0
 10
17.6444
 20
-3.38565
 30
0
  0
SPLINE
  5
95
100
AcDbEntity
  8
Sketch020
  6
ByLayer
 62
    1
370
   -1
100
AcDbSpline
210
0
220
0
230
0
 70
    8
 71
    1
 72
    4
 73
    2
 74
    0
 42
1e-07
 43
1e-07
 40
0
 40
0
 40
73.12
 40
73.12
 10
14.1621
 20
0.449588
 30
0
 10
17.6444
 20
0.449588
 30
0
  0
SPLINE
  5
96
100
AcDbEntity
  8
Sketch020
  6
ByLayer
 62
    1
370
   -1
100
AcDbSpline
210
0
220
0
230
0
 70
    8
 71
    1
 72
    4
 73
    2
 74
    0
 42
1e-07
 43
1e-07
 40
0
 40
0
 40
14.773
 40
14.773
 10
17.6444
 20
0.449588
 30
0
 10
17.674
 20
-0.253357
 30
0
  0
SPLINE
  5
97
100
AcDbEntity
  8
Sketch020
  6
ByLayer
 62
    1
370
   -1
100
AcDbSpline
210
0
220
0
230
0
 70
    8
 71
    3
 72
    8
 73
    4
 74
    0
 42
1e-07
 43
1e-07
 40
0
 40
0
 40
0
 40
0
 40
1
 40
1
 40
1
 40
1
 10
17.674
 20
-0.253357
 30
0
 10
17.4306
 20
-0.311936
 30
0
 10
17.0691
 20
-0.355751
 30
0
 10
16.9658
 20
-0.355751
 30
0
  0
SPLINE
  5
98
100
AcDbEntity
  8
Sketch020
  6
ByLayer
 62
    1
370
   -1
100
AcDbSpline
210
0
220
0
230
0
 70
    8
 71
    1
 72
    4
 73
    2
 74
    0
 42
1e-07
 43
1e-07
 40
0
 40
0
 40
0.31
 40
0.31
 10
16.9658
 20
-0.355751
 30
0
 10
16.9658
 20
-0.370515
 30
0
  0
SPLINE
  5
99
100
AcDbEntity
  8
Sketch020
  6
ByLayer
 62
    1
370
   -1
100
AcDbSpline
210
0
220
0
230
0
 70
    8
 71
    3
 72
    8
 73
    4
 74
    0
 42
1e-07
 43
1e-07
 40
0
 40
0
 40
0
 40
0
 40
1
 40
1
 40
1
 40
1
 10
16.9658
 20
-0.370515
 30
0
 10
17.3715
 20
-0.546251
 30
0
 10
17.6887
 20
-0.890104
 30
0
 10
17.6887
 20
-1.46875
 30
0
  0
SPLINE
  5
9A
100
AcDbEntity
  8
Sketch020
  6
ByLayer
 62
    1
370
   -1
100
AcDbSpline
210
0
220
0
230
0
 70
    8
 71
    3
 72
    8
 73
    4
 74
    0
 42
1e-07
 43
1e-07
 40
0
 40
0
 40
0
 40
0
 40
1
 40
1
 40
1
 40
1
 10
17.6887
 20
-1.46875
 30
0
 10
17.6887
 20
-2.31076
 30
0
 10
17.1058
 20
-2.77177
 30
0
 10
16.3019
 20
-2.77177
 30
0
  0
SPLINE
  5
9B
100
AcDbEntity
  8
Sketch020
  6
ByLayer
 62
    1
370
   -1
100
AcDbSpline
210
0
220
0
230
0
 70
    8
 71
    1
 72
    4
 73
    2
 74
    0
 42
1e-07
 43
1e-07
 40
0
 40
0
 40
44.93
 40
44.93
 10
16.3019
 20
-2.77177
 30
0
 10
14.1621
 20
-2.77177
 30
0
  0
SPLINE
  5
9C
100
AcDbEntity
  8
Sketch020
  6
ByLayer
 62
    1
370
   -1
100
AcDbSpline
210
0
220
0
230
0
 70
    8
 71
    1
 72
    4
 73
    2
 74
    0
 42
1e-07
 43
1e-07
 40
0
 40
0
 40
18.75
 40
18.75
 10
14.1621
 20
-2.77177
 30
0
 10
14.1621
 20
-1.8788
 30
0
  0
SPLINE
  5
9D
100
AcDbEntity
  8
Sketch020
  6
ByLayer
 62
    1
370
   -1
100
AcDbSpline
210
0
220
0
230
0
 70
    8
 71
    1
 72
    4
 73
    2
 74
    0
 42
1e-07
 43
1e-07
 40
0
 40
0
 40
42.29
 40
42.29
 10
14.1621
 20
-1.8788
 30
0
 10
16.1761
 20
-1.8788
 30
0
  0
SPLINE
  5
9E
100
AcDbEntity
  8
Sketch020
  6
ByLayer
 62
    1
370
   -1
100
AcDbSpline
210
0
220
0
230
0
 70
    8
 71
    3
 72
    8
 73
    4
 74
    0
 42
1e-07
 43
1e-07
 40
0
 40
0
 40
0
 40
0
 40
1
 40
1
 40
1
 40
1
 10
16.1761
 20
-1.8788
 30
0
 10
16.6262
 20
-1.8788
 30
0
 10
16.9215
 20
-1.6521
 30
0
 10
16.9215
 20
-1.21252
 30
0
  0
SPLINE
  5
9F
100
AcDbEntity
  8
Sketch020
  6
ByLayer
 62
    1
370
   -1
100
AcDbSpline
210
0
220
0
230
0
 70
    8
 71
    3
 72
    8
 73
    4
 74
    0
 42
1e-07
 43
1e-07
 40
0
 40
0
 40
0
 40
0
 40
1
 40
1
 40
1
 40
1
 10
16.9215
 20
-1.21252
 30
0
 10
16.9215
 20
-0.70008
 30
0
 10
16.4052
 20
-0.443857
 30
0
 10
15.9695
 20
-0.443857
 30
0
  0
SPLINE
  5
A0
100
AcDbEntity
  8
Sketch020
  6
ByLayer
 62
    1
370
   -1
100
AcDbSpline
210
0
220
0
230
0
 70
    8
 71
    1
 72
    4
 73
    2
 74
    0
 42
1e-07
 43
1e-07
 40
0
 40
0
 40
37.95
 40
37.95
 10
15.9695
 20
-0.443857
 30
0
 10
14.1621
 20
-0.443857
 30
0
  0
SPLINE
  5
A1
100
AcDbEntity
  8
Sketch020
  6
ByLayer
 62
    1
370
   -1
100
AcDbSpline
210
0
220
0
230
0
 70
    8
 71
    1
 72
    4
 73
    2
 74
    0
 42
1e-07
 43
1e-07
 40
0
 40
0
 40
18.76
 40
18.76
 10
14.1621
 20
-0.443857
 30
0
 10
14.1621
 20
0.449588
 30
0
  0
SPLINE
  5
A2
100
AcDbEntity
  8
Sketch020
  6
ByLayer
 62
    1
370
   -1
100
AcDbSpline
210
0
220
0
230
0
 70
    8
 71
    3
 72
    8
 73
    4
 74
    0
 42
1e-07
 43
1e-07
 40
0
 40
0
 40
0
 40
0
 40
1
 40
1
 40
1
 40
1
 10
13.5053
 20
2.84322
 30
0
 10
13.5053
 20
2.3603
 30
0
 10
13.7339
 20
2.05979
 30
0
 10
14.103
 20
2.05979
 30
0
  0
SPLINE
  5
A3
100
AcDbEntity
  8
Sketch020
  6
ByLayer
 62
    1
370
   -1
100
AcDbSpline
210
0
220
0
230
0
 70
    8
 71
    3
 72
    8
 73
    4
 74
    0
 42
1e-07
 43
1e-07
 40
0
 40
0
 40
0
 40
0
 40
1
 40
1
 40
1
 40
1
 10
14.103
 20
2.05979
 30
0
 10
15.0403
 20
2.05979
 30
0
 10
14.5312
 20
4.61439
 30
0
 10
16.3533
 20
4.61439
 30
0
  0
SPLINE
  5
A4
100
AcDbEntity
  8
Sketch020
  6
ByLayer
 62
    1
370
   -1
100
AcDbSpline
210
0
220
0
230
0
 70
    8
 71
    3
 72
    8
 73
    4
 74
    0
 42
1e-07
 43
1e-07
 40
0
 40
0
 40
0
 40
0
 40
1
 40
1
 40
1
 40
1
 10
16.3533
 20
4.61439
 30
0
 10
17.1206
 20
4.61439
 30
0
 10
17.6963
 20
3.97765
 30
0
 10
17.6963
 20
2.81369
 30
0
  0
SPLINE
  5
A5
100
AcDbEntity
  8
Sketch020
  6
ByLayer
 62
    1
370
   -1
100
AcDbSpline
210
0
220
0
230
0
 70
    8
 71
    3
 72
    8
 73
    4
 74
    0
 42
1e-07
 43
1e-07
 40
0
 40
0
 40
0
 40
0
 40
1
 40
1
 40
1
 40
1
 10
17.6963
 20
2.81369
 30
0
 10
17.6963
 20
1.855
 30
0
 10
17.2906
 20
1.19587
 30
0
 10
17.0472
 20
0.917741
 30
0
  0
SPLINE
  5
A6
100
AcDbEntity
  8
Sketch020
  6
ByLayer
 62
    1
370
   -1
100
AcDbSpline
210
0
220
0
230
0
 70
    8
 71
    1
 72
    4
 73
    2
 74
    0
 42
1e-07
 43
1e-07
 40
0
 40
0
 40
18.3304
 40
18.3304
 10
17.0472
 20
0.917741
 30
0
 10
16.3686
 20
1.46686
 30
0
  0
SPLINE
  5
A7
100
AcDbEntity
  8
Sketch020
  6
ByLayer
 62
    1
370
   -1
100
AcDbSpline
210
0
220
0
230
0
 70
    8
 71
    3
 72
    8
 73
    4
 74
    0
 42
1e-07
 43
1e-07
 40
0
 40
0
 40
0
 40
0
 40
1
 40
1
 40
1
 40
1
 10
16.3686
 20
1.46686
 30
0
 10
16.5605
 20
1.67927
 30
0
 10
16.9291
 20
2.16933
 30
0
 10
16.9291
 20
2.8356
 30
0
  0
SPLINE
  5
A8
100
AcDbEntity
  8
Sketch020
  6
ByLayer
 62
    1
370
   -1
100
AcDbSpline
210
0
220
0
230
0
 70
    8
 71
    3
 72
    8
 73
    4
 74
    0
 42
1e-07
 43
1e-07
 40
0
 40
0
 40
0
 40
0
 40
1
 40
1
 40
1
 40
1
 10
16.9291
 20
2.8356
 30
0
 10
16.9291
 20
3.39186
 30
0
 10
16.7153
 20
3.6919
 30
0
 10
16.3686
 20
3.6919
 30
0
  0
SPLINE
  5
A9
100
AcDbEntity
  8
Sketch020
  6
ByLayer
 62
    1
370
   -1
100
AcDbSpline
210
0
220
0
230
0
 70
    8
 71
    3
 72
    8
 73
    4
 74
    0
 42
1e-07
 43
1e-07
 40
0
 40
0
 40
0
 40
0
 40
1
 40
1
 40
1
 40
1
 10
16.3686
 20
3.6919
 30
0
 10
15.2913
 20
3.6919
 30
0
 10
15.8447
 20
1.13729
 30
0
 10
14.1478
 20
1.13729
 30
0
  0
SPLINE
  5
AA
100
AcDbEntity
  8
Sketch020
  6
ByLayer
 62
    1
370
   -1
100
AcDbSpline
210
0
220
0
230
0
 70
    8
 71
    3
 72
    8
 73
    4
 74
    0
 42
1e-07
 43
1e-07
 40
0
 40
0
 40
0
 40
0
 40
1
 40
1
 40
1
 40
1
 10
14.1478
 20
1.13729
 30
0
 10
13.3363
 20
1.13729
 30
0
 10
12.7238
 20
1.81071
 30
0
 10
12.7238
 20
2.82084
 30
0
  0
SPLINE
  5
AB
100
AcDbEntity
  8
Sketch020
  6
ByLayer
 62
    1
370
   -1
100
AcDbSpline
210
0
220
0
230
0
 70
    8
 71
    3
 72
    8
 73
    4
 74
    0
 42
1e-07
 43
1e-07
 40
0
 40
0
 40
0
 40
0
 40
1
 40
1
 40
1
 40
1
 10
12.7238
 20
2.82084
 30
0
 10
12.7238
 20
4.11624
 30
0
 10
13.5058
 20
4.48247
 30
0
 10
13.9783
 20
4.57772
 30
0
  0
SPLINE
  5
AC
100
AcDbEntity
  8
Sketch020
  6
ByLayer
 62
    1
370
   -1
100
AcDbSpline
210
0
220
0
230
0
 70
    8
 71
    1
 72
    4
 73
    2
 74
    0
 42
1e-07
 43
1e-07
 40
0
 40
0
 40
18.0495
 40
18.0495
 10
13.9783
 20
4.57772
 30
0
 10
14.1849
 20
3.74333
 30
0
  0
SPLINE
  5
AD
100
AcDbEntity
  8
Sketch020
  6
ByLayer
 62
    1
370
   -1
100
AcDbSpline
210
0
220
0
230
0
 70
    8
 71
    3
 72
    8
 73
    4
 74
    0
 42
1e-07
 43
1e-07
 40
0
 40
0
 40
0
 40
0
 40
1
 40
1
 40
1
 40
1
 10
14.1849
 20
3.74333
 30
0
 10
13.9187
 20
3.7219
 30
0
 10
13.5053
 20
3.45806
 30
0
 10
13.5053
 20
2.84322
 30
0
  0
SPLINE
  5
AE
100
AcDbEntity
  8
Sketch020
  6
ByLayer
 62
    1
370
   -1
100
AcDbSpline
210
0
220
0
230
0
 70
    8
 71
    3
 72
    8
 73
    4
 74
    0
 42
1e-07
 43
1e-07
 40
0
 40
0
 40
0
 40
0
 40
1
 40
1
 40
1
 40
1
 10
15.9109
 20
8.58441
 30
0
 10
16.9586
 20
8.58441
 30
0
 10
17.6887
 20
7.86718
 30
0
 10
17.6887
 20
6.77657
 30
0
  0
SPLINE
  5
AF
100
AcDbEntity
  8
Sketch020
  6
ByLayer
 62
    1
370
   -1
100
AcDbSpline
210
0
220
0
230
0
 70
    8
 71
    3
 72
    8
 73
    4
 74
    0
 42
1e-07
 43
1e-07
 40
0
 40
0
 40
0
 40
0
 40
1
 40
1
 40
1
 40
1
 10
17.6887
 20
6.77657
 30
0
 10
17.6887
 20
5.6931
 30
0
 10
16.9582
 20
4.96872
 30
0
 10
15.9109
 20
4.96872
 30
0
  0
SPLINE
  5
B0
100
AcDbEntity
  8
Sketch020
  6
ByLayer
 62
    1
370
   -1
100
AcDbSpline
210
0
220
0
230
0
 70
    8
 71
    3
 72
    8
 73
    4
 74
    0
 42
1e-07
 43
1e-07
 40
0
 40
0
 40
0
 40
0
 40
1
 40
1
 40
1
 40
1
 10
15.9109
 20
4.96872
 30
0
 10
14.8636
 20
4.96872
 30
0
 10
14.1178
 20
5.69358
 30
0
 10
14.1178
 20
6.77657
 30
0
  0
SPLINE
  5
B1
100
AcDbEntity
  8
Sketch020
  6
ByLayer
 62
    1
370
   -1
100
AcDbSpline
210
0
220
0
230
0
 70
    8
 71
    3
 72
    8
 73
    4
 74
    0
 42
1e-07
 43
1e-07
 40
0
 40
0
 40
0
 40
0
 40
1
 40
1
 40
1
 40
1
 10
14.1178
 20
6.77657
 30
0
 10
14.1178
 20
7.86671
 30
0
 10
14.8631
 20
8.58441
 30
0
 10
15.9109
 20
8.58441
 30
0
  0
SPLINE
  5
B2
100
AcDbEntity
  8
Sketch020
  6
ByLayer
 62
    1
370
   -1
100
AcDbSpline
210
0
220
0
230
0
 70
    8
 71
    3
 72
    8
 73
    4
 74
    0
 42
1e-07
 43
1e-07
 40
0
 40
0
 40
0
 40
0
 40
1
 40
1
 40
1
 40
1
 10
15.9109
 20
7.67668
 30
0
 10
15.2913
 20
7.67668
 30
0
 10
14.856
 20
7.32521
 30
0
 10
14.856
 20
6.77657
 30
0
  0
SPLINE
  5
B3
100
AcDbEntity
  8
Sketch020
  6
ByLayer
 62
    1
370
   -1
100
AcDbSpline
210
0
220
0
230
0
 70
    8
 71
    3
 72
    8
 73
    4
 74
    0
 42
1e-07
 43
1e-07
 40
0
 40
0
 40
0
 40
0
 40
1
 40
1
 40
1
 40
1
 10
14.856
 20
6.77657
 30
0
 10
14.856
 20
6.22745
 30
0
 10
15.2913
 20
5.87598
 30
0
 10
15.9109
 20
5.87598
 30
0
  0
SPLINE
  5
B4
100
AcDbEntity
  8
Sketch020
  6
ByLayer
 62
    1
370
   -1
100
AcDbSpline
210
0
220
0
230
0
 70
    8
 71
    3
 72
    8
 73
    4
 74
    0
 42
1e-07
 43
1e-07
 40
0
 40
0
 40
0
 40
0
 40
1
 40
1
 40
1
 40
1
 10
15.9109
 20
5.87598
 30
0
 10
16.5233
 20
5.87598
 30
0
 10
16.951
 20
6.22745
 30
0
 10
16.951
 20
6.77657
 30
0
  0
SPLINE
  5
B5
100
AcDbEntity
  8
Sketch020
  6
ByLayer
 62
    1
370
   -1
100
AcDbSpline
210
0
220
0
230
0
 70
    8
 71
    3
 72
    8
 73
    4
 74
    0
 42
1e-07
 43
1e-07
 40
0
 40
0
 40
0
 40
0
 40
1
 40
1
 40
1
 40
1
 10
16.951
 20
6.77657
 30
0
 10
16.951
 20
7.32521
 30
0
 10
16.5229
 20
7.67668
 30
0
 10
15.9109
 20
7.67668
 30
0
  0
SPLINE
  5
B6
100
AcDbEntity
  8
Sketch020
  6
ByLayer
 62
    1
370
   -1
100
AcDbSpline
210
0
220
0
230
0
 70
    8
 71
    1
 72
    4
 73
    2
 74
    0
 42
1e-07
 43
1e-07
 40
0
 40
0
 40
359.23
 40
359.23
 10
28.5486
 20
8.58441
 30
0
 10
28.5486
 20
-8.52392
 30
0
  0
SPLINE
  5
B7
100
AcDbEntity
  8
Sketch020
  6
ByLayer
 62
    1
370
   -1
100
AcDbSpline
210
0
220
0
230
0
 70
    8
 71
    1
 72
    4
 73
    2
 74
    0
 42
1e-07
 43
1e-07
 40
0
 40
0
 40
191.5
 40
191.5
 10
28.5486
 20
-8.52392
 30
0
 10
19.4285
 20
-8.52392
 30
0
  0
SPLINE
  5
B8
100
AcDbEntity
  8
Sketch020
  6
ByLayer
 62
    1
370
   -1
100
AcDbSpline
210
0
220
0
230
0
 70
    8
 71
    1
 72
    4
 73
    2
 74
    0
 42
1e-07
 43
1e-07
 40
0
 40
0
 40
359.23
 40
359.23
 10
19.4285
 20
-8.52392
 30
0
 10
19.4285
 20
8.58441
 30
0
  0
SPLINE
  5
B9
100
AcDbEntity
  8
Sketch020
  6
ByLayer
 62
    1
370
   -1
100
AcDbSpline
210
0
220
0
230
0
 70
    8
 71
    1
 72
    4
 73
    2
 74
    0
 42
1e-07
 43
1e-07
 40
0
 40
0
 40
191.5
 40
191.5
 10
19.4285
 20
8.58441
 30
0
 10
28.5486
 20
8.58441
 30
0
  0
SPLINE
  5
BA
100
AcDbEntity
  8
Sketch020
  6
ByLayer
 62
    1
370
   -1
100
AcDbSpline
210
0
220
0
230
0
 70
    8
 71
    1
 72
    4
 73
    2
 74
    0
 42
1e-07
 43
1e-07
 40
0
 40
0
 40
328.47
 40
328.47
 10
27.8162
 20
-7.79144
 30
0
 10
27.8162
 20
7.85194
 30
0
  0
SPLINE
  5
BB
100
AcDbEntity
  8
Sketch020
  6
ByLayer
 62
    1
370
   -1
100
AcDbSpline
210
0
220
0
230
0
 70
    8
 71
    1
 72
    4
 73
    2
 74
    0
 42
1e-07
 43
1e-07
 40
0
 40
0
 40
160.74
 40
160.74
 10
27.8162
 20
7.85194
 30
0
 10
20.1609
 20
7.85194
 30
0
  0
SPLINE
  5
BC
100
AcDbEntity
  8
Sketch020
  6
ByLayer
 62
    1
370
   -1
100
AcDbSpline
210
0
220
0
230
0
 70
    8
 71
    1
 72
    4
 73
    2
 74
    0
 42
1e-07
 43
1e-07
 40
0
 40
0
 40
328.47
 40
328.47
 10
20.1609
 20
7.85194
 30
0
 10
20.1609
 20
-7.79144
 30
0
  0
SPLINE
  5
BD
100
AcDbEntity
  8
Sketch020
  6
ByLayer
 62
    1
370
   -1
100
AcDbSpline
210
0
220
0
230
0
 70
    8
 71
    1
 72
    4
 73
    2
 74
    0
 42
1e-07
 43
1e-07
 40
0
 40
0
 40
160.74
 40
160.74
 10
20.1609
 20
-7.79144
 30
0
 10
27.8162
 20
-7.79144
 30
0
  0
SPLINE
  5
BE
100
AcDbEntity
  8
Sketch020
  6
ByLayer
 62
    1
370
   -1
100
AcDbSpline
210
0
220
0
230
0
 70
    8
 71
    1
 72
    4
 73
    2
 74
    0
 42
1e-07
 43
1e-07
 40
0
 40
0
 40
10.42
 40
10.42
 10
31.741
 20
-6.50128
 30
0
 10
31.741
 20
-6.99753
 30
0
  0
SPLINE
  5
BF
100
AcDbEntity
  8
Sketch020
  6
ByLayer
 62
    1
370
   -1
100
AcDbSpline
210
0
220
0
230
0
 70
    8
 71
    1
 72
    4
 73
    2
 74
    0
 42
1e-07
 43
1e-07
 40
0
 40
0
 40
16.76
 40
16.76
 10
31.741
 20
-6.99753
 30
0
 10
30.9428
 20
-6.99753
 30
0
  0
SPLINE
  5
C0
100
AcDbEntity
  8
Sketch020
  6
ByLayer
 62
    1
370
   -1
100
AcDbSpline
210
0
220
0
230
0
 70
    8
 71
    3
 72
    8
 73
    4
 74
    0
 42
1e-07
 43
1e-07
 40
0
 40
0
 40
0
 40
0
 40
1
 40
1
 40
1
 40
1
 10
30.9428
 20
-6.99753
 30
0
 10
30.8566
 20
-6.99753
 30
0
 10
30.7623
 20
-6.98944
 30
0
 10
30.7461
 20
-6.9842
 30
0
  0
SPLINE
  5
C1
100
AcDbEntity
  8
Sketch020
  6
ByLayer
 62
    1
370
   -1
100
AcDbSpline
210
0
220
0
230
0
 70
    8
 71
    1
 72
    4
 73
    2
 74
    0
 42
1e-07
 43
1e-07
 40
0
 40
0
 40
0.300832
 40
0.300832
 10
30.7461
 20
-6.9842
 30
0
 10
30.7408
 20
-6.99753
 30
0
  0
SPLINE
  5
C2
100
AcDbEntity
  8
Sketch020
  6
ByLayer
 62
    1
370
   -1
100
AcDbSpline
210
0
220
0
230
0
 70
    8
 71
    3
 72
    8
 73
    4
 74
    0
 42
1e-07
 43
1e-07
 40
0
 40
0
 40
0
 40
0
 40
1
 40
1
 40
1
 40
1
 10
30.7408
 20
-6.99753
 30
0
 10
30.7542
 20
-6.99992
 30
0
 10
30.8299
 20
-7.0242
 30
0
 10
30.8756
 20
-7.04325
 30
0
  0
SPLINE
  5
C3
100
AcDbEntity
  8
Sketch020
  6
ByLayer
 62
    1
370
   -1
100
AcDbSpline
210
0
220
0
230
0
 70
    8
 71
    1
 72
    4
 73
    2
 74
    0
 42
1e-07
 43
1e-07
 40
0
 40
0
 40
19.9196
 40
19.9196
 10
30.8756
 20
-7.04325
 30
0
 10
31.7571
 20
-7.39377
 30
0
  0
SPLINE
  5
C4
100
AcDbEntity
  8
Sketch020
  6
ByLayer
 62
    1
370
   -1
100
AcDbSpline
210
0
220
0
230
0
 70
    8
 71
    1
 72
    4
 73
    2
 74
    0
 42
1e-07
 43
1e-07
 40
0
 40
0
 40
5.32
 40
5.32
 10
31.7571
 20
-7.39377
 30
0
 10
31.7571
 20
-7.64714
 30
0
  0
SPLINE
  5
C5
100
AcDbEntity
  8
Sketch020
  6
ByLayer
 62
    1
370
   -1
100
AcDbSpline
210
0
220
0
230
0
 70
    8
 71
    1
 72
    4
 73
    2
 74
    0
 42
1e-07
 43
1e-07
 40
0
 40
0
 40
19.9605
 40
19.9605
 10
31.7571
 20
-7.64714
 30
0
 10
30.8756
 20
-8.0029
 30
0
  0
SPLINE
  5
C6
100
AcDbEntity
  8
Sketch020
  6
ByLayer
 62
    1
370
   -1
100
AcDbSpline
210
0
220
0
230
0
 70
    8
 71
    3
 72
    8
 73
    4
 74
    0
 42
1e-07
 43
1e-07
 40
0
 40
0
 40
0
 40
0
 40
1
 40
1
 40
1
 40
1
 10
30.8756
 20
-8.0029
 30
0
 10
30.8299
 20
-8.02195
 30
0
 10
30.7542
 20
-8.046239999999999
 30
0
 10
30.7408
 20
-8.04862
 30
0
  0
SPLINE
  5
C7
100
AcDbEntity
  8
Sketch020
  6
ByLayer
 62
    1
370
   -1
100
AcDbSpline
210
0
220
0
230
0
 70
    8
 71
    1
 72
    4
 73
    2
 74
    0
 42
1e-07
 43
1e-07
 40
0
 40
0
 40
0.300832
 40
0.300832
 10
30.7408
 20
-8.04862
 30
0
 10
30.7461
 20
-8.06195
 30
0
  0
SPLINE
  5
C8
100
AcDbEntity
  8
Sketch020
  6
ByLayer
 62
    1
370
   -1
100
AcDbSpline
210
0
220
0
230
0
 70
    8
 71
    3
 72
    8
 73
    4
 74
    0
 42
1e-07
 43
1e-07
 40
0
 40
0
 40
0
 40
0
 40
1
 40
1
 40
1
 40
1
 10
30.7461
 20
-8.06195
 30
0
 10
30.7623
 20
-8.056710000000001
 30
0
 10
30.8618
 20
-8.04862
 30
0
 10
30.9428
 20
-8.04862
 30
0
  0
SPLINE
  5
C9
100
AcDbEntity
  8
Sketch020
  6
ByLayer
 62
    1
370
   -1
100
AcDbSpline
210
0
220
0
230
0
 70
    8
 71
    1
 72
    4
 73
    2
 74
    0
 42
1e-07
 43
1e-07
 40
0
 40
0
 40
16.76
 40
16.76
 10
30.9428
 20
-8.04862
 30
0
 10
31.741
 20
-8.04862
 30
0
  0
SPLINE
  5
CA
100
AcDbEntity
  8
Sketch020
  6
ByLayer
 62
    1
370
   -1
100
AcDbSpline
210
0
220
0
230
0
 70
    8
 71
    1
 72
    4
 73
    2
 74
    0
 42
1e-07
 43
1e-07
 40
0
 40
0
 40
10.3
 40
10.3
 10
31.741
 20
-8.04862
 30
0
 10
31.741
 20
-8.539160000000001
 30
0
  0
SPLINE
  5
CB
100
AcDbEntity
  8
Sketch020
  6
ByLayer
 62
    1
370
   -1
100
AcDbSpline
210
0
220
0
230
0
 70
    8
 71
    1
 72
    4
 73
    2
 74
    0
 42
1e-07
 43
1e-07
 40
0
 40
0
 40
37.37
 40
37.37
 10
31.741
 20
-8.539160000000001
 30
0
 10
29.9612
 20
-8.539160000000001
 30
0
  0
SPLINE
  5
CC
100
AcDbEntity
  8
Sketch020
  6
ByLayer
 62
    1
370
   -1
100
AcDbSpline
210
0
220
0
230
0
 70
    8
 71
    1
 72
    4
 73
    2
 74
    0
 42
1e-07
 43
1e-07
 40
0
 40
0
 40
11.21
 40
11.21
 10
29.9612
 20
-8.539160000000001
 30
0
 10
29.9612
 20
-8.005280000000001
 30
0
  0
SPLINE
  5
CD
100
AcDbEntity
  8
Sketch020
  6
ByLayer
 62
    1
370
   -1
100
AcDbSpline
210
0
220
0
230
0
 70
    8
 71
    1
 72
    4
 73
    2
 74
    0
 42
1e-07
 43
1e-07
 40
0
 40
0
 40
16.9705
 40
16.9705
 10
29.9612
 20
-8.005280000000001
 30
0
 10
30.6946
 20
-7.66571
 30
0
  0
SPLINE
  5
CE
100
AcDbEntity
  8
Sketch020
  6
ByLayer
 62
    1
370
   -1
100
AcDbSpline
210
0
220
0
230
0
 70
    8
 71
    3
 72
    8
 73
    4
 74
    0
 42
1e-07
 43
1e-07
 40
0
 40
0
 40
0
 40
0
 40
1
 40
1
 40
1
 40
1
 10
30.6946
 20
-7.66571
 30
0
 10
30.8456
 20
-7.5957
 30
0
 10
31.029
 20
-7.5257
 30
0
 10
31.0671
 20
-7.5176
 30
0
  0
SPLINE
  5
CF
100
AcDbEntity
  8
Sketch020
  6
ByLayer
 62
    1
370
   -1
100
AcDbSpline
210
0
220
0
230
0
 70
    8
 71
    1
 72
    4
 73
    2
 74
    0
 42
1e-07
 43
1e-07
 40
0
 40
0
 40
0.23
 40
0.23
 10
31.0671
 20
-7.5176
 30
0
 10
31.0671
 20
-7.50665
 30
0
  0
SPLINE
  5
D0
100
AcDbEntity
  8
Sketch020
  6
ByLayer
 62
    1
370
   -1
100
AcDbSpline
210
0
220
0
230
0
 70
    8
 71
    3
 72
    8
 73
    4
 74
    0
 42
1e-07
 43
1e-07
 40
0
 40
0
 40
0
 40
0
 40
1
 40
1
 40
1
 40
1
 10
31.0671
 20
-7.50665
 30
0
 10
31.029
 20
-7.50141
 30
0
 10
30.8432
 20
-7.42854
 30
0
 10
30.6922
 20
-7.36091
 30
0
  0
SPLINE
  5
D1
100
AcDbEntity
  8
Sketch020
  6
ByLayer
 62
    1
370
   -1
100
AcDbSpline
210
0
220
0
230
0
 70
    8
 71
    1
 72
    4
 73
    2
 74
    0
 42
1e-07
 43
1e-07
 40
0
 40
0
 40
16.8245
 40
16.8245
 10
30.6922
 20
-7.36091
 30
0
 10
29.9617
 20
-7.03182
 30
0
  0
SPLINE
  5
D2
100
AcDbEntity
  8
Sketch020
  6
ByLayer
 62
    1
370
   -1
100
AcDbSpline
210
0
220
0
230
0
 70
    8
 71
    1
 72
    4
 73
    2
 74
    0
 42
1e-07
 43
1e-07
 40
0
 40
0
 40
11.15
 40
11.15
 10
29.9617
 20
-7.03182
 30
0
 10
29.9617
 20
-6.50081
 30
0
  0
SPLINE
  5
D3
100
AcDbEntity
  8
Sketch020
  6
ByLayer
 62
    1
370
   -1
100
AcDbSpline
210
0
220
0
230
0
 70
    8
 71
    1
 72
    4
 73
    2
 74
    0
 42
1e-07
 43
1e-07
 40
0
 40
0
 40
37.36
 40
37.36
 10
29.9617
 20
-6.50081
 30
0
 10
31.741
 20
-6.50081
 30
0
  0
SPLINE
  5
D4
100
AcDbEntity
  8
Sketch020
  6
ByLayer
 62
    1
370
   -1
100
AcDbSpline
210
0
220
0
230
0
 70
    8
 71
    1
 72
    4
 73
    2
 74
    0
 42
1e-07
 43
1e-07
 40
0
 40
0
 40
0.01
 40
0.01
 10
31.741
 20
-6.50081
 30
0
 10
31.741
 20
-6.50128
 30
0
  0
SPLINE
  5
D5
100
AcDbEntity
  8
Sketch020
  6
ByLayer
 62
    1
370
   -1
100
AcDbSpline
210
0
220
0
230
0
 70
    8
 71
    3
 72
    8
 73
    4
 74
    0
 42
1e-07
 43
1e-07
 40
0
 40
0
 40
0
 40
0
 40
1
 40
1
 40
1
 40
1
 10
31.73
 20
-4.87441
 30
0
 10
31.73
 20
-4.87441
 30
0
 10
31.7571
 20
-4.96585
 30
0
 10
31.7571
 20
-5.09539
 30
0
  0
SPLINE
  5
D6
100
AcDbEntity
  8
Sketch020
  6
ByLayer
 62
    1
370
   -1
100
AcDbSpline
210
0
220
0
230
0
 70
    8
 71
    3
 72
    8
 73
    4
 74
    0
 42
1e-07
 43
1e-07
 40
0
 40
0
 40
0
 40
0
 40
1
 40
1
 40
1
 40
1
 10
31.7571
 20
-5.09539
 30
0
 10
31.7571
 20
-5.32447
 30
0
 10
31.6733
 20
-5.42448
 30
0
 10
31.5171
 20
-5.45401
 30
0
  0
SPLINE
  5
D7
100
AcDbEntity
  8
Sketch020
  6
ByLayer
 62
    1
370
   -1
100
AcDbSpline
210
0
220
0
230
0
 70
    8
 71
    1
 72
    4
 73
    2
 74
    0
 42
1e-07
 43
1e-07
 40
0
 40
0
 40
0.17
 40
0.17
 10
31.5171
 20
-5.45401
 30
0
 10
31.5171
 20
-5.4621
 30
0
  0
SPLINE
  5
D8
100
AcDbEntity
  8
Sketch020
  6
ByLayer
 62
    1
370
   -1
100
AcDbSpline
210
0
220
0
230
0
 70
    8
 71
    3
 72
    8
 73
    4
 74
    0
 42
1e-07
 43
1e-07
 40
0
 40
0
 40
0
 40
0
 40
1
 40
1
 40
1
 40
1
 10
31.5171
 20
-5.4621
 30
0
 10
31.6571
 20
-5.51878
 30
0
 10
31.7571
 20
-5.62641
 30
0
 10
31.7571
 20
-5.83406
 30
0
  0
SPLINE
  5
D9
100
AcDbEntity
  8
Sketch020
  6
ByLayer
 62
    1
370
   -1
100
AcDbSpline
210
0
220
0
230
0
 70
    8
 71
    3
 72
    8
 73
    4
 74
    0
 42
1e-07
 43
1e-07
 40
0
 40
0
 40
0
 40
0
 40
1
 40
1
 40
1
 40
1
 10
31.7571
 20
-5.83406
 30
0
 10
31.7571
 20
-6.15743
 30
0
 10
31.5276
 20
-6.29268
 30
0
 10
31.2528
 20
-6.29268
 30
0
  0
SPLINE
  5
DA
100
AcDbEntity
  8
Sketch020
  6
ByLayer
 62
    1
370
   -1
100
AcDbSpline
210
0
220
0
230
0
 70
    8
 71
    1
 72
    4
 73
    2
 74
    0
 42
1e-07
 43
1e-07
 40
0
 40
0
 40
16.47
 40
16.47
 10
31.2528
 20
-6.29268
 30
0
 10
30.4684
 20
-6.29268
 30
0
  0
SPLINE
  5
DB
100
AcDbEntity
  8
Sketch020
  6
ByLayer
 62
    1
370
   -1
100
AcDbSpline
210
0
220
0
230
0
 70
    8
 71
    1
 72
    4
 73
    2
 74
    0
 42
1e-07
 43
1e-07
 40
0
 40
0
 40
10.19
 40
10.19
 10
30.4684
 20
-6.29268
 30
0
 10
30.4684
 20
-5.80739
 30
0
  0
SPLINE
  5
DC
100
AcDbEntity
  8
Sketch020
  6
ByLayer
 62
    1
370
   -1
100
AcDbSpline
210
0
220
0
230
0
 70
    8
 71
    1
 72
    4
 73
    2
 74
    0
 42
1e-07
 43
1e-07
 40
0
 40
0
 40
13.87
 40
13.87
 10
30.4684
 20
-5.80739
 30
0
 10
31.129
 20
-5.80739
 30
0
  0
SPLINE
  5
DD
100
AcDbEntity
  8
Sketch020
  6
ByLayer
 62
    1
370
   -1
100
AcDbSpline
210
0
220
0
230
0
 70
    8
 71
    3
 72
    8
 73
    4
 74
    0
 42
1e-07
 43
1e-07
 40
0
 40
0
 40
0
 40
0
 40
1
 40
1
 40
1
 40
1
 10
31.129
 20
-5.80739
 30
0
 10
31.2528
 20
-5.80739
 30
0
 10
31.3338
 20
-5.75643
 30
0
 10
31.3338
 20
-5.64546
 30
0
  0
SPLINE
  5
DE
100
AcDbEntity
  8
Sketch020
  6
ByLayer
 62
    1
370
   -1
100
AcDbSpline
210
0
220
0
230
0
 70
    8
 71
    3
 72
    8
 73
    4
 74
    0
 42
1e-07
 43
1e-07
 40
0
 40
0
 40
0
 40
0
 40
1
 40
1
 40
1
 40
1
 10
31.3338
 20
-5.64546
 30
0
 10
31.3338
 20
-5.53783
 30
0
 10
31.2366
 20
-5.48639
 30
0
 10
31.1209
 20
-5.48639
 30
0
  0
SPLINE
  5
DF
100
AcDbEntity
  8
Sketch020
  6
ByLayer
 62
    1
370
   -1
100
AcDbSpline
210
0
220
0
230
0
 70
    8
 71
    1
 72
    4
 73
    2
 74
    0
 42
1e-07
 43
1e-07
 40
0
 40
0
 40
13.7
 40
13.7
 10
31.1209
 20
-5.48639
 30
0
 10
30.4684
 20
-5.48639
 30
0
  0
SPLINE
  5
E0
100
AcDbEntity
  8
Sketch020
  6
ByLayer
 62
    1
370
   -1
100
AcDbSpline
210
0
220
0
230
0
 70
    8
 71
    1
 72
    4
 73
    2
 74
    0
 42
1e-07
 43
1e-07
 40
0
 40
0
 40
10.19
 40
10.19
 10
30.4684
 20
-5.48639
 30
0
 10
30.4684
 20
-5.00109
 30
0
  0
SPLINE
  5
E1
100
AcDbEntity
  8
Sketch020
  6
ByLayer
 62
    1
370
   -1
100
AcDbSpline
210
0
220
0
230
0
 70
    8
 71
    1
 72
    4
 73
    2
 74
    0
 42
1e-07
 43
1e-07
 40
0
 40
0
 40
17.83
 40
17.83
 10
30.4684
 20
-5.00109
 30
0
 10
31.3176
 20
-5.00109
 30
0
  0
SPLINE
  5
E2
100
AcDbEntity
  8
Sketch020
  6
ByLayer
 62
    1
370
   -1
100
AcDbSpline
210
0
220
0
230
0
 70
    8
 71
    2
 72
    6
 73
    3
 74
    0
 42
1e-07
 43
1e-07
 40
0
 40
0
 40
0
 40
1
 40
1
 40
1
 10
31.3176
 20
-5.00109
 30
0
 10
31.3878
 20
-4.99907
 30
0
 10
31.3852
 20
-4.93632
 30
0
  0
SPLINE
  5
E3
100
AcDbEntity
  8
Sketch020
  6
ByLayer
 62
    1
370
   -1
100
AcDbSpline
210
0
220
0
230
0
 70
    8
 71
    2
 72
    6
 73
    3
 74
    0
 42
1e-07
 43
1e-07
 40
0
 40
0
 40
0
 40
1
 40
1
 40
1
 10
31.3852
 20
-4.93632
 30
0
 10
31.3851
 20
-4.91346
 30
0
 10
31.3771
 20
-4.8906
 30
0
  0
SPLINE
  5
E4
100
AcDbEntity
  8
Sketch020
  6
ByLayer
 62
    1
370
   -1
100
AcDbSpline
210
0
220
0
230
0
 70
    8
 71
    1
 72
    4
 73
    2
 74
    0
 42
1e-07
 43
1e-07
 40
0
 40
0
 40
7.4178
 40
7.4178
 10
31.3771
 20
-4.8906
 30
0
 10
31.73
 20
-4.87441
 30
0
  0
SPLINE
  5
E5
100
AcDbEntity
  8
Sketch020
  6
ByLayer
 62
    1
370
   -1
100
AcDbSpline
210
0
220
0
230
0
 70
    8
 71
    3
 72
    8
 73
    4
 74
    0
 42
1e-07
 43
1e-07
 40
0
 40
0
 40
0
 40
0
 40
1
 40
1
 40
1
 40
1
 10
30.8699
 20
-3.98478
 30
0
 10
30.797
 20
-3.98478
 30
0
 10
30.7432
 20
-4.02526
 30
0
 10
30.7432
 20
-4.11956
 30
0
  0
SPLINE
  5
E6
100
AcDbEntity
  8
Sketch020
  6
ByLayer
 62
    1
370
   -1
100
AcDbSpline
210
0
220
0
230
0
 70
    8
 71
    3
 72
    8
 73
    4
 74
    0
 42
1e-07
 43
1e-07
 40
0
 40
0
 40
0
 40
0
 40
1
 40
1
 40
1
 40
1
 10
30.7432
 20
-4.11956
 30
0
 10
30.7432
 20
-4.21147
 30
0
 10
30.7837
 20
-4.25433
 30
0
 10
30.8351
 20
-4.25433
 30
0
  0
SPLINE
  5
E7
100
AcDbEntity
  8
Sketch020
  6
ByLayer
 62
    1
370
   -1
100
AcDbSpline
210
0
220
0
230
0
 70
    8
 71
    3
 72
    8
 73
    4
 74
    0
 42
1e-07
 43
1e-07
 40
0
 40
0
 40
0
 40
0
 40
1
 40
1
 40
1
 40
1
 10
30.8351
 20
-4.25433
 30
0
 10
31.0509
 20
-4.25433
 30
0
 10
30.8647
 20
-3.53186
 30
0
 10
31.358
 20
-3.53186
 30
0
  0
SPLINE
  5
E8
100
AcDbEntity
  8
Sketch020
  6
ByLayer
 62
    1
370
   -1
100
AcDbSpline
210
0
220
0
230
0
 70
    8
 71
    3
 72
    8
 73
    4
 74
    0
 42
1e-07
 43
1e-07
 40
0
 40
0
 40
0
 40
0
 40
1
 40
1
 40
1
 40
1
 10
31.358
 20
-3.53186
 30
0
 10
31.5871
 20
-3.53186
 30
0
 10
31.7571
 20
-3.73141
 30
0
 10
31.7571
 20
-4.11432
 30
0
  0
SPLINE
  5
E9
100
AcDbEntity
  8
Sketch020
  6
ByLayer
 62
    1
370
   -1
100
AcDbSpline
210
0
220
0
230
0
 70
    8
 71
    3
 72
    8
 73
    4
 74
    0
 42
1e-07
 43
1e-07
 40
0
 40
0
 40
0
 40
0
 40
1
 40
1
 40
1
 40
1
 10
31.7571
 20
-4.11432
 30
0
 10
31.7571
 20
-4.56437
 30
0
 10
31.5685
 20
-4.74821
 30
0
 10
31.5685
 20
-4.74821
 30
0
  0
SPLINE
  5
EA
100
AcDbEntity
  8
Sketch020
  6
ByLayer
 62
    1
370
   -1
100
AcDbSpline
210
0
220
0
230
0
 70
    8
 71
    1
 72
    4
 73
    2
 74
    0
 42
1e-07
 43
1e-07
 40
0
 40
0
 40
7.17948
 40
7.17948
 10
31.5685
 20
-4.74821
 30
0
 10
31.2909
 20
-4.54866
 30
0
  0
SPLINE
  5
EB
100
AcDbEntity
  8
Sketch020
  6
ByLayer
 62
    1
370
   -1
100
AcDbSpline
210
0
220
0
230
0
 70
    8
 71
    3
 72
    8
 73
    4
 74
    0
 42
1e-07
 43
1e-07
 40
0
 40
0
 40
0
 40
0
 40
1
 40
1
 40
1
 40
1
 10
31.2909
 20
-4.54866
 30
0
 10
31.2909
 20
-4.54866
 30
0
 10
31.4471
 20
-4.33292
 30
0
 10
31.4471
 20
-4.14146
 30
0
  0
SPLINE
  5
EC
100
AcDbEntity
  8
Sketch020
  6
ByLayer
 62
    1
370
   -1
100
AcDbSpline
210
0
220
0
230
0
 70
    8
 71
    2
 72
    6
 73
    3
 74
    0
 42
1e-07
 43
1e-07
 40
0
 40
0
 40
0
 40
1
 40
1
 40
1
 10
31.4471
 20
-4.14146
 30
0
 10
31.4485
 20
-4.028
 30
0
 10
31.4014
 20
-4.02812
 30
0
  0
SPLINE
  5
ED
100
AcDbEntity
  8
Sketch020
  6
ByLayer
 62
    1
370
   -1
100
AcDbSpline
210
0
220
0
230
0
 70
    8
 71
    3
 72
    8
 73
    4
 74
    0
 42
1e-07
 43
1e-07
 40
0
 40
0
 40
0
 40
0
 40
1
 40
1
 40
1
 40
1
 10
31.4014
 20
-4.02812
 30
0
 10
31.2504
 20
-4.02812
 30
0
 10
31.3366
 20
-4.68867
 30
0
 10
30.8785
 20
-4.68867
 30
0
  0
SPLINE
  5
EE
100
AcDbEntity
  8
Sketch020
  6
ByLayer
 62
    1
370
   -1
100
AcDbSpline
210
0
220
0
230
0
 70
    8
 71
    3
 72
    8
 73
    4
 74
    0
 42
1e-07
 43
1e-07
 40
0
 40
0
 40
0
 40
0
 40
1
 40
1
 40
1
 40
1
 10
30.8785
 20
-4.68867
 30
0
 10
30.598
 20
-4.68867
 30
0
 10
30.4527
 20
-4.45674
 30
0
 10
30.4527
 20
-4.10098
 30
0
  0
SPLINE
  5
EF
100
AcDbEntity
  8
Sketch020
  6
ByLayer
 62
    1
370
   -1
100
AcDbSpline
210
0
220
0
230
0
 70
    8
 71
    3
 72
    8
 73
    4
 74
    0
 42
1e-07
 43
1e-07
 40
0
 40
0
 40
0
 40
0
 40
1
 40
1
 40
1
 40
1
 10
30.4527
 20
-4.10098
 30
0
 10
30.4527
 20
-3.7857
 30
0
 10
30.5956
 20
-3.55901
 30
0
 10
30.798
 20
-3.55901
 30
0
  0
SPLINE
  5
F0
100
AcDbEntity
  8
Sketch020
  6
ByLayer
 62
    1
370
   -1
100
AcDbSpline
210
0
220
0
230
0
 70
    8
 71
    3
 72
    8
 73
    4
 74
    0
 42
1e-07
 43
1e-07
 40
0
 40
0
 40
0
 40
0
 40
1
 40
1
 40
1
 40
1
 10
30.798
 20
-3.55901
 30
0
 10
30.8489
 20
-3.55901
 30
0
 10
30.8813
 20
-3.56996
 30
0
 10
30.8813
 20
-3.56996
 30
0
  0
SPLINE
  5
F1
100
AcDbEntity
  8
Sketch020
  6
ByLayer
 62
    1
370
   -1
100
AcDbSpline
210
0
220
0
230
0
 70
    8
 71
    1
 72
    4
 73
    2
 74
    0
 42
1e-07
 43
1e-07
 40
0
 40
0
 40
8.78154
 40
8.78154
 10
30.8813
 20
-3.56996
 30
0
 10
30.9028
 20
-3.98763
 30
0
  0
SPLINE
  5
F2
100
AcDbEntity
  8
Sketch020
  6
ByLayer
 62
    1
370
   -1
100
AcDbSpline
210
0
220
0
230
0
 70
    8
 71
    2
 72
    6
 73
    3
 74
    0
 42
1e-07
 43
1e-07
 40
0
 40
0
 40
0
 40
1
 40
1
 40
1
 10
30.9028
 20
-3.98763
 30
0
 10
30.9003
 20
-3.98621
 30
0
 10
30.8699
 20
-3.98478
 30
0
  0
SPLINE
  5
F3
100
AcDbEntity
  8
Sketch020
  6
ByLayer
 62
    1
370
   -1
100
AcDbSpline
210
0
220
0
230
0
 70
    8
 71
    1
 72
    4
 73
    2
 74
    0
 42
1e-07
 43
1e-07
 40
0
 40
0
 40
6.66478
 40
6.66478
 10
31.3123
 20
-2.35267
 30
0
 10
31.5633
 20
-2.15836
 30
0
  0
SPLINE
  5
F4
100
AcDbEntity
  8
Sketch020
  6
ByLayer
 62
    1
370
   -1
100
AcDbSpline
210
0
220
0
230
0
 70
    8
 71
    3
 72
    8
 73
    4
 74
    0
 42
1e-07
 43
1e-07
 40
0
 40
0
 40
0
 40
0
 40
1
 40
1
 40
1
 40
1
 10
31.5633
 20
-2.15836
 30
0
 10
31.6362
 20
-2.22027
 30
0
 10
31.7576
 20
-2.40124
 30
0
 10
31.7576
 20
-2.69509
 30
0
  0
SPLINE
  5
F5
100
AcDbEntity
  8
Sketch020
  6
ByLayer
 62
    1
370
   -1
100
AcDbSpline
210
0
220
0
230
0
 70
    8
 71
    3
 72
    8
 73
    4
 74
    0
 42
1e-07
 43
1e-07
 40
0
 40
0
 40
0
 40
0
 40
1
 40
1
 40
1
 40
1
 10
31.7576
 20
-2.69509
 30
0
 10
31.7576
 20
-3.14515
 30
0
 10
31.4823
 20
-3.40137
 30
0
 10
31.1052
 20
-3.40137
 30
0
  0
SPLINE
  5
F6
100
AcDbEntity
  8
Sketch020
  6
ByLayer
 62
    1
370
   -1
100
AcDbSpline
210
0
220
0
230
0
 70
    8
 71
    3
 72
    8
 73
    4
 74
    0
 42
1e-07
 43
1e-07
 40
0
 40
0
 40
0
 40
0
 40
1
 40
1
 40
1
 40
1
 10
31.1052
 20
-3.40137
 30
0
 10
30.7194
 20
-3.40137
 30
0
 10
30.4527
 20
-3.12895
 30
0
 10
30.4527
 20
-2.74319
 30
0
  0
SPLINE
  5
F7
100
AcDbEntity
  8
Sketch020
  6
ByLayer
 62
    1
370
   -1
100
AcDbSpline
210
0
220
0
230
0
 70
    8
 71
    3
 72
    8
 73
    4
 74
    0
 42
1e-07
 43
1e-07
 40
0
 40
0
 40
0
 40
0
 40
1
 40
1
 40
1
 40
1
 10
30.4527
 20
-2.74319
 30
0
 10
30.4527
 20
-2.38172
 30
0
 10
30.6308
 20
-2.14216
 30
0
 10
30.8975
 20
-2.14216
 30
0
  0
SPLINE
  5
F8
100
AcDbEntity
  8
Sketch020
  6
ByLayer
 62
    1
370
   -1
100
AcDbSpline
210
0
220
0
230
0
 70
    8
 71
    3
 72
    8
 73
    4
 74
    0
 42
1e-07
 43
1e-07
 40
0
 40
0
 40
0
 40
0
 40
1
 40
1
 40
1
 40
1
 10
30.8975
 20
-2.14216
 30
0
 10
31.1375
 20
-2.14216
 30
0
 10
31.2804
 20
-2.33076
 30
0
 10
31.2804
 20
-2.65175
 30
0
  0
SPLINE
  5
F9
100
AcDbEntity
  8
Sketch020
  6
ByLayer
 62
    1
370
   -1
100
AcDbSpline
210
0
220
0
230
0
 70
    8
 71
    1
 72
    4
 73
    2
 74
    0
 42
1e-07
 43
1e-07
 40
0
 40
0
 40
4.93
 40
4.93
 10
31.2804
 20
-2.65175
 30
0
 10
31.2804
 20
-2.88654
 30
0
  0
SPLINE
  5
FA
100
AcDbEntity
  8
Sketch020
  6
ByLayer
 62
    1
370
   -1
100
AcDbSpline
210
0
220
0
230
0
 70
    8
 71
    3
 72
    8
 73
    4
 74
    0
 42
1e-07
 43
1e-07
 40
0
 40
0
 40
0
 40
0
 40
1
 40
1
 40
1
 40
1
 10
31.2804
 20
-2.88654
 30
0
 10
31.3557
 20
-2.84082
 30
0
 10
31.4042
 20
-2.75986
 30
0
 10
31.4042
 20
-2.63318
 30
0
  0
SPLINE
  5
FB
100
AcDbEntity
  8
Sketch020
  6
ByLayer
 62
    1
370
   -1
100
AcDbSpline
210
0
220
0
230
0
 70
    8
 71
    3
 72
    8
 73
    4
 74
    0
 42
1e-07
 43
1e-07
 40
0
 40
0
 40
0
 40
0
 40
1
 40
1
 40
1
 40
1
 10
31.4042
 20
-2.63318
 30
0
 10
31.4038
 20
-2.47697
 30
0
 10
31.358
 20
-2.40696
 30
0
 10
31.3123
 20
-2.35267
 30
0
  0
SPLINE
  5
FC
100
AcDbEntity
  8
Sketch020
  6
ByLayer
 62
    1
370
   -1
100
AcDbSpline
210
0
220
0
230
0
 70
    8
 71
    1
 72
    4
 73
    2
 74
    0
 42
1e-07
 43
1e-07
 40
0
 40
0
 40
3.96
 40
3.96
 10
31.0694
 20
-2.93798
 30
0
 10
31.0694
 20
-2.74938
 30
0
  0
SPLINE
  5
FD
100
AcDbEntity
  8
Sketch020
  6
ByLayer
 62
    1
370
   -1
100
AcDbSpline
210
0
220
0
230
0
 70
    8
 71
    3
 72
    8
 73
    4
 74
    0
 42
1e-07
 43
1e-07
 40
0
 40
0
 40
0
 40
0
 40
1
 40
1
 40
1
 40
1
 10
31.0694
 20
-2.74938
 30
0
 10
31.0694
 20
-2.63889
 30
0
 10
31.0156
 20
-2.56603
 30
0
 10
30.9318
 20
-2.56603
 30
0
  0
SPLINE
  5
FE
100
AcDbEntity
  8
Sketch020
  6
ByLayer
 62
    1
370
   -1
100
AcDbSpline
210
0
220
0
230
0
 70
    8
 71
    3
 72
    8
 73
    4
 74
    0
 42
1e-07
 43
1e-07
 40
0
 40
0
 40
0
 40
0
 40
1
 40
1
 40
1
 40
1
 10
30.9318
 20
-2.56603
 30
0
 10
30.8561
 20
-2.56603
 30
0
 10
30.8051
 20
-2.6308
 30
0
 10
30.8051
 20
-2.72509
 30
0
  0
SPLINE
  5
FF
100
AcDbEntity
  8
Sketch020
  6
ByLayer
 62
    1
370
   -1
100
AcDbSpline
210
0
220
0
230
0
 70
    8
 71
    3
 72
    8
 73
    4
 74
    0
 42
1e-07
 43
1e-07
 40
0
 40
0
 40
0
 40
0
 40
1
 40
1
 40
1
 40
1
 10
30.8051
 20
-2.72509
 30
0
 10
30.8051
 20
-2.84082
 30
0
 10
30.8727
 20
-2.93798
 30
0
 10
31.0694
 20
-2.93798
 30
0
  0
SPLINE
  5
100
100
AcDbEntity
  8
Sketch020
  6
ByLayer
 62
    1
370
   -1
100
AcDbSpline
210
0
220
0
230
0
 70
    8
 71
    3
 72
    8
 73
    4
 74
    0
 42
1e-07
 43
1e-07
 40
0
 40
0
 40
0
 40
0
 40
1
 40
1
 40
1
 40
1
 10
31.73
 20
-0.54006
 30
0
 10
31.73
 20
-0.54006
 30
0
 10
31.7571
 20
-0.6315
 30
0
 10
31.7571
 20
-0.76104
 30
0
  0
SPLINE
  5
101
100
AcDbEntity
  8
Sketch020
  6
ByLayer
 62
    1
370
   -1
100
AcDbSpline
210
0
220
0
230
0
 70
    8
 71
    3
 72
    8
 73
    4
 74
    0
 42
1e-07
 43
1e-07
 40
0
 40
0
 40
0
 40
0
 40
1
 40
1
 40
1
 40
1
 10
31.7571
 20
-0.76104
 30
0
 10
31.7571
 20
-0.990116
 30
0
 10
31.6733
 20
-1.09013
 30
0
 10
31.5171
 20
-1.11966
 30
0
  0
SPLINE
  5
102
100
AcDbEntity
  8
Sketch020
  6
ByLayer
 62
    1
370
   -1
100
AcDbSpline
210
0
220
0
230
0
 70
    8
 71
    1
 72
    4
 73
    2
 74
    0
 42
1e-07
 43
1e-07
 40
0
 40
0
 40
0.17
 40
0.17
 10
31.5171
 20
-1.11966
 30
0
 10
31.5171
 20
-1.12775
 30
0
  0
SPLINE
  5
103
100
AcDbEntity
  8
Sketch020
  6
ByLayer
 62
    1
370
   -1
100
AcDbSpline
210
0
220
0
230
0
 70
    8
 71
    3
 72
    8
 73
    4
 74
    0
 42
1e-07
 43
1e-07
 40
0
 40
0
 40
0
 40
0
 40
1
 40
1
 40
1
 40
1
 10
31.5171
 20
-1.12775
 30
0
 10
31.6571
 20
-1.18443
 30
0
 10
31.7571
 20
-1.29206
 30
0
 10
31.7571
 20
-1.4997
 30
0
  0
SPLINE
  5
104
100
AcDbEntity
  8
Sketch020
  6
ByLayer
 62
    1
370
   -1
100
AcDbSpline
210
0
220
0
230
0
 70
    8
 71
    3
 72
    8
 73
    4
 74
    0
 42
1e-07
 43
1e-07
 40
0
 40
0
 40
0
 40
0
 40
1
 40
1
 40
1
 40
1
 10
31.7571
 20
-1.4997
 30
0
 10
31.7571
 20
-1.82308
 30
0
 10
31.5276
 20
-1.95786
 30
0
 10
31.2528
 20
-1.95786
 30
0
  0
SPLINE
  5
105
100
AcDbEntity
  8
Sketch020
  6
ByLayer
 62
    1
370
   -1
100
AcDbSpline
210
0
220
0
230
0
 70
    8
 71
    1
 72
    4
 73
    2
 74
    0
 42
1e-07
 43
1e-07
 40
0
 40
0
 40
16.47
 40
16.47
 10
31.2528
 20
-1.95786
 30
0
 10
30.4684
 20
-1.95786
 30
0
  0
SPLINE
  5
106
100
AcDbEntity
  8
Sketch020
  6
ByLayer
 62
    1
370
   -1
100
AcDbSpline
210
0
220
0
230
0
 70
    8
 71
    1
 72
    4
 73
    2
 74
    0
 42
1e-07
 43
1e-07
 40
0
 40
0
 40
10.19
 40
10.19
 10
30.4684
 20
-1.95786
 30
0
 10
30.4684
 20
-1.47256
 30
0
  0
SPLINE
  5
107
100
AcDbEntity
  8
Sketch020
  6
ByLayer
 62
    1
370
   -1
100
AcDbSpline
210
0
220
0
230
0
 70
    8
 71
    1
 72
    4
 73
    2
 74
    0
 42
1e-07
 43
1e-07
 40
0
 40
0
 40
13.87
 40
13.87
 10
30.4684
 20
-1.47256
 30
0
 10
31.129
 20
-1.47256
 30
0
  0
SPLINE
  5
108
100
AcDbEntity
  8
Sketch020
  6
ByLayer
 62
    1
370
   -1
100
AcDbSpline
210
0
220
0
230
0
 70
    8
 71
    3
 72
    8
 73
    4
 74
    0
 42
1e-07
 43
1e-07
 40
0
 40
0
 40
0
 40
0
 40
1
 40
1
 40
1
 40
1
 10
31.129
 20
-1.47256
 30
0
 10
31.2528
 20
-1.47256
 30
0
 10
31.3338
 20
-1.4216
 30
0
 10
31.3338
 20
-1.31063
 30
0
  0
SPLINE
  5
109
100
AcDbEntity
  8
Sketch020
  6
ByLayer
 62
    1
370
   -1
100
AcDbSpline
210
0
220
0
230
0
 70
    8
 71
    3
 72
    8
 73
    4
 74
    0
 42
1e-07
 43
1e-07
 40
0
 40
0
 40
0
 40
0
 40
1
 40
1
 40
1
 40
1
 10
31.3338
 20
-1.31063
 30
0
 10
31.3338
 20
-1.203
 30
0
 10
31.2366
 20
-1.15156
 30
0
 10
31.1209
 20
-1.15156
 30
0
  0
SPLINE
  5
10A
100
AcDbEntity
  8
Sketch020
  6
ByLayer
 62
    1
370
   -1
100
AcDbSpline
210
0
220
0
230
0
 70
    8
 71
    1
 72
    4
 73
    2
 74
    0
 42
1e-07
 43
1e-07
 40
0
 40
0
 40
13.7
 40
13.7
 10
31.1209
 20
-1.15156
 30
0
 10
30.4684
 20
-1.15156
 30
0
  0
SPLINE
  5
10B
100
AcDbEntity
  8
Sketch020
  6
ByLayer
 62
    1
370
   -1
100
AcDbSpline
210
0
220
0
230
0
 70
    8
 71
    1
 72
    4
 73
    2
 74
    0
 42
1e-07
 43
1e-07
 40
0
 40
0
 40
10.19
 40
10.19
 10
30.4684
 20
-1.15156
 30
0
 10
30.4684
 20
-0.666266
 30
0
  0
SPLINE
  5
10C
100
AcDbEntity
  8
Sketch020
  6
ByLayer
 62
    1
370
   -1
100
AcDbSpline
210
0
220
0
230
0
 70
    8
 71
    1
 72
    4
 73
    2
 74
    0
 42
1e-07
 43
1e-07
 40
0
 40
0
 40
17.83
 40
17.83
 10
30.4684
 20
-0.666266
 30
0
 10
31.3176
 20
-0.666266
 30
0
  0
SPLINE
  5
10D
100
AcDbEntity
  8
Sketch020
  6
ByLayer
 62
    1
370
   -1
100
AcDbSpline
210
0
220
0
230
0
 70
    8
 71
    2
 72
    6
 73
    3
 74
    0
 42
1e-07
 43
1e-07
 40
0
 40
0
 40
0
 40
1
 40
1
 40
1
 10
31.3176
 20
-0.666266
 30
0
 10
31.3878
 20
-0.664242
 30
0
 10
31.3852
 20
-0.601496
 30
0
  0
SPLINE
  5
10E
100
AcDbEntity
  8
Sketch020
  6
ByLayer
 62
    1
370
   -1
100
AcDbSpline
210
0
220
0
230
0
 70
    8
 71
    2
 72
    6
 73
    3
 74
    0
 42
1e-07
 43
1e-07
 40
0
 40
0
 40
0
 40
1
 40
1
 40
1
 10
31.3852
 20
-0.601496
 30
0
 10
31.3851
 20
-0.578636
 30
0
 10
31.3771
 20
-0.555776
 30
0
  0
SPLINE
  5
10F
100
AcDbEntity
  8
Sketch020
  6
ByLayer
 62
    1
370
   -1
100
AcDbSpline
210
0
220
0
230
0
 70
    8
 71
    1
 72
    4
 73
    2
 74
    0
 42
1e-07
 43
1e-07
 40
0
 40
0
 40
7.41734
 40
7.41734
 10
31.3771
 20
-0.555776
 30
0
 10
31.73
 20
-0.54006
 30
0
  0
SPLINE
  5
110
100
AcDbEntity
  8
Sketch020
  6
ByLayer
 62
    1
370
   -1
100
AcDbSpline
210
0
220
0
230
0
 70
    8
 71
    3
 72
    8
 73
    4
 74
    0
 42
1e-07
 43
1e-07
 40
0
 40
0
 40
0
 40
0
 40
1
 40
1
 40
1
 40
1
 10
31.7329
 20
1.87262
 30
0
 10
31.7329
 20
1.87262
 30
0
 10
31.7595
 20
1.77261
 30
0
 10
31.7595
 20
1.61116
 30
0
  0
SPLINE
  5
111
100
AcDbEntity
  8
Sketch020
  6
ByLayer
 62
    1
370
   -1
100
AcDbSpline
210
0
220
0
230
0
 70
    8
 71
    3
 72
    8
 73
    4
 74
    0
 42
1e-07
 43
1e-07
 40
0
 40
0
 40
0
 40
0
 40
1
 40
1
 40
1
 40
1
 10
31.7595
 20
1.61116
 30
0
 10
31.7595
 20
1.3578
 30
0
 10
31.6328
 20
1.26064
 30
0
 10
31.4414
 20
1.26064
 30
0
  0
SPLINE
  5
112
100
AcDbEntity
  8
Sketch020
  6
ByLayer
 62
    1
370
   -1
100
AcDbSpline
210
0
220
0
230
0
 70
    8
 71
    1
 72
    4
 73
    2
 74
    0
 42
1e-07
 43
1e-07
 40
0
 40
0
 40
7.58
 40
7.58
 10
31.4414
 20
1.26064
 30
0
 10
31.0804
 20
1.26064
 30
0
  0
SPLINE
  5
113
100
AcDbEntity
  8
Sketch020
  6
ByLayer
 62
    1
370
   -1
100
AcDbSpline
210
0
220
0
230
0
 70
    8
 71
    3
 72
    8
 73
    4
 74
    0
 42
1e-07
 43
1e-07
 40
0
 40
0
 40
0
 40
0
 40
1
 40
1
 40
1
 40
1
 10
31.0804
 20
1.26064
 30
0
 10
30.9537
 20
1.26064
 30
0
 10
30.8756
 20
1.21492
 30
0
 10
30.8756
 20
1.10443
 30
0
  0
SPLINE
  5
114
100
AcDbEntity
  8
Sketch020
  6
ByLayer
 62
    1
370
   -1
100
AcDbSpline
210
0
220
0
230
0
 70
    8
 71
    3
 72
    8
 73
    4
 74
    0
 42
1e-07
 43
1e-07
 40
0
 40
0
 40
0
 40
0
 40
1
 40
1
 40
1
 40
1
 10
30.8756
 20
1.10443
 30
0
 10
30.8756
 20
0.974891
 30
0
 10
30.978
 20
0.942506
 30
0
 10
31.0885
 20
0.942506
 30
0
  0
SPLINE
  5
115
100
AcDbEntity
  8
Sketch020
  6
ByLayer
 62
    1
370
   -1
100
AcDbSpline
210
0
220
0
230
0
 70
    8
 71
    1
 72
    4
 73
    2
 74
    0
 42
1e-07
 43
1e-07
 40
0
 40
0
 40
13.7
 40
13.7
 10
31.0885
 20
0.942506
 30
0
 10
31.741
 20
0.942506
 30
0
  0
SPLINE
  5
116
100
AcDbEntity
  8
Sketch020
  6
ByLayer
 62
    1
370
   -1
100
AcDbSpline
210
0
220
0
230
0
 70
    8
 71
    1
 72
    4
 73
    2
 74
    0
 42
1e-07
 43
1e-07
 40
0
 40
0
 40
10.19
 40
10.19
 10
31.741
 20
0.942506
 30
0
 10
31.741
 20
0.457208
 30
0
  0
SPLINE
  5
117
100
AcDbEntity
  8
Sketch020
  6
ByLayer
 62
    1
370
   -1
100
AcDbSpline
210
0
220
0
230
0
 70
    8
 71
    1
 72
    4
 73
    2
 74
    0
 42
1e-07
 43
1e-07
 40
0
 40
0
 40
13.87
 40
13.87
 10
31.741
 20
0.457208
 30
0
 10
31.0804
 20
0.457208
 30
0
  0
SPLINE
  5
118
100
AcDbEntity
  8
Sketch020
  6
ByLayer
 62
    1
370
   -1
100
AcDbSpline
210
0
220
0
230
0
 70
    8
 71
    3
 72
    8
 73
    4
 74
    0
 42
1e-07
 43
1e-07
 40
0
 40
0
 40
0
 40
0
 40
1
 40
1
 40
1
 40
1
 10
31.0804
 20
0.457208
 30
0
 10
30.9537
 20
0.457208
 30
0
 10
30.8756
 20
0.411488
 30
0
 10
30.8756
 20
0.300998
 30
0
  0
SPLINE
  5
119
100
AcDbEntity
  8
Sketch020
  6
ByLayer
 62
    1
370
   -1
100
AcDbSpline
210
0
220
0
230
0
 70
    8
 71
    3
 72
    8
 73
    4
 74
    0
 42
1e-07
 43
1e-07
 40
0
 40
0
 40
0
 40
0
 40
1
 40
1
 40
1
 40
1
 10
30.8756
 20
0.300998
 30
0
 10
30.8756
 20
0.171458
 30
0
 10
30.978
 20
0.139073
 30
0
 10
31.0885
 20
0.139073
 30
0
  0
SPLINE
  5
11A
100
AcDbEntity
  8
Sketch020
  6
ByLayer
 62
    1
370
   -1
100
AcDbSpline
210
0
220
0
230
0
 70
    8
 71
    1
 72
    4
 73
    2
 74
    0
 42
1e-07
 43
1e-07
 40
0
 40
0
 40
13.7
 40
13.7
 10
31.0885
 20
0.139073
 30
0
 10
31.741
 20
0.139073
 30
0
  0
SPLINE
  5
11B
100
AcDbEntity
  8
Sketch020
  6
ByLayer
 62
    1
370
   -1
100
AcDbSpline
210
0
220
0
230
0
 70
    8
 71
    1
 72
    4
 73
    2
 74
    0
 42
1e-07
 43
1e-07
 40
0
 40
0
 40
10.19
 40
10.19
 10
31.741
 20
0.139073
 30
0
 10
31.741
 20
-0.346226
 30
0
  0
SPLINE
  5
11C
100
AcDbEntity
  8
Sketch020
  6
ByLayer
 62
    1
370
   -1
100
AcDbSpline
210
0
220
0
230
0
 70
    8
 71
    1
 72
    4
 73
    2
 74
    0
 42
1e-07
 43
1e-07
 40
0
 40
0
 40
26.72
 40
26.72
 10
31.741
 20
-0.346226
 30
0
 10
30.4684
 20
-0.346226
 30
0
  0
SPLINE
  5
11D
100
AcDbEntity
  8
Sketch020
  6
ByLayer
 62
    1
370
   -1
100
AcDbSpline
210
0
220
0
230
0
 70
    8
 71
    1
 72
    4
 73
    2
 74
    0
 42
1e-07
 43
1e-07
 40
0
 40
0
 40
8.385020000000001
 40
8.385020000000001
 10
30.4684
 20
-0.346226
 30
0
 10
30.4546
 20
0.0528714
 30
0
  0
SPLINE
  5
11E
100
AcDbEntity
  8
Sketch020
  6
ByLayer
 62
    1
370
   -1
100
AcDbSpline
210
0
220
0
230
0
 70
    8
 71
    3
 72
    8
 73
    4
 74
    0
 42
1e-07
 43
1e-07
 40
0
 40
0
 40
0
 40
0
 40
1
 40
1
 40
1
 40
1
 10
30.4546
 20
0.0528714
 30
0
 10
30.5141
 20
0.0823989
 30
0
 10
30.6432
 20
0.109545
 30
0
 10
30.6946
 20
0.109545
 30
0
  0
SPLINE
  5
11F
100
AcDbEntity
  8
Sketch020
  6
ByLayer
 62
    1
370
   -1
100
AcDbSpline
210
0
220
0
230
0
 70
    8
 71
    1
 72
    4
 73
    2
 74
    0
 42
1e-07
 43
1e-07
 40
0
 40
0
 40
0.17
 40
0.17
 10
30.6946
 20
0.109545
 30
0
 10
30.6946
 20
0.117641
 30
0
  0
SPLINE
  5
120
100
AcDbEntity
  8
Sketch020
  6
ByLayer
 62
    1
370
   -1
100
AcDbSpline
210
0
220
0
230
0
 70
    8
 71
    3
 72
    8
 73
    4
 74
    0
 42
1e-07
 43
1e-07
 40
0
 40
0
 40
0
 40
0
 40
1
 40
1
 40
1
 40
1
 10
30.6946
 20
0.117641
 30
0
 10
30.5546
 20
0.174315
 30
0
 10
30.4522
 20
0.281948
 30
0
 10
30.4522
 20
0.489593
 30
0
  0
SPLINE
  5
121
100
AcDbEntity
  8
Sketch020
  6
ByLayer
 62
    1
370
   -1
100
AcDbSpline
210
0
220
0
230
0
 70
    8
 71
    3
 72
    8
 73
    4
 74
    0
 42
1e-07
 43
1e-07
 40
0
 40
0
 40
0
 40
0
 40
1
 40
1
 40
1
 40
1
 10
30.4522
 20
0.489593
 30
0
 10
30.4522
 20
0.71343
 30
0
 10
30.5656
 20
0.845351
 30
0
 10
30.7299
 20
0.904883
 30
0
  0
SPLINE
  5
122
100
AcDbEntity
  8
Sketch020
  6
ByLayer
 62
    1
370
   -1
100
AcDbSpline
210
0
220
0
230
0
 70
    8
 71
    3
 72
    8
 73
    4
 74
    0
 42
1e-07
 43
1e-07
 40
0
 40
0
 40
0
 40
0
 40
1
 40
1
 40
1
 40
1
 10
30.7299
 20
0.904883
 30
0
 10
30.5679
 20
0.9558410000000001
 30
0
 10
30.4522
 20
1.06681
 30
0
 10
30.4522
 20
1.29303
 30
0
  0
SPLINE
  5
123
100
AcDbEntity
  8
Sketch020
  6
ByLayer
 62
    1
370
   -1
100
AcDbSpline
210
0
220
0
230
0
 70
    8
 71
    3
 72
    8
 73
    4
 74
    0
 42
1e-07
 43
1e-07
 40
0
 40
0
 40
0
 40
0
 40
1
 40
1
 40
1
 40
1
 10
30.4522
 20
1.29303
 30
0
 10
30.4522
 20
1.6083
 30
0
 10
30.6789
 20
1.74594
 30
0
 10
30.9566
 20
1.74594
 30
0
  0
SPLINE
  5
124
100
AcDbEntity
  8
Sketch020
  6
ByLayer
 62
    1
370
   -1
100
AcDbSpline
210
0
220
0
230
0
 70
    8
 71
    1
 72
    4
 73
    2
 74
    0
 42
1e-07
 43
1e-07
 40
0
 40
0
 40
7.64
 40
7.64
 10
30.9566
 20
1.74594
 30
0
 10
31.3204
 20
1.74594
 30
0
  0
SPLINE
  5
125
100
AcDbEntity
  8
Sketch020
  6
ByLayer
 62
    1
370
   -1
100
AcDbSpline
210
0
220
0
230
0
 70
    8
 71
    2
 72
    6
 73
    3
 74
    0
 42
1e-07
 43
1e-07
 40
0
 40
0
 40
0
 40
1
 40
1
 40
1
 10
31.3204
 20
1.74594
 30
0
 10
31.3853
 20
1.74582
 30
0
 10
31.3852
 20
1.81071
 30
0
  0
SPLINE
  5
126
100
AcDbEntity
  8
Sketch020
  6
ByLayer
 62
    1
370
   -1
100
AcDbSpline
210
0
220
0
230
0
 70
    8
 71
    2
 72
    6
 73
    3
 74
    0
 42
1e-07
 43
1e-07
 40
0
 40
0
 40
0
 40
1
 40
1
 40
1
 10
31.3852
 20
1.81071
 30
0
 10
31.3833
 20
1.84179
 30
0
 10
31.3771
 20
1.85643
 30
0
  0
SPLINE
  5
127
100
AcDbEntity
  8
Sketch020
  6
ByLayer
 62
    1
370
   -1
100
AcDbSpline
210
0
220
0
230
0
 70
    8
 71
    1
 72
    4
 73
    2
 74
    0
 42
1e-07
 43
1e-07
 40
0
 40
0
 40
7.47773
 40
7.47773
 10
31.3771
 20
1.85643
 30
0
 10
31.7329
 20
1.87262
 30
0
  0
SPLINE
  5
128
100
AcDbEntity
  8
Sketch020
  6
ByLayer
 62
    1
370
   -1
100
AcDbSpline
210
0
220
0
230
0
 70
    8
 71
    3
 72
    8
 73
    4
 74
    0
 42
1e-07
 43
1e-07
 40
0
 40
0
 40
0
 40
0
 40
1
 40
1
 40
1
 40
1
 10
31.1018
 20
3.90669
 30
0
 10
31.4819
 20
3.90669
 30
0
 10
31.7571
 20
3.63713
 30
0
 10
31.7571
 20
3.2247
 30
0
  0
SPLINE
  5
129
100
AcDbEntity
  8
Sketch020
  6
ByLayer
 62
    1
370
   -1
100
AcDbSpline
210
0
220
0
230
0
 70
    8
 71
    3
 72
    8
 73
    4
 74
    0
 42
1e-07
 43
1e-07
 40
0
 40
0
 40
0
 40
0
 40
1
 40
1
 40
1
 40
1
 10
31.7571
 20
3.2247
 30
0
 10
31.7571
 20
2.81226
 30
0
 10
31.4819
 20
2.54271
 30
0
 10
31.1018
 20
2.54271
 30
0
  0
SPLINE
  5
12A
100
AcDbEntity
  8
Sketch020
  6
ByLayer
 62
    1
370
   -1
100
AcDbSpline
210
0
220
0
230
0
 70
    8
 71
    3
 72
    8
 73
    4
 74
    0
 42
1e-07
 43
1e-07
 40
0
 40
0
 40
0
 40
0
 40
1
 40
1
 40
1
 40
1
 10
31.1018
 20
2.54271
 30
0
 10
30.7218
 20
2.54271
 30
0
 10
30.4522
 20
2.81226
 30
0
 10
30.4522
 20
3.2247
 30
0
  0
SPLINE
  5
12B
100
AcDbEntity
  8
Sketch020
  6
ByLayer
 62
    1
370
   -1
100
AcDbSpline
210
0
220
0
230
0
 70
    8
 71
    3
 72
    8
 73
    4
 74
    0
 42
1e-07
 43
1e-07
 40
0
 40
0
 40
0
 40
0
 40
1
 40
1
 40
1
 40
1
 10
30.4522
 20
3.2247
 30
0
 10
30.4522
 20
3.63665
 30
0
 10
30.7218
 20
3.90669
 30
0
 10
31.1018
 20
3.90669
 30
0
  0
SPLINE
  5
12C
100
AcDbEntity
  8
Sketch020
  6
ByLayer
 62
    1
370
   -1
100
AcDbSpline
210
0
220
0
230
0
 70
    8
 71
    3
 72
    8
 73
    4
 74
    0
 42
1e-07
 43
1e-07
 40
0
 40
0
 40
0
 40
0
 40
1
 40
1
 40
1
 40
1
 10
31.1018
 20
3.41567
 30
0
 10
30.9456
 20
3.41567
 30
0
 10
30.8456
 20
3.34805
 30
0
 10
30.8456
 20
3.22422
 30
0
  0
SPLINE
  5
12D
100
AcDbEntity
  8
Sketch020
  6
ByLayer
 62
    1
370
   -1
100
AcDbSpline
210
0
220
0
230
0
 70
    8
 71
    3
 72
    8
 73
    4
 74
    0
 42
1e-07
 43
1e-07
 40
0
 40
0
 40
0
 40
0
 40
1
 40
1
 40
1
 40
1
 10
30.8456
 20
3.22422
 30
0
 10
30.8456
 20
3.09992
 30
0
 10
30.9451
 20
3.03277
 30
0
 10
31.1018
 20
3.03277
 30
0
  0
SPLINE
  5
12E
100
AcDbEntity
  8
Sketch020
  6
ByLayer
 62
    1
370
   -1
100
AcDbSpline
210
0
220
0
230
0
 70
    8
 71
    3
 72
    8
 73
    4
 74
    0
 42
1e-07
 43
1e-07
 40
0
 40
0
 40
0
 40
0
 40
1
 40
1
 40
1
 40
1
 10
31.1018
 20
3.03277
 30
0
 10
31.2585
 20
3.03277
 30
0
 10
31.3633
 20
3.1004
 30
0
 10
31.3633
 20
3.22422
 30
0
  0
SPLINE
  5
12F
100
AcDbEntity
  8
Sketch020
  6
ByLayer
 62
    1
370
   -1
100
AcDbSpline
210
0
220
0
230
0
 70
    8
 71
    3
 72
    8
 73
    4
 74
    0
 42
1e-07
 43
1e-07
 40
0
 40
0
 40
0
 40
0
 40
1
 40
1
 40
1
 40
1
 10
31.3633
 20
3.22422
 30
0
 10
31.3633
 20
3.34852
 30
0
 10
31.2585
 20
3.41567
 30
0
 10
31.1018
 20
3.41567
 30
0
  0
SPLINE
  5
130
100
AcDbEntity
  8
Sketch020
  6
ByLayer
 62
    1
370
   -1
100
AcDbSpline
210
0
220
0
230
0
 70
    8
 71
    1
 72
    4
 73
    2
 74
    0
 42
1e-07
 43
1e-07
 40
0
 40
0
 40
7.7
 40
7.7
 10
30.4684
 20
4.67821
 30
0
 10
30.4684
 20
5.04492
 30
0
  0
SPLINE
  5
131
100
AcDbEntity
  8
Sketch020
  6
ByLayer
 62
    1
370
   -1
100
AcDbSpline
210
0
220
0
230
0
 70
    8
 71
    1
 72
    4
 73
    2
 74
    0
 42
1e-07
 43
1e-07
 40
0
 40
0
 40
7.53
 40
7.53
 10
30.4684
 20
5.04492
 30
0
 10
30.827
 20
5.04492
 30
0
  0
SPLINE
  5
132
100
AcDbEntity
  8
Sketch020
  6
ByLayer
 62
    1
370
   -1
100
AcDbSpline
210
0
220
0
230
0
 70
    8
 71
    1
 72
    4
 73
    2
 74
    0
 42
1e-07
 43
1e-07
 40
0
 40
0
 40
7.7
 40
7.7
 10
30.827
 20
5.04492
 30
0
 10
30.827
 20
4.67821
 30
0
  0
SPLINE
  5
133
100
AcDbEntity
  8
Sketch020
  6
ByLayer
 62
    1
370
   -1
100
AcDbSpline
210
0
220
0
230
0
 70
    8
 71
    1
 72
    4
 73
    2
 74
    0
 42
1e-07
 43
1e-07
 40
0
 40
0
 40
19.19
 40
19.19
 10
30.827
 20
4.67821
 30
0
 10
31.741
 20
4.67821
 30
0
  0
SPLINE
  5
134
100
AcDbEntity
  8
Sketch020
  6
ByLayer
 62
    1
370
   -1
100
AcDbSpline
210
0
220
0
230
0
 70
    8
 71
    1
 72
    4
 73
    2
 74
    0
 42
1e-07
 43
1e-07
 40
0
 40
0
 40
10.19
 40
10.19
 10
31.741
 20
4.67821
 30
0
 10
31.741
 20
4.19291
 30
0
  0
SPLINE
  5
135
100
AcDbEntity
  8
Sketch020
  6
ByLayer
 62
    1
370
   -1
100
AcDbSpline
210
0
220
0
230
0
 70
    8
 71
    1
 72
    4
 73
    2
 74
    0
 42
1e-07
 43
1e-07
 40
0
 40
0
 40
19.19
 40
19.19
 10
31.741
 20
4.19291
 30
0
 10
30.827
 20
4.19291
 30
0
  0
SPLINE
  5
136
100
AcDbEntity
  8
Sketch020
  6
ByLayer
 62
    1
370
   -1
100
AcDbSpline
210
0
220
0
230
0
 70
    8
 71
    1
 72
    4
 73
    2
 74
    0
 42
1e-07
 43
1e-07
 40
0
 40
0
 40
3.96
 40
3.96
 10
30.827
 20
4.19291
 30
0
 10
30.827
 20
4.00432
 30
0
  0
SPLINE
  5
137
100
AcDbEntity
  8
Sketch020
  6
ByLayer
 62
    1
370
   -1
100
AcDbSpline
210
0
220
0
230
0
 70
    8
 71
    1
 72
    4
 73
    2
 74
    0
 42
1e-07
 43
1e-07
 40
0
 40
0
 40
7.53
 40
7.53
 10
30.827
 20
4.00432
 30
0
 10
30.4684
 20
4.00432
 30
0
  0
SPLINE
  5
138
100
AcDbEntity
  8
Sketch020
  6
ByLayer
 62
    1
370
   -1
100
AcDbSpline
210
0
220
0
230
0
 70
    8
 71
    1
 72
    4
 73
    2
 74
    0
 42
1e-07
 43
1e-07
 40
0
 40
0
 40
3.96
 40
3.96
 10
30.4684
 20
4.00432
 30
0
 10
30.4684
 20
4.19291
 30
0
  0
SPLINE
  5
139
100
AcDbEntity
  8
Sketch020
  6
ByLayer
 62
    1
370
   -1
100
AcDbSpline
210
0
220
0
230
0
 70
    8
 71
    1
 72
    4
 73
    2
 74
    0
 42
1e-07
 43
1e-07
 40
0
 40
0
 40
0.85
 40
0.85
 10
30.4684
 20
4.19291
 30
0
 10
30.4279
 20
4.19291
 30
0
  0
SPLINE
  5
13A
100
AcDbEntity
  8
Sketch020
  6
ByLayer
 62
    1
370
   -1
100
AcDbSpline
210
0
220
0
230
0
 70
    8
 71
    3
 72
    8
 73
    4
 74
    0
 42
1e-07
 43
1e-07
 40
0
 40
0
 40
0
 40
0
 40
1
 40
1
 40
1
 40
1
 10
30.4279
 20
4.19291
 30
0
 10
30.0341
 20
4.19291
 30
0
 10
29.8212
 20
4.45961
 30
0
 10
29.8212
 20
4.7968
 30
0
  0
SPLINE
  5
13B
100
AcDbEntity
  8
Sketch020
  6
ByLayer
 62
    1
370
   -1
100
AcDbSpline
210
0
220
0
230
0
 70
    8
 71
    3
 72
    8
 73
    4
 74
    0
 42
1e-07
 43
1e-07
 40
0
 40
0
 40
0
 40
0
 40
1
 40
1
 40
1
 40
1
 10
29.8212
 20
4.7968
 30
0
 10
29.8212
 20
5.00444
 30
0
 10
29.886
 20
5.11493
 30
0
 10
29.886
 20
5.11493
 30
0
  0
SPLINE
  5
13C
100
AcDbEntity
  8
Sketch020
  6
ByLayer
 62
    1
370
   -1
100
AcDbSpline
210
0
220
0
230
0
 70
    8
 71
    1
 72
    4
 73
    2
 74
    0
 42
1e-07
 43
1e-07
 40
0
 40
0
 40
8.64884
 40
8.64884
 10
29.886
 20
5.11493
 30
0
 10
30.277
 20
4.98539
 30
0
  0
SPLINE
  5
13D
100
AcDbEntity
  8
Sketch020
  6
ByLayer
 62
    1
370
   -1
100
AcDbSpline
210
0
220
0
230
0
 70
    8
 71
    3
 72
    8
 73
    4
 74
    0
 42
1e-07
 43
1e-07
 40
0
 40
0
 40
0
 40
0
 40
1
 40
1
 40
1
 40
1
 10
30.277
 20
4.98539
 30
0
 10
30.277
 20
4.98539
 30
0
 10
30.2312
 20
4.92872
 30
0
 10
30.2312
 20
4.86157
 30
0
  0
SPLINE
  5
13E
100
AcDbEntity
  8
Sketch020
  6
ByLayer
 62
    1
370
   -1
100
AcDbSpline
210
0
220
0
230
0
 70
    8
 71
    3
 72
    8
 73
    4
 74
    0
 42
1e-07
 43
1e-07
 40
0
 40
0
 40
0
 40
0
 40
1
 40
1
 40
1
 40
1
 10
30.2312
 20
4.86157
 30
0
 10
30.2312
 20
4.75108
 30
0
 10
30.3065
 20
4.67821
 30
0
 10
30.4227
 20
4.67821
 30
0
  0
SPLINE
  5
13F
100
AcDbEntity
  8
Sketch020
  6
ByLayer
 62
    1
370
   -1
100
AcDbSpline
210
0
220
0
230
0
 70
    8
 71
    1
 72
    4
 73
    2
 74
    0
 42
1e-07
 43
1e-07
 40
0
 40
0
 40
0.96
 40
0.96
 10
30.4227
 20
4.67821
 30
0
 10
30.4684
 20
4.67821
 30
0
  0
SPLINE
  5
140
100
AcDbEntity
  8
Sketch020
  6
ByLayer
 62
    1
370
   -1
100
AcDbSpline
210
0
220
0
230
0
 70
    8
 71
    3
 72
    8
 73
    4
 74
    0
 42
1e-07
 43
1e-07
 40
0
 40
0
 40
0
 40
0
 40
1
 40
1
 40
1
 40
1
 10
32.6801
 20
-7.8686
 30
0
 10
32.6801
 20
-7.99242
 30
0
 10
32.7339
 20
-8.06005
 30
0
 10
32.8125
 20
-8.06005
 30
0
  0
SPLINE
  5
141
100
AcDbEntity
  8
Sketch020
  6
ByLayer
 62
    1
370
   -1
100
AcDbSpline
210
0
220
0
230
0
 70
    8
 71
    3
 72
    8
 73
    4
 74
    0
 42
1e-07
 43
1e-07
 40
0
 40
0
 40
0
 40
0
 40
1
 40
1
 40
1
 40
1
 10
32.8125
 20
-8.06005
 30
0
 10
33.0902
 20
-8.06005
 30
0
 10
32.912
 20
-7.17851
 30
0
 10
33.5807
 20
-7.17851
 30
0
  0
SPLINE
  5
142
100
AcDbEntity
  8
Sketch020
  6
ByLayer
 62
    1
370
   -1
100
AcDbSpline
210
0
220
0
230
0
 70
    8
 71
    3
 72
    8
 73
    4
 74
    0
 42
1e-07
 43
1e-07
 40
0
 40
0
 40
0
 40
0
 40
1
 40
1
 40
1
 40
1
 10
33.5807
 20
-7.17851
 30
0
 10
33.8531
 20
-7.17851
 30
0
 10
34.0984
 20
-7.38092
 30
0
 10
34.0984
 20
-7.89288
 30
0
  0
SPLINE
  5
143
100
AcDbEntity
  8
Sketch020
  6
ByLayer
 62
    1
370
   -1
100
AcDbSpline
210
0
220
0
230
0
 70
    8
 71
    3
 72
    8
 73
    4
 74
    0
 42
1e-07
 43
1e-07
 40
0
 40
0
 40
0
 40
0
 40
1
 40
1
 40
1
 40
1
 10
34.0984
 20
-7.89288
 30
0
 10
34.0984
 20
-8.30817
 30
0
 10
33.8988
 20
-8.57249
 30
0
 10
33.8179
 20
-8.666790000000001
 30
0
  0
SPLINE
  5
144
100
AcDbEntity
  8
Sketch020
  6
ByLayer
 62
    1
370
   -1
100
AcDbSpline
210
0
220
0
230
0
 70
    8
 71
    1
 72
    4
 73
    2
 74
    0
 42
1e-07
 43
1e-07
 40
0
 40
0
 40
9.53379
 40
9.53379
 10
33.8179
 20
-8.666790000000001
 30
0
 10
33.4674
 20
-8.37818
 30
0
  0
SPLINE
  5
145
100
AcDbEntity
  8
Sketch020
  6
ByLayer
 62
    1
370
   -1
100
AcDbSpline
210
0
220
0
230
0
 70
    8
 71
    3
 72
    8
 73
    4
 74
    0
 42
1e-07
 43
1e-07
 40
0
 40
0
 40
0
 40
0
 40
1
 40
1
 40
1
 40
1
 10
33.4674
 20
-8.37818
 30
0
 10
33.5512
 20
-8.28912
 30
0
 10
33.7045
 20
-8.07338
 30
0
 10
33.7045
 20
-7.87145
 30
0
  0
SPLINE
  5
146
100
AcDbEntity
  8
Sketch020
  6
ByLayer
 62
    1
370
   -1
100
AcDbSpline
210
0
220
0
230
0
 70
    8
 71
    3
 72
    8
 73
    4
 74
    0
 42
1e-07
 43
1e-07
 40
0
 40
0
 40
0
 40
0
 40
1
 40
1
 40
1
 40
1
 10
33.7045
 20
-7.87145
 30
0
 10
33.7045
 20
-7.73144
 30
0
 10
33.6664
 20
-7.68286
 30
0
 10
33.5964
 20
-7.68286
 30
0
  0
SPLINE
  5
147
100
AcDbEntity
  8
Sketch020
  6
ByLayer
 62
    1
370
   -1
100
AcDbSpline
210
0
220
0
230
0
 70
    8
 71
    3
 72
    8
 73
    4
 74
    0
 42
1e-07
 43
1e-07
 40
0
 40
0
 40
0
 40
0
 40
1
 40
1
 40
1
 40
1
 10
33.5964
 20
-7.68286
 30
0
 10
33.3454
 20
-7.68286
 30
0
 10
33.4969
 20
-8.56202
 30
0
 10
32.8497
 20
-8.56202
 30
0
  0
SPLINE
  5
148
100
AcDbEntity
  8
Sketch020
  6
ByLayer
 62
    1
370
   -1
100
AcDbSpline
210
0
220
0
230
0
 70
    8
 71
    3
 72
    8
 73
    4
 74
    0
 42
1e-07
 43
1e-07
 40
0
 40
0
 40
0
 40
0
 40
1
 40
1
 40
1
 40
1
 10
32.8497
 20
-8.56202
 30
0
 10
32.5425
 20
-8.56202
 30
0
 10
32.2753
 20
-8.300549999999999
 30
0
 10
32.2753
 20
-7.88526
 30
0
  0
SPLINE
  5
149
100
AcDbEntity
  8
Sketch020
  6
ByLayer
 62
    1
370
   -1
100
AcDbSpline
210
0
220
0
230
0
 70
    8
 71
    3
 72
    8
 73
    4
 74
    0
 42
1e-07
 43
1e-07
 40
0
 40
0
 40
0
 40
0
 40
1
 40
1
 40
1
 40
1
 10
32.2753
 20
-7.88526
 30
0
 10
32.2753
 20
-7.41902
 30
0
 10
32.5206
 20
-7.23566
 30
0
 10
32.7716
 20
-7.19232
 30
0
  0
SPLINE
  5
14A
100
AcDbEntity
  8
Sketch020
  6
ByLayer
 62
    1
370
   -1
100
AcDbSpline
210
0
220
0
230
0
 70
    8
 71
    1
 72
    4
 73
    2
 74
    0
 42
1e-07
 43
1e-07
 40
0
 40
0
 40
9.563319999999999
 40
9.563319999999999
 10
32.7716
 20
-7.19232
 30
0
 10
32.8797
 20
-7.63476
 30
0
  0
SPLINE
  5
14B
100
AcDbEntity
  8
Sketch020
  6
ByLayer
 62
    1
370
   -1
100
AcDbSpline
210
0
220
0
230
0
 70
    8
 71
    3
 72
    8
 73
    4
 74
    0
 42
1e-07
 43
1e-07
 40
0
 40
0
 40
0
 40
0
 40
1
 40
1
 40
1
 40
1
 10
32.8797
 20
-7.63476
 30
0
 10
32.7825
 20
-7.6338
 30
0
 10
32.6801
 20
-7.72572
 30
0
 10
32.6801
 20
-7.8686
 30
0
  0
SPLINE
  5
14C
100
AcDbEntity
  8
Sketch020
  6
ByLayer
 62
    1
370
   -1
100
AcDbSpline
210
0
220
0
230
0
 70
    8
 71
    3
 72
    8
 73
    4
 74
    0
 42
1e-07
 43
1e-07
 40
0
 40
0
 40
0
 40
0
 40
1
 40
1
 40
1
 40
1
 10
33.4378
 20
-5.6707
 30
0
 10
33.8179
 20
-5.6707
 30
0
 10
34.0931
 20
-5.94026
 30
0
 10
34.0931
 20
-6.35269
 30
0
  0
SPLINE
  5
14D
100
AcDbEntity
  8
Sketch020
  6
ByLayer
 62
    1
370
   -1
100
AcDbSpline
210
0
220
0
230
0
 70
    8
 71
    3
 72
    8
 73
    4
 74
    0
 42
1e-07
 43
1e-07
 40
0
 40
0
 40
0
 40
0
 40
1
 40
1
 40
1
 40
1
 10
34.0931
 20
-6.35269
 30
0
 10
34.0931
 20
-6.76512
 30
0
 10
33.8179
 20
-7.03468
 30
0
 10
33.4378
 20
-7.03468
 30
0
  0
SPLINE
  5
14E
100
AcDbEntity
  8
Sketch020
  6
ByLayer
 62
    1
370
   -1
100
AcDbSpline
210
0
220
0
230
0
 70
    8
 71
    3
 72
    8
 73
    4
 74
    0
 42
1e-07
 43
1e-07
 40
0
 40
0
 40
0
 40
0
 40
1
 40
1
 40
1
 40
1
 10
33.4378
 20
-7.03468
 30
0
 10
33.0578
 20
-7.03468
 30
0
 10
32.7882
 20
-6.76512
 30
0
 10
32.7882
 20
-6.35269
 30
0
  0
SPLINE
  5
14F
100
AcDbEntity
  8
Sketch020
  6
ByLayer
 62
    1
370
   -1
100
AcDbSpline
210
0
220
0
230
0
 70
    8
 71
    3
 72
    8
 73
    4
 74
    0
 42
1e-07
 43
1e-07
 40
0
 40
0
 40
0
 40
0
 40
1
 40
1
 40
1
 40
1
 10
32.7882
 20
-6.35269
 30
0
 10
32.7877
 20
-5.94074
 30
0
 10
33.0578
 20
-5.6707
 30
0
 10
33.4378
 20
-5.6707
 30
0
  0
SPLINE
  5
150
100
AcDbEntity
  8
Sketch020
  6
ByLayer
 62
    1
370
   -1
100
AcDbSpline
210
0
220
0
230
0
 70
    8
 71
    3
 72
    8
 73
    4
 74
    0
 42
1e-07
 43
1e-07
 40
0
 40
0
 40
0
 40
0
 40
1
 40
1
 40
1
 40
1
 10
33.4378
 20
-6.16172
 30
0
 10
33.2816
 20
-6.16172
 30
0
 10
33.1816
 20
-6.22934
 30
0
 10
33.1816
 20
-6.35317
 30
0
  0
SPLINE
  5
151
100
AcDbEntity
  8
Sketch020
  6
ByLayer
 62
    1
370
   -1
100
AcDbSpline
210
0
220
0
230
0
 70
    8
 71
    3
 72
    8
 73
    4
 74
    0
 42
1e-07
 43
1e-07
 40
0
 40
0
 40
0
 40
0
 40
1
 40
1
 40
1
 40
1
 10
33.1816
 20
-6.35317
 30
0
 10
33.1816
 20
-6.47747
 30
0
 10
33.2811
 20
-6.54462
 30
0
 10
33.4378
 20
-6.54462
 30
0
  0
SPLINE
  5
152
100
AcDbEntity
  8
Sketch020
  6
ByLayer
 62
    1
370
   -1
100
AcDbSpline
210
0
220
0
230
0
 70
    8
 71
    3
 72
    8
 73
    4
 74
    0
 42
1e-07
 43
1e-07
 40
0
 40
0
 40
0
 40
0
 40
1
 40
1
 40
1
 40
1
 10
33.4378
 20
-6.54462
 30
0
 10
33.5945
 20
-6.54462
 30
0
 10
33.6993
 20
-6.47699
 30
0
 10
33.6993
 20
-6.35317
 30
0
  0
SPLINE
  5
153
100
AcDbEntity
  8
Sketch020
  6
ByLayer
 62
    1
370
   -1
100
AcDbSpline
210
0
220
0
230
0
 70
    8
 71
    3
 72
    8
 73
    4
 74
    0
 42
1e-07
 43
1e-07
 40
0
 40
0
 40
0
 40
0
 40
1
 40
1
 40
1
 40
1
 10
33.6993
 20
-6.35317
 30
0
 10
33.6993
 20
-6.22887
 30
0
 10
33.594
 20
-6.16172
 30
0
 10
33.4378
 20
-6.16172
 30
0
  0
SPLINE
  5
154
100
AcDbEntity
  8
Sketch020
  6
ByLayer
 62
    1
370
   -1
100
AcDbSpline
210
0
220
0
230
0
 70
    8
 71
    1
 72
    4
 73
    2
 74
    0
 42
1e-07
 43
1e-07
 40
0
 40
0
 40
10.19
 40
10.19
 10
32.1729
 20
-5.48639
 30
0
 10
32.1729
 20
-5.00109
 30
0
  0
SPLINE
  5
155
100
AcDbEntity
  8
Sketch020
  6
ByLayer
 62
    1
370
   -1
100
AcDbSpline
210
0
220
0
230
0
 70
    8
 71
    1
 72
    4
 73
    2
 74
    0
 42
1e-07
 43
1e-07
 40
0
 40
0
 40
39.97
 40
39.97
 10
32.1729
 20
-5.00109
 30
0
 10
34.0765
 20
-5.00109
 30
0
  0
SPLINE
  5
156
100
AcDbEntity
  8
Sketch020
  6
ByLayer
 62
    1
370
   -1
100
AcDbSpline
210
0
220
0
230
0
 70
    8
 71
    1
 72
    4
 73
    2
 74
    0
 42
1e-07
 43
1e-07
 40
0
 40
0
 40
10.19
 40
10.19
 10
34.0765
 20
-5.00109
 30
0
 10
34.0765
 20
-5.48639
 30
0
  0
SPLINE
  5
157
100
AcDbEntity
  8
Sketch020
  6
ByLayer
 62
    1
370
   -1
100
AcDbSpline
210
0
220
0
230
0
 70
    8
 71
    1
 72
    4
 73
    2
 74
    0
 42
1e-07
 43
1e-07
 40
0
 40
0
 40
39.97
 40
39.97
 10
34.0765
 20
-5.48639
 30
0
 10
32.1729
 20
-5.48639
 30
0
  0
SPLINE
  5
158
100
AcDbEntity
  8
Sketch020
  6
ByLayer
 62
    1
370
   -1
100
AcDbSpline
210
0
220
0
230
0
 70
    8
 71
    3
 72
    8
 73
    4
 74
    0
 42
1e-07
 43
1e-07
 40
0
 40
0
 40
0
 40
0
 40
1
 40
1
 40
1
 40
1
 10
34.066
 20
-3.34089
 30
0
 10
34.066
 20
-3.34089
 30
0
 10
34.0931
 20
-3.43233
 30
0
 10
34.0931
 20
-3.56187
 30
0
  0
SPLINE
  5
159
100
AcDbEntity
  8
Sketch020
  6
ByLayer
 62
    1
370
   -1
100
AcDbSpline
210
0
220
0
230
0
 70
    8
 71
    3
 72
    8
 73
    4
 74
    0
 42
1e-07
 43
1e-07
 40
0
 40
0
 40
0
 40
0
 40
1
 40
1
 40
1
 40
1
 10
34.0931
 20
-3.56187
 30
0
 10
34.0931
 20
-3.79094
 30
0
 10
34.0093
 20
-3.89096
 30
0
 10
33.8531
 20
-3.92048
 30
0
  0
SPLINE
  5
15A
100
AcDbEntity
  8
Sketch020
  6
ByLayer
 62
    1
370
   -1
100
AcDbSpline
210
0
220
0
230
0
 70
    8
 71
    1
 72
    4
 73
    2
 74
    0
 42
1e-07
 43
1e-07
 40
0
 40
0
 40
0.17
 40
0.17
 10
33.8531
 20
-3.92048
 30
0
 10
33.8531
 20
-3.92858
 30
0
  0
SPLINE
  5
15B
100
AcDbEntity
  8
Sketch020
  6
ByLayer
 62
    1
370
   -1
100
AcDbSpline
210
0
220
0
230
0
 70
    8
 71
    3
 72
    8
 73
    4
 74
    0
 42
1e-07
 43
1e-07
 40
0
 40
0
 40
0
 40
0
 40
1
 40
1
 40
1
 40
1
 10
33.8531
 20
-3.92858
 30
0
 10
33.9931
 20
-3.98525
 30
0
 10
34.0931
 20
-4.09289
 30
0
 10
34.0931
 20
-4.30053
 30
0
  0
SPLINE
  5
15C
100
AcDbEntity
  8
Sketch020
  6
ByLayer
 62
    1
370
   -1
100
AcDbSpline
210
0
220
0
230
0
 70
    8
 71
    3
 72
    8
 73
    4
 74
    0
 42
1e-07
 43
1e-07
 40
0
 40
0
 40
0
 40
0
 40
1
 40
1
 40
1
 40
1
 10
34.0931
 20
-4.30053
 30
0
 10
34.0931
 20
-4.6239
 30
0
 10
33.8636
 20
-4.75868
 30
0
 10
33.5888
 20
-4.75868
 30
0
  0
SPLINE
  5
15D
100
AcDbEntity
  8
Sketch020
  6
ByLayer
 62
    1
370
   -1
100
AcDbSpline
210
0
220
0
230
0
 70
    8
 71
    1
 72
    4
 73
    2
 74
    0
 42
1e-07
 43
1e-07
 40
0
 40
0
 40
16.48
 40
16.48
 10
33.5888
 20
-4.75868
 30
0
 10
32.8039
 20
-4.75868
 30
0
  0
SPLINE
  5
15E
100
AcDbEntity
  8
Sketch020
  6
ByLayer
 62
    1
370
   -1
100
AcDbSpline
210
0
220
0
230
0
 70
    8
 71
    1
 72
    4
 73
    2
 74
    0
 42
1e-07
 43
1e-07
 40
0
 40
0
 40
10.19
 40
10.19
 10
32.8039
 20
-4.75868
 30
0
 10
32.8039
 20
-4.27338
 30
0
  0
SPLINE
  5
15F
100
AcDbEntity
  8
Sketch020
  6
ByLayer
 62
    1
370
   -1
100
AcDbSpline
210
0
220
0
230
0
 70
    8
 71
    1
 72
    4
 73
    2
 74
    0
 42
1e-07
 43
1e-07
 40
0
 40
0
 40
13.87
 40
13.87
 10
32.8039
 20
-4.27338
 30
0
 10
33.4645
 20
-4.27338
 30
0
  0
SPLINE
  5
160
100
AcDbEntity
  8
Sketch020
  6
ByLayer
 62
    1
370
   -1
100
AcDbSpline
210
0
220
0
230
0
 70
    8
 71
    3
 72
    8
 73
    4
 74
    0
 42
1e-07
 43
1e-07
 40
0
 40
0
 40
0
 40
0
 40
1
 40
1
 40
1
 40
1
 10
33.4645
 20
-4.27338
 30
0
 10
33.5883
 20
-4.27338
 30
0
 10
33.6693
 20
-4.22243
 30
0
 10
33.6693
 20
-4.11146
 30
0
  0
SPLINE
  5
161
100
AcDbEntity
  8
Sketch020
  6
ByLayer
 62
    1
370
   -1
100
AcDbSpline
210
0
220
0
230
0
 70
    8
 71
    3
 72
    8
 73
    4
 74
    0
 42
1e-07
 43
1e-07
 40
0
 40
0
 40
0
 40
0
 40
1
 40
1
 40
1
 40
1
 10
33.6693
 20
-4.11146
 30
0
 10
33.6693
 20
-4.00383
 30
0
 10
33.5721
 20
-3.95239
 30
0
 10
33.4564
 20
-3.95239
 30
0
  0
SPLINE
  5
162
100
AcDbEntity
  8
Sketch020
  6
ByLayer
 62
    1
370
   -1
100
AcDbSpline
210
0
220
0
230
0
 70
    8
 71
    1
 72
    4
 73
    2
 74
    0
 42
1e-07
 43
1e-07
 40
0
 40
0
 40
13.7
 40
13.7
 10
33.4564
 20
-3.95239
 30
0
 10
32.8039
 20
-3.95239
 30
0
  0
SPLINE
  5
163
100
AcDbEntity
  8
Sketch020
  6
ByLayer
 62
    1
370
   -1
100
AcDbSpline
210
0
220
0
230
0
 70
    8
 71
    1
 72
    4
 73
    2
 74
    0
 42
1e-07
 43
1e-07
 40
0
 40
0
 40
10.18
 40
10.18
 10
32.8039
 20
-3.95239
 30
0
 10
32.8039
 20
-3.46757
 30
0
  0
SPLINE
  5
164
100
AcDbEntity
  8
Sketch020
  6
ByLayer
 62
    1
370
   -1
100
AcDbSpline
210
0
220
0
230
0
 70
    8
 71
    1
 72
    4
 73
    2
 74
    0
 42
1e-07
 43
1e-07
 40
0
 40
0
 40
17.83
 40
17.83
 10
32.8039
 20
-3.46757
 30
0
 10
33.6531
 20
-3.46757
 30
0
  0
SPLINE
  5
165
100
AcDbEntity
  8
Sketch020
  6
ByLayer
 62
    1
370
   -1
100
AcDbSpline
210
0
220
0
230
0
 70
    8
 71
    2
 72
    6
 73
    3
 74
    0
 42
1e-07
 43
1e-07
 40
0
 40
0
 40
0
 40
1
 40
1
 40
1
 10
33.6531
 20
-3.46757
 30
0
 10
33.7233
 20
-3.46554
 30
0
 10
33.7207
 20
-3.4028
 30
0
  0
SPLINE
  5
166
100
AcDbEntity
  8
Sketch020
  6
ByLayer
 62
    1
370
   -1
100
AcDbSpline
210
0
220
0
230
0
 70
    8
 71
    2
 72
    6
 73
    3
 74
    0
 42
1e-07
 43
1e-07
 40
0
 40
0
 40
0
 40
1
 40
1
 40
1
 10
33.7207
 20
-3.4028
 30
0
 10
33.7206
 20
-3.37994
 30
0
 10
33.7126
 20
-3.35708
 30
0
  0
SPLINE
  5
167
100
AcDbEntity
  8
Sketch020
  6
ByLayer
 62
    1
370
   -1
100
AcDbSpline
210
0
220
0
230
0
 70
    8
 71
    1
 72
    4
 73
    2
 74
    0
 42
1e-07
 43
1e-07
 40
0
 40
0
 40
7.42779
 40
7.42779
 10
33.7126
 20
-3.35708
 30
0
 10
34.066
 20
-3.34089
 30
0
  0
SPLINE
  5
168
100
AcDbEntity
  8
Sketch020
  6
ByLayer
 62
    1
370
   -1
100
AcDbSpline
210
0
220
0
230
0
 70
    8
 71
    3
 72
    8
 73
    4
 74
    0
 42
1e-07
 43
1e-07
 40
0
 40
0
 40
0
 40
0
 40
1
 40
1
 40
1
 40
1
 10
33.9931
 20
-2.11597
 30
0
 10
33.9931
 20
-2.11597
 30
0
 10
34.0931
 20
-2.25885
 30
0
 10
34.0931
 20
-2.5365
 30
0
  0
SPLINE
  5
169
100
AcDbEntity
  8
Sketch020
  6
ByLayer
 62
    1
370
   -1
100
AcDbSpline
210
0
220
0
230
0
 70
    8
 71
    3
 72
    8
 73
    4
 74
    0
 42
1e-07
 43
1e-07
 40
0
 40
0
 40
0
 40
0
 40
1
 40
1
 40
1
 40
1
 10
34.0931
 20
-2.5365
 30
0
 10
34.0931
 20
-2.87368
 30
0
 10
33.9069
 20
-3.08657
 30
0
 10
33.5136
 20
-3.08657
 30
0
  0
SPLINE
  5
16A
100
AcDbEntity
  8
Sketch020
  6
ByLayer
 62
    1
370
   -1
100
AcDbSpline
210
0
220
0
230
0
 70
    8
 71
    1
 72
    4
 73
    2
 74
    0
 42
1e-07
 43
1e-07
 40
0
 40
0
 40
7.36
 40
7.36
 10
33.5136
 20
-3.08657
 30
0
 10
33.163
 20
-3.08657
 30
0
  0
SPLINE
  5
16B
100
AcDbEntity
  8
Sketch020
  6
ByLayer
 62
    1
370
   -1
100
AcDbSpline
210
0
220
0
230
0
 70
    8
 71
    1
 72
    4
 73
    2
 74
    0
 42
1e-07
 43
1e-07
 40
0
 40
0
 40
3.96
 40
3.96
 10
33.163
 20
-3.08657
 30
0
 10
33.163
 20
-3.27516
 30
0
  0
SPLINE
  5
16C
100
AcDbEntity
  8
Sketch020
  6
ByLayer
 62
    1
370
   -1
100
AcDbSpline
210
0
220
0
230
0
 70
    8
 71
    1
 72
    4
 73
    2
 74
    0
 42
1e-07
 43
1e-07
 40
0
 40
0
 40
7.53
 40
7.53
 10
33.163
 20
-3.27516
 30
0
 10
32.8044
 20
-3.27516
 30
0
  0
SPLINE
  5
16D
100
AcDbEntity
  8
Sketch020
  6
ByLayer
 62
    1
370
   -1
100
AcDbSpline
210
0
220
0
230
0
 70
    8
 71
    1
 72
    4
 73
    2
 74
    0
 42
1e-07
 43
1e-07
 40
0
 40
0
 40
4.53
 40
4.53
 10
32.8044
 20
-3.27516
 30
0
 10
32.8044
 20
-3.05942
 30
0
  0
SPLINE
  5
16E
100
AcDbEntity
  8
Sketch020
  6
ByLayer
 62
    1
370
   -1
100
AcDbSpline
210
0
220
0
230
0
 70
    8
 71
    1
 72
    4
 73
    2
 74
    0
 42
1e-07
 43
1e-07
 40
0
 40
0
 40
7.13
 40
7.13
 10
32.8044
 20
-3.05942
 30
0
 10
32.4649
 20
-3.05942
 30
0
  0
SPLINE
  5
16F
100
AcDbEntity
  8
Sketch020
  6
ByLayer
 62
    1
370
   -1
100
AcDbSpline
210
0
220
0
230
0
 70
    8
 71
    1
 72
    4
 73
    2
 74
    0
 42
1e-07
 43
1e-07
 40
0
 40
0
 40
9.62407
 40
9.62407
 10
32.4649
 20
-3.05942
 30
0
 10
32.4515
 20
-2.60127
 30
0
  0
SPLINE
  5
170
100
AcDbEntity
  8
Sketch020
  6
ByLayer
 62
    1
370
   -1
100
AcDbSpline
210
0
220
0
230
0
 70
    8
 71
    1
 72
    4
 73
    2
 74
    0
 42
1e-07
 43
1e-07
 40
0
 40
0
 40
7.42
 40
7.42
 10
32.4515
 20
-2.60127
 30
0
 10
32.8049
 20
-2.60127
 30
0
  0
SPLINE
  5
171
100
AcDbEntity
  8
Sketch020
  6
ByLayer
 62
    1
370
   -1
100
AcDbSpline
210
0
220
0
230
0
 70
    8
 71
    1
 72
    4
 73
    2
 74
    0
 42
1e-07
 43
1e-07
 40
0
 40
0
 40
8.550000000000001
 40
8.550000000000001
 10
32.8049
 20
-2.60127
 30
0
 10
32.8049
 20
-2.19408
 30
0
  0
SPLINE
  5
172
100
AcDbEntity
  8
Sketch020
  6
ByLayer
 62
    1
370
   -1
100
AcDbSpline
210
0
220
0
230
0
 70
    8
 71
    1
 72
    4
 73
    2
 74
    0
 42
1e-07
 43
1e-07
 40
0
 40
0
 40
7.53
 40
7.53
 10
32.8049
 20
-2.19408
 30
0
 10
33.1635
 20
-2.19408
 30
0
  0
SPLINE
  5
173
100
AcDbEntity
  8
Sketch020
  6
ByLayer
 62
    1
370
   -1
100
AcDbSpline
210
0
220
0
230
0
 70
    8
 71
    1
 72
    4
 73
    2
 74
    0
 42
1e-07
 43
1e-07
 40
0
 40
0
 40
8.550000000000001
 40
8.550000000000001
 10
33.1635
 20
-2.19408
 30
0
 10
33.1635
 20
-2.60127
 30
0
  0
SPLINE
  5
174
100
AcDbEntity
  8
Sketch020
  6
ByLayer
 62
    1
370
   -1
100
AcDbSpline
210
0
220
0
230
0
 70
    8
 71
    1
 72
    4
 73
    2
 74
    0
 42
1e-07
 43
1e-07
 40
0
 40
0
 40
6.91
 40
6.91
 10
33.1635
 20
-2.60127
 30
0
 10
33.4926
 20
-2.60127
 30
0
  0
SPLINE
  5
175
100
AcDbEntity
  8
Sketch020
  6
ByLayer
 62
    1
370
   -1
100
AcDbSpline
210
0
220
0
230
0
 70
    8
 71
    3
 72
    8
 73
    4
 74
    0
 42
1e-07
 43
1e-07
 40
0
 40
0
 40
0
 40
0
 40
1
 40
1
 40
1
 40
1
 10
33.4926
 20
-2.60127
 30
0
 10
33.6326
 20
-2.60127
 30
0
 10
33.6841
 20
-2.54174
 30
0
 10
33.6841
 20
-2.42601
 30
0
  0
SPLINE
  5
176
100
AcDbEntity
  8
Sketch020
  6
ByLayer
 62
    1
370
   -1
100
AcDbSpline
210
0
220
0
230
0
 70
    8
 71
    3
 72
    8
 73
    4
 74
    0
 42
1e-07
 43
1e-07
 40
0
 40
0
 40
0
 40
0
 40
1
 40
1
 40
1
 40
1
 10
33.6841
 20
-2.42601
 30
0
 10
33.6841
 20
-2.31266
 30
0
 10
33.6193
 20
-2.24789
 30
0
 10
33.6193
 20
-2.24789
 30
0
  0
SPLINE
  5
177
100
AcDbEntity
  8
Sketch020
  6
ByLayer
 62
    1
370
   -1
100
AcDbSpline
210
0
220
0
230
0
 70
    8
 71
    1
 72
    4
 73
    2
 74
    0
 42
1e-07
 43
1e-07
 40
0
 40
0
 40
8.324389999999999
 40
8.324389999999999
 10
33.6193
 20
-2.24789
 30
0
 10
33.9931
 20
-2.11597
 30
0
  0
SPLINE
  5
178
100
AcDbEntity
  8
Sketch020
  6
ByLayer
 62
    1
370
   -1
100
AcDbSpline
210
0
220
0
230
0
 70
    8
 71
    3
 72
    8
 73
    4
 74
    0
 42
1e-07
 43
1e-07
 40
0
 40
0
 40
0
 40
0
 40
1
 40
1
 40
1
 40
1
 10
32.6906
 20
-1.74164
 30
0
 10
32.6906
 20
-1.91166
 30
0
 10
32.572
 20
-2.04358
 30
0
 10
32.402
 20
-2.04358
 30
0
  0
SPLINE
  5
179
100
AcDbEntity
  8
Sketch020
  6
ByLayer
 62
    1
370
   -1
100
AcDbSpline
210
0
220
0
230
0
 70
    8
 71
    3
 72
    8
 73
    4
 74
    0
 42
1e-07
 43
1e-07
 40
0
 40
0
 40
0
 40
0
 40
1
 40
1
 40
1
 40
1
 10
32.402
 20
-2.04358
 30
0
 10
32.2324
 20
-2.04358
 30
0
 10
32.111
 20
-1.91166
 30
0
 10
32.111
 20
-1.74164
 30
0
  0
SPLINE
  5
17A
100
AcDbEntity
  8
Sketch020
  6
ByLayer
 62
    1
370
   -1
100
AcDbSpline
210
0
220
0
230
0
 70
    8
 71
    3
 72
    8
 73
    4
 74
    0
 42
1e-07
 43
1e-07
 40
0
 40
0
 40
0
 40
0
 40
1
 40
1
 40
1
 40
1
 10
32.111
 20
-1.74164
 30
0
 10
32.111
 20
-1.57162
 30
0
 10
32.2324
 20
-1.43684
 30
0
 10
32.402
 20
-1.43684
 30
0
  0
SPLINE
  5
17B
100
AcDbEntity
  8
Sketch020
  6
ByLayer
 62
    1
370
   -1
100
AcDbSpline
210
0
220
0
230
0
 70
    8
 71
    3
 72
    8
 73
    4
 74
    0
 42
1e-07
 43
1e-07
 40
0
 40
0
 40
0
 40
0
 40
1
 40
1
 40
1
 40
1
 10
32.402
 20
-1.43684
 30
0
 10
32.572
 20
-1.43684
 30
0
 10
32.6906
 20
-1.57162
 30
0
 10
32.6906
 20
-1.74164
 30
0
  0
SPLINE
  5
17C
100
AcDbEntity
  8
Sketch020
  6
ByLayer
 62
    1
370
   -1
100
AcDbSpline
210
0
220
0
230
0
 70
    8
 71
    1
 72
    4
 73
    2
 74
    0
 42
1e-07
 43
1e-07
 40
0
 40
0
 40
10.1938
 40
10.1938
 10
32.8039
 20
-1.97881
 30
0
 10
32.7906
 20
-1.49351
 30
0
  0
SPLINE
  5
17D
100
AcDbEntity
  8
Sketch020
  6
ByLayer
 62
    1
370
   -1
100
AcDbSpline
210
0
220
0
230
0
 70
    8
 71
    1
 72
    4
 73
    2
 74
    0
 42
1e-07
 43
1e-07
 40
0
 40
0
 40
27.01
 40
27.01
 10
32.7906
 20
-1.49351
 30
0
 10
34.077
 20
-1.49351
 30
0
  0
SPLINE
  5
17E
100
AcDbEntity
  8
Sketch020
  6
ByLayer
 62
    1
370
   -1
100
AcDbSpline
210
0
220
0
230
0
 70
    8
 71
    1
 72
    4
 73
    2
 74
    0
 42
1e-07
 43
1e-07
 40
0
 40
0
 40
10.19
 40
10.19
 10
34.077
 20
-1.49351
 30
0
 10
34.077
 20
-1.97881
 30
0
  0
SPLINE
  5
17F
100
AcDbEntity
  8
Sketch020
  6
ByLayer
 62
    1
370
   -1
100
AcDbSpline
210
0
220
0
230
0
 70
    8
 71
    1
 72
    4
 73
    2
 74
    0
 42
1e-07
 43
1e-07
 40
0
 40
0
 40
26.73
 40
26.73
 10
34.077
 20
-1.97881
 30
0
 10
32.8039
 20
-1.97881
 30
0
  0
SPLINE
  5
180
100
AcDbEntity
  8
Sketch020
  6
ByLayer
 62
    1
370
   -1
100
AcDbSpline
210
0
220
0
230
0
 70
    8
 71
    3
 72
    8
 73
    4
 74
    0
 42
1e-07
 43
1e-07
 40
0
 40
0
 40
0
 40
0
 40
1
 40
1
 40
1
 40
1
 10
33.4378
 20
0.0452514
 30
0
 10
33.8179
 20
0.0452514
 30
0
 10
34.0931
 20
-0.224306
 30
0
 10
34.0931
 20
-0.6367390000000001
 30
0
  0
SPLINE
  5
181
100
AcDbEntity
  8
Sketch020
  6
ByLayer
 62
    1
370
   -1
100
AcDbSpline
210
0
220
0
230
0
 70
    8
 71
    3
 72
    8
 73
    4
 74
    0
 42
1e-07
 43
1e-07
 40
0
 40
0
 40
0
 40
0
 40
1
 40
1
 40
1
 40
1
 10
34.0931
 20
-0.6367390000000001
 30
0
 10
34.0931
 20
-1.04917
 30
0
 10
33.8179
 20
-1.31873
 30
0
 10
33.4378
 20
-1.31873
 30
0
  0
SPLINE
  5
182
100
AcDbEntity
  8
Sketch020
  6
ByLayer
 62
    1
370
   -1
100
AcDbSpline
210
0
220
0
230
0
 70
    8
 71
    3
 72
    8
 73
    4
 74
    0
 42
1e-07
 43
1e-07
 40
0
 40
0
 40
0
 40
0
 40
1
 40
1
 40
1
 40
1
 10
33.4378
 20
-1.31873
 30
0
 10
33.0578
 20
-1.31873
 30
0
 10
32.7882
 20
-1.04917
 30
0
 10
32.7882
 20
-0.6367390000000001
 30
0
  0
SPLINE
  5
183
100
AcDbEntity
  8
Sketch020
  6
ByLayer
 62
    1
370
   -1
100
AcDbSpline
210
0
220
0
230
0
 70
    8
 71
    3
 72
    8
 73
    4
 74
    0
 42
1e-07
 43
1e-07
 40
0
 40
0
 40
0
 40
0
 40
1
 40
1
 40
1
 40
1
 10
32.7882
 20
-0.6367390000000001
 30
0
 10
32.7877
 20
-0.224306
 30
0
 10
33.0578
 20
0.0452514
 30
0
 10
33.4378
 20
0.0452514
 30
0
  0
SPLINE
  5
184
100
AcDbEntity
  8
Sketch020
  6
ByLayer
 62
    1
370
   -1
100
AcDbSpline
210
0
220
0
230
0
 70
    8
 71
    3
 72
    8
 73
    4
 74
    0
 42
1e-07
 43
1e-07
 40
0
 40
0
 40
0
 40
0
 40
1
 40
1
 40
1
 40
1
 10
33.4378
 20
-0.445762
 30
0
 10
33.2816
 20
-0.445762
 30
0
 10
33.1816
 20
-0.51339
 30
0
 10
33.1816
 20
-0.637215
 30
0
  0
SPLINE
  5
185
100
AcDbEntity
  8
Sketch020
  6
ByLayer
 62
    1
370
   -1
100
AcDbSpline
210
0
220
0
230
0
 70
    8
 71
    3
 72
    8
 73
    4
 74
    0
 42
1e-07
 43
1e-07
 40
0
 40
0
 40
0
 40
0
 40
1
 40
1
 40
1
 40
1
 10
33.1816
 20
-0.637215
 30
0
 10
33.1816
 20
-0.761516
 30
0
 10
33.2811
 20
-0.828667
 30
0
 10
33.4378
 20
-0.828667
 30
0
  0
SPLINE
  5
186
100
AcDbEntity
  8
Sketch020
  6
ByLayer
 62
    1
370
   -1
100
AcDbSpline
210
0
220
0
230
0
 70
    8
 71
    3
 72
    8
 73
    4
 74
    0
 42
1e-07
 43
1e-07
 40
0
 40
0
 40
0
 40
0
 40
1
 40
1
 40
1
 40
1
 10
33.4378
 20
-0.828667
 30
0
 10
33.5945
 20
-0.828667
 30
0
 10
33.6993
 20
-0.76104
 30
0
 10
33.6993
 20
-0.637215
 30
0
  0
SPLINE
  5
187
100
AcDbEntity
  8
Sketch020
  6
ByLayer
 62
    1
370
   -1
100
AcDbSpline
210
0
220
0
230
0
 70
    8
 71
    3
 72
    8
 73
    4
 74
    0
 42
1e-07
 43
1e-07
 40
0
 40
0
 40
0
 40
0
 40
1
 40
1
 40
1
 40
1
 10
33.6993
 20
-0.637215
 30
0
 10
33.6993
 20
-0.512914
 30
0
 10
33.594
 20
-0.445762
 30
0
 10
33.4378
 20
-0.445762
 30
0
  0
SPLINE
  5
188
100
AcDbEntity
  8
Sketch020
  6
ByLayer
 62
    1
370
   -1
100
AcDbSpline
210
0
220
0
230
0
 70
    8
 71
    3
 72
    8
 73
    4
 74
    0
 42
1e-07
 43
1e-07
 40
0
 40
0
 40
0
 40
0
 40
1
 40
1
 40
1
 40
1
 10
34.0689
 20
1.66545
 30
0
 10
34.0689
 20
1.66545
 30
0
 10
34.0955
 20
1.56592
 30
0
 10
34.0955
 20
1.40399
 30
0
  0
SPLINE
  5
189
100
AcDbEntity
  8
Sketch020
  6
ByLayer
 62
    1
370
   -1
100
AcDbSpline
210
0
220
0
230
0
 70
    8
 71
    3
 72
    8
 73
    4
 74
    0
 42
1e-07
 43
1e-07
 40
0
 40
0
 40
0
 40
0
 40
1
 40
1
 40
1
 40
1
 10
34.0955
 20
1.40399
 30
0
 10
34.0955
 20
1.15063
 30
0
 10
33.9688
 20
1.05347
 30
0
 10
33.7774
 20
1.05347
 30
0
  0
SPLINE
  5
18A
100
AcDbEntity
  8
Sketch020
  6
ByLayer
 62
    1
370
   -1
100
AcDbSpline
210
0
220
0
230
0
 70
    8
 71
    1
 72
    4
 73
    2
 74
    0
 42
1e-07
 43
1e-07
 40
0
 40
0
 40
7.58
 40
7.58
 10
33.7774
 20
1.05347
 30
0
 10
33.4164
 20
1.05347
 30
0
  0
SPLINE
  5
18B
100
AcDbEntity
  8
Sketch020
  6
ByLayer
 62
    1
370
   -1
100
AcDbSpline
210
0
220
0
230
0
 70
    8
 71
    3
 72
    8
 73
    4
 74
    0
 42
1e-07
 43
1e-07
 40
0
 40
0
 40
0
 40
0
 40
1
 40
1
 40
1
 40
1
 10
33.4164
 20
1.05347
 30
0
 10
33.2926
 20
1.05347
 30
0
 10
33.2116
 20
1.00204
 30
0
 10
33.2116
 20
0.891548
 30
0
  0
SPLINE
  5
18C
100
AcDbEntity
  8
Sketch020
  6
ByLayer
 62
    1
370
   -1
100
AcDbSpline
210
0
220
0
230
0
 70
    8
 71
    3
 72
    8
 73
    4
 74
    0
 42
1e-07
 43
1e-07
 40
0
 40
0
 40
0
 40
0
 40
1
 40
1
 40
1
 40
1
 10
33.2116
 20
0.891548
 30
0
 10
33.2116
 20
0.772961
 30
0
 10
33.3088
 20
0.721526
 30
0
 10
33.4245
 20
0.721526
 30
0
  0
SPLINE
  5
18D
100
AcDbEntity
  8
Sketch020
  6
ByLayer
 62
    1
370
   -1
100
AcDbSpline
210
0
220
0
230
0
 70
    8
 71
    1
 72
    4
 73
    2
 74
    0
 42
1e-07
 43
1e-07
 40
0
 40
0
 40
13.7
 40
13.7
 10
33.4245
 20
0.721526
 30
0
 10
34.077
 20
0.721526
 30
0
  0
SPLINE
  5
18E
100
AcDbEntity
  8
Sketch020
  6
ByLayer
 62
    1
370
   -1
100
AcDbSpline
210
0
220
0
230
0
 70
    8
 71
    1
 72
    4
 73
    2
 74
    0
 42
1e-07
 43
1e-07
 40
0
 40
0
 40
10.19
 40
10.19
 10
34.077
 20
0.721526
 30
0
 10
34.077
 20
0.236228
 30
0
  0
SPLINE
  5
18F
100
AcDbEntity
  8
Sketch020
  6
ByLayer
 62
    1
370
   -1
100
AcDbSpline
210
0
220
0
230
0
 70
    8
 71
    1
 72
    4
 73
    2
 74
    0
 42
1e-07
 43
1e-07
 40
0
 40
0
 40
26.72
 40
26.72
 10
34.077
 20
0.236228
 30
0
 10
32.8044
 20
0.236228
 30
0
  0
SPLINE
  5
190
100
AcDbEntity
  8
Sketch020
  6
ByLayer
 62
    1
370
   -1
100
AcDbSpline
210
0
220
0
230
0
 70
    8
 71
    1
 72
    4
 73
    2
 74
    0
 42
1e-07
 43
1e-07
 40
0
 40
0
 40
8.384679999999999
 40
8.384679999999999
 10
32.8044
 20
0.236228
 30
0
 10
32.7911
 20
0.635325
 30
0
  0
SPLINE
  5
191
100
AcDbEntity
  8
Sketch020
  6
ByLayer
 62
    1
370
   -1
100
AcDbSpline
210
0
220
0
230
0
 70
    8
 71
    3
 72
    8
 73
    4
 74
    0
 42
1e-07
 43
1e-07
 40
0
 40
0
 40
0
 40
0
 40
1
 40
1
 40
1
 40
1
 10
32.7911
 20
0.635325
 30
0
 10
32.8611
 20
0.66771
 30
0
 10
32.9797
 20
0.691999
 30
0
 10
33.0311
 20
0.691999
 30
0
  0
SPLINE
  5
192
100
AcDbEntity
  8
Sketch020
  6
ByLayer
 62
    1
370
   -1
100
AcDbSpline
210
0
220
0
230
0
 70
    8
 71
    1
 72
    4
 73
    2
 74
    0
 42
1e-07
 43
1e-07
 40
0
 40
0
 40
0.23
 40
0.23
 10
33.0311
 20
0.691999
 30
0
 10
33.0311
 20
0.7029530000000001
 30
0
  0
SPLINE
  5
193
100
AcDbEntity
  8
Sketch020
  6
ByLayer
 62
    1
370
   -1
100
AcDbSpline
210
0
220
0
230
0
 70
    8
 71
    3
 72
    8
 73
    4
 74
    0
 42
1e-07
 43
1e-07
 40
0
 40
0
 40
0
 40
0
 40
1
 40
1
 40
1
 40
1
 10
33.0311
 20
0.7029530000000001
 30
0
 10
32.8911
 20
0.759626
 30
0
 10
32.7887
 20
0.870116
 30
0
 10
32.7887
 20
1.08062
 30
0
  0
SPLINE
  5
194
100
AcDbEntity
  8
Sketch020
  6
ByLayer
 62
    1
370
   -1
100
AcDbSpline
210
0
220
0
230
0
 70
    8
 71
    3
 72
    8
 73
    4
 74
    0
 42
1e-07
 43
1e-07
 40
0
 40
0
 40
0
 40
0
 40
1
 40
1
 40
1
 40
1
 10
32.7887
 20
1.08062
 30
0
 10
32.7887
 20
1.40399
 30
0
 10
33.0178
 20
1.53877
 30
0
 10
33.293
 20
1.53877
 30
0
  0
SPLINE
  5
195
100
AcDbEntity
  8
Sketch020
  6
ByLayer
 62
    1
370
   -1
100
AcDbSpline
210
0
220
0
230
0
 70
    8
 71
    1
 72
    4
 73
    2
 74
    0
 42
1e-07
 43
1e-07
 40
0
 40
0
 40
7.64
 40
7.64
 10
33.293
 20
1.53877
 30
0
 10
33.6569
 20
1.53877
 30
0
  0
SPLINE
  5
196
100
AcDbEntity
  8
Sketch020
  6
ByLayer
 62
    1
370
   -1
100
AcDbSpline
210
0
220
0
230
0
 70
    8
 71
    2
 72
    6
 73
    3
 74
    0
 42
1e-07
 43
1e-07
 40
0
 40
0
 40
0
 40
1
 40
1
 40
1
 10
33.6569
 20
1.53877
 30
0
 10
33.7218
 20
1.53865
 30
0
 10
33.7217
 20
1.60354
 30
0
  0
SPLINE
  5
197
100
AcDbEntity
  8
Sketch020
  6
ByLayer
 62
    1
370
   -1
100
AcDbSpline
210
0
220
0
230
0
 70
    8
 71
    2
 72
    6
 73
    3
 74
    0
 42
1e-07
 43
1e-07
 40
0
 40
0
 40
0
 40
1
 40
1
 40
1
 10
33.7217
 20
1.60354
 30
0
 10
33.7198
 20
1.63462
 30
0
 10
33.7136
 20
1.64926
 30
0
  0
SPLINE
  5
198
100
AcDbEntity
  8
Sketch020
  6
ByLayer
 62
    1
370
   -1
100
AcDbSpline
210
0
220
0
230
0
 70
    8
 71
    1
 72
    4
 73
    2
 74
    0
 42
1e-07
 43
1e-07
 40
0
 40
0
 40
7.46774
 40
7.46774
 10
33.7136
 20
1.64926
 30
0
 10
34.0689
 20
1.66545
 30
0
  0
SPLINE
  5
199
100
AcDbEntity
  8
Sketch020
  6
ByLayer
 62
    1
370
   -1
100
AcDbSpline
210
0
220
0
230
0
 70
    8
 71
    3
 72
    8
 73
    4
 74
    0
 42
1e-07
 43
1e-07
 40
0
 40
0
 40
0
 40
0
 40
1
 40
1
 40
1
 40
1
 10
33.2059
 20
2.53509
 30
0
 10
33.133
 20
2.53509
 30
0
 10
33.0792
 20
2.49461
 30
0
 10
33.0792
 20
2.40031
 30
0
  0
SPLINE
  5
19A
100
AcDbEntity
  8
Sketch020
  6
ByLayer
 62
    1
370
   -1
100
AcDbSpline
210
0
220
0
230
0
 70
    8
 71
    3
 72
    8
 73
    4
 74
    0
 42
1e-07
 43
1e-07
 40
0
 40
0
 40
0
 40
0
 40
1
 40
1
 40
1
 40
1
 10
33.0792
 20
2.40031
 30
0
 10
33.0792
 20
2.30839
 30
0
 10
33.1197
 20
2.26553
 30
0
 10
33.1711
 20
2.26553
 30
0
  0
SPLINE
  5
19B
100
AcDbEntity
  8
Sketch020
  6
ByLayer
 62
    1
370
   -1
100
AcDbSpline
210
0
220
0
230
0
 70
    8
 71
    3
 72
    8
 73
    4
 74
    0
 42
1e-07
 43
1e-07
 40
0
 40
0
 40
0
 40
0
 40
1
 40
1
 40
1
 40
1
 10
33.1711
 20
2.26553
 30
0
 10
33.3869
 20
2.26553
 30
0
 10
33.2007
 20
2.988
 30
0
 10
33.6941
 20
2.988
 30
0
  0
SPLINE
  5
19C
100
AcDbEntity
  8
Sketch020
  6
ByLayer
 62
    1
370
   -1
100
AcDbSpline
210
0
220
0
230
0
 70
    8
 71
    3
 72
    8
 73
    4
 74
    0
 42
1e-07
 43
1e-07
 40
0
 40
0
 40
0
 40
0
 40
1
 40
1
 40
1
 40
1
 10
33.6941
 20
2.988
 30
0
 10
33.9231
 20
2.988
 30
0
 10
34.0931
 20
2.78845
 30
0
 10
34.0931
 20
2.40555
 30
0
  0
SPLINE
  5
19D
100
AcDbEntity
  8
Sketch020
  6
ByLayer
 62
    1
370
   -1
100
AcDbSpline
210
0
220
0
230
0
 70
    8
 71
    3
 72
    8
 73
    4
 74
    0
 42
1e-07
 43
1e-07
 40
0
 40
0
 40
0
 40
0
 40
1
 40
1
 40
1
 40
1
 10
34.0931
 20
2.40555
 30
0
 10
34.0931
 20
1.95549
 30
0
 10
33.9046
 20
1.77166
 30
0
 10
33.9046
 20
1.77166
 30
0
  0
SPLINE
  5
19E
100
AcDbEntity
  8
Sketch020
  6
ByLayer
 62
    1
370
   -1
100
AcDbSpline
210
0
220
0
230
0
 70
    8
 71
    1
 72
    4
 73
    2
 74
    0
 42
1e-07
 43
1e-07
 40
0
 40
0
 40
7.17948
 40
7.17948
 10
33.9046
 20
1.77166
 30
0
 10
33.6269
 20
1.97121
 30
0
  0
SPLINE
  5
19F
100
AcDbEntity
  8
Sketch020
  6
ByLayer
 62
    1
370
   -1
100
AcDbSpline
210
0
220
0
230
0
 70
    8
 71
    3
 72
    8
 73
    4
 74
    0
 42
1e-07
 43
1e-07
 40
0
 40
0
 40
0
 40
0
 40
1
 40
1
 40
1
 40
1
 10
33.6269
 20
1.97121
 30
0
 10
33.6269
 20
1.97121
 30
0
 10
33.7831
 20
2.18695
 30
0
 10
33.7831
 20
2.3784
 30
0
  0
SPLINE
  5
1A0
100
AcDbEntity
  8
Sketch020
  6
ByLayer
 62
    1
370
   -1
100
AcDbSpline
210
0
220
0
230
0
 70
    8
 71
    2
 72
    6
 73
    3
 74
    0
 42
1e-07
 43
1e-07
 40
0
 40
0
 40
0
 40
1
 40
1
 40
1
 10
33.7831
 20
2.3784
 30
0
 10
33.7845
 20
2.49187
 30
0
 10
33.7374
 20
2.49175
 30
0
  0
SPLINE
  5
1A1
100
AcDbEntity
  8
Sketch020
  6
ByLayer
 62
    1
370
   -1
100
AcDbSpline
210
0
220
0
230
0
 70
    8
 71
    3
 72
    8
 73
    4
 74
    0
 42
1e-07
 43
1e-07
 40
0
 40
0
 40
0
 40
0
 40
1
 40
1
 40
1
 40
1
 10
33.7374
 20
2.49175
 30
0
 10
33.5864
 20
2.49175
 30
0
 10
33.6726
 20
1.83119
 30
0
 10
33.2145
 20
1.83119
 30
0
  0
SPLINE
  5
1A2
100
AcDbEntity
  8
Sketch020
  6
ByLayer
 62
    1
370
   -1
100
AcDbSpline
210
0
220
0
230
0
 70
    8
 71
    3
 72
    8
 73
    4
 74
    0
 42
1e-07
 43
1e-07
 40
0
 40
0
 40
0
 40
0
 40
1
 40
1
 40
1
 40
1
 10
33.2145
 20
1.83119
 30
0
 10
32.934
 20
1.83119
 30
0
 10
32.7887
 20
2.06312
 30
0
 10
32.7887
 20
2.41888
 30
0
  0
SPLINE
  5
1A3
100
AcDbEntity
  8
Sketch020
  6
ByLayer
 62
    1
370
   -1
100
AcDbSpline
210
0
220
0
230
0
 70
    8
 71
    3
 72
    8
 73
    4
 74
    0
 42
1e-07
 43
1e-07
 40
0
 40
0
 40
0
 40
0
 40
1
 40
1
 40
1
 40
1
 10
32.7887
 20
2.41888
 30
0
 10
32.7887
 20
2.73416
 30
0
 10
32.9316
 20
2.96085
 30
0
 10
33.134
 20
2.96085
 30
0
  0
SPLINE
  5
1A4
100
AcDbEntity
  8
Sketch020
  6
ByLayer
 62
    1
370
   -1
100
AcDbSpline
210
0
220
0
230
0
 70
    8
 71
    3
 72
    8
 73
    4
 74
    0
 42
1e-07
 43
1e-07
 40
0
 40
0
 40
0
 40
0
 40
1
 40
1
 40
1
 40
1
 10
33.134
 20
2.96085
 30
0
 10
33.1849
 20
2.96085
 30
0
 10
33.2173
 20
2.9499
 30
0
 10
33.2173
 20
2.9499
 30
0
  0
SPLINE
  5
1A5
100
AcDbEntity
  8
Sketch020
  6
ByLayer
 62
    1
370
   -1
100
AcDbSpline
210
0
220
0
230
0
 70
    8
 71
    1
 72
    4
 73
    2
 74
    0
 42
1e-07
 43
1e-07
 40
0
 40
0
 40
8.78154
 40
8.78154
 10
33.2173
 20
2.9499
 30
0
 10
33.2388
 20
2.53223
 30
0
  0
SPLINE
  5
1A6
100
AcDbEntity
  8
Sketch020
  6
ByLayer
 62
    1
370
   -1
100
AcDbSpline
210
0
220
0
230
0
 70
    8
 71
    2
 72
    6
 73
    3
 74
    0
 42
1e-07
 43
1e-07
 40
0
 40
0
 40
0
 40
1
 40
1
 40
1
 10
33.2388
 20
2.53223
 30
0
 10
33.2363
 20
2.53401
 30
0
 10
33.2059
 20
2.53509
 30
0
  0
SPLINE
  5
1A7
100
AcDbEntity
  8
Sketch020
  6
ByLayer
 62
    1
370
   -1
100
AcDbSpline
210
0
220
0
230
0
 70
    8
 71
    3
 72
    8
 73
    4
 74
    0
 42
1e-07
 43
1e-07
 40
0
 40
0
 40
0
 40
0
 40
1
 40
1
 40
1
 40
1
 10
27.6452
 20
-5.47068
 30
0
 10
26.8389
 20
-5.55307
 30
0
 10
26.3441
 20
-4.7444
 30
0
 10
26.3684
 20
-4.0205
 30
0
  0
SPLINE
  5
1A8
100
AcDbEntity
  8
Sketch020
  6
ByLayer
 62
    1
370
   -1
100
AcDbSpline
210
0
220
0
230
0
 70
    8
 71
    3
 72
    8
 73
    4
 74
    0
 42
1e-07
 43
1e-07
 40
0
 40
0
 40
0
 40
0
 40
1
 40
1
 40
1
 40
1
 10
26.3684
 20
-4.0205
 30
0
 10
26.3931
 20
-3.29088
 30
0
 10
26.9646
 20
-2.68461
 30
0
 10
27.6357
 20
-2.46506
 30
0
  0
SPLINE
  5
1A9
100
AcDbEntity
  8
Sketch020
  6
ByLayer
 62
    1
370
   -1
100
AcDbSpline
210
0
220
0
230
0
 70
    8
 71
    3
 72
    8
 73
    4
 74
    0
 42
1e-07
 43
1e-07
 40
0
 40
0
 40
0
 40
0
 40
1
 40
1
 40
1
 40
1
 10
27.6357
 20
-2.46506
 30
0
 10
28.1781
 20
-2.28742
 30
0
 10
27.9462
 20
-1.42684
 30
0
 10
27.399
 20
-1.60591
 30
0
  0
SPLINE
  5
1AA
100
AcDbEntity
  8
Sketch020
  6
ByLayer
 62
    1
370
   -1
100
AcDbSpline
210
0
220
0
230
0
 70
    8
 71
    3
 72
    8
 73
    4
 74
    0
 42
1e-07
 43
1e-07
 40
0
 40
0
 40
0
 40
0
 40
1
 40
1
 40
1
 40
1
 10
27.399
 20
-1.60591
 30
0
 10
26.3231
 20
-1.95833
 30
0
 10
25.4768
 20
-2.92417
 30
0
 10
25.4764
 20
-4.08955
 30
0
  0
SPLINE
  5
1AB
100
AcDbEntity
  8
Sketch020
  6
ByLayer
 62
    1
370
   -1
100
AcDbSpline
210
0
220
0
230
0
 70
    8
 71
    3
 72
    8
 73
    4
 74
    0
 42
1e-07
 43
1e-07
 40
0
 40
0
 40
0
 40
0
 40
1
 40
1
 40
1
 40
1
 10
25.4764
 20
-4.08955
 30
0
 10
25.4764
 20
-5.24208
 30
0
 10
26.3889
 20
-6.49033
 30
0
 10
27.6452
 20
-6.36222
 30
0
  0
SPLINE
  5
1AC
100
AcDbEntity
  8
Sketch020
  6
ByLayer
 62
    1
370
   -1
100
AcDbSpline
210
0
220
0
230
0
 70
    8
 71
    3
 72
    8
 73
    4
 74
    0
 42
1e-07
 43
1e-07
 40
0
 40
0
 40
0
 40
0
 40
1
 40
1
 40
1
 40
1
 10
27.6452
 20
-6.36222
 30
0
 10
27.8848
 20
-6.33793
 30
0
 10
28.0905
 20
-6.17505
 30
0
 10
28.0905
 20
-5.91692
 30
0
  0
SPLINE
  5
1AD
100
AcDbEntity
  8
Sketch020
  6
ByLayer
 62
    1
370
   -1
100
AcDbSpline
210
0
220
0
230
0
 70
    8
 71
    3
 72
    8
 73
    4
 74
    0
 42
1e-07
 43
1e-07
 40
0
 40
0
 40
0
 40
0
 40
1
 40
1
 40
1
 40
1
 10
28.0905
 20
-5.91692
 30
0
 10
28.091
 20
-5.69404
 30
0
 10
27.8862
 20
-5.44591
 30
0
 10
27.6452
 20
-5.47068
 30
0
  0
SPLINE
  5
1AE
100
AcDbEntity
  8
Sketch020
  6
ByLayer
 62
    1
370
   -1
100
AcDbSpline
210
0
220
0
230
0
 70
    8
 71
    3
 72
    8
 73
    4
 74
    0
 42
1e-07
 43
1e-07
 40
0
 40
0
 40
0
 40
0
 40
1
 40
1
 40
1
 40
1
 10
27.8948
 20
2.17409
 30
0
 10
26.9761
 20
2.3222
 30
0
 10
26.1812
 20
3.0161
 30
0
 10
26.2241
 20
4.00527
 30
0
  0
SPLINE
  5
1AF
100
AcDbEntity
  8
Sketch020
  6
ByLayer
 62
    1
370
   -1
100
AcDbSpline
210
0
220
0
230
0
 70
    8
 71
    3
 72
    8
 73
    4
 74
    0
 42
1e-07
 43
1e-07
 40
0
 40
0
 40
0
 40
0
 40
1
 40
1
 40
1
 40
1
 10
26.2241
 20
4.00527
 30
0
 10
26.2431
 20
4.44818
 30
0
 10
26.4779
 20
4.86585
 30
0
 10
26.7413
 20
5.21018
 30
0
  0
SPLINE
  5
1B0
100
AcDbEntity
  8
Sketch020
  6
ByLayer
 62
    1
370
   -1
100
AcDbSpline
210
0
220
0
230
0
 70
    8
 71
    3
 72
    8
 73
    4
 74
    0
 42
1e-07
 43
1e-07
 40
0
 40
0
 40
0
 40
0
 40
1
 40
1
 40
1
 40
1
 10
26.7413
 20
5.21018
 30
0
 10
26.8989
 20
5.41688
 30
0
 10
27.0804
 20
5.6069
 30
0
 10
27.2632
 20
5.79121
 30
0
  0
SPLINE
  5
1B1
100
AcDbEntity
  8
Sketch020
  6
ByLayer
 62
    1
370
   -1
100
AcDbSpline
210
0
220
0
230
0
 70
    8
 71
    3
 72
    8
 73
    4
 74
    0
 42
1e-07
 43
1e-07
 40
0
 40
0
 40
0
 40
0
 40
1
 40
1
 40
1
 40
1
 10
27.2632
 20
5.79121
 30
0
 10
27.4123
 20
5.9417
 30
0
 10
27.548
 20
6.10744
 30
0
 10
27.7643
 20
6.14459
 30
0
  0
SPLINE
  5
1B2
100
AcDbEntity
  8
Sketch020
  6
ByLayer
 62
    1
370
   -1
100
AcDbSpline
210
0
220
0
230
0
 70
    8
 71
    3
 72
    8
 73
    4
 74
    0
 42
1e-07
 43
1e-07
 40
0
 40
0
 40
0
 40
0
 40
1
 40
1
 40
1
 40
1
 10
27.7643
 20
6.14459
 30
0
 10
28.0014
 20
6.18507
 30
0
 10
28.1348
 20
6.47701
 30
0
 10
28.0753
 20
6.69275
 30
0
  0
SPLINE
  5
1B3
100
AcDbEntity
  8
Sketch020
  6
ByLayer
 62
    1
370
   -1
100
AcDbSpline
210
0
220
0
230
0
 70
    8
 71
    3
 72
    8
 73
    4
 74
    0
 42
1e-07
 43
1e-07
 40
0
 40
0
 40
0
 40
0
 40
1
 40
1
 40
1
 40
1
 10
28.0753
 20
6.69275
 30
0
 10
28.0062
 20
6.94373
 30
0
 10
27.7652
 20
7.0447
 30
0
 10
27.5271
 20
7.00374
 30
0
  0
SPLINE
  5
1B4
100
AcDbEntity
  8
Sketch020
  6
ByLayer
 62
    1
370
   -1
100
AcDbSpline
210
0
220
0
230
0
 70
    8
 71
    3
 72
    8
 73
    4
 74
    0
 42
1e-07
 43
1e-07
 40
0
 40
0
 40
0
 40
0
 40
1
 40
1
 40
1
 40
1
 10
27.5271
 20
7.00374
 30
0
 10
27.2004
 20
6.94754
 30
0
 10
26.9442
 20
6.72847
 30
0
 10
26.7151
 20
6.50273
 30
0
  0
SPLINE
  5
1B5
100
AcDbEntity
  8
Sketch020
  6
ByLayer
 62
    1
370
   -1
100
AcDbSpline
210
0
220
0
230
0
 70
    8
 71
    2
 72
    6
 73
    3
 74
    0
 42
1e-07
 43
1e-07
 40
0
 40
0
 40
0
 40
1
 40
1
 40
1
 10
26.7151
 20
6.50273
 30
0
 10
26.3787
 20
6.17614
 30
0
 10
26.0874
 20
5.80883
 30
0
  0
SPLINE
  5
1B6
100
AcDbEntity
  8
Sketch020
  6
ByLayer
 62
    1
370
   -1
100
AcDbSpline
210
0
220
0
230
0
 70
    8
 71
    3
 72
    8
 73
    4
 74
    0
 42
1e-07
 43
1e-07
 40
0
 40
0
 40
0
 40
0
 40
1
 40
1
 40
1
 40
1
 10
26.0874
 20
5.80883
 30
0
 10
25.6759
 20
5.284
 30
0
 10
25.363
 20
4.68345
 30
0
 10
25.333
 20
4.00479
 30
0
  0
SPLINE
  5
1B7
100
AcDbEntity
  8
Sketch020
  6
ByLayer
 62
    1
370
   -1
100
AcDbSpline
210
0
220
0
230
0
 70
    8
 71
    3
 72
    8
 73
    4
 74
    0
 42
1e-07
 43
1e-07
 40
0
 40
0
 40
0
 40
0
 40
1
 40
1
 40
1
 40
1
 10
25.333
 20
4.00479
 30
0
 10
25.2735
 20
2.65224
 30
0
 10
26.3641
 20
1.52306
 30
0
 10
27.6581
 20
1.31446
 30
0
  0
SPLINE
  5
1B8
100
AcDbEntity
  8
Sketch020
  6
ByLayer
 62
    1
370
   -1
100
AcDbSpline
210
0
220
0
230
0
 70
    8
 71
    3
 72
    8
 73
    4
 74
    0
 42
1e-07
 43
1e-07
 40
0
 40
0
 40
0
 40
0
 40
1
 40
1
 40
1
 40
1
 10
27.6581
 20
1.31446
 30
0
 10
27.8952
 20
1.27636
 30
0
 10
28.1376
 20
1.37589
 30
0
 10
28.2062
 20
1.62545
 30
0
  0
SPLINE
  5
1B9
100
AcDbEntity
  8
Sketch020
  6
ByLayer
 62
    1
370
   -1
100
AcDbSpline
210
0
220
0
230
0
 70
    8
 71
    3
 72
    8
 73
    4
 74
    0
 42
1e-07
 43
1e-07
 40
0
 40
0
 40
0
 40
0
 40
1
 40
1
 40
1
 40
1
 10
28.2062
 20
1.62545
 30
0
 10
28.2643
 20
1.83833
 30
0
 10
28.1334
 20
2.13551
 30
0
 10
27.8948
 20
2.17409
 30
0
  0
SPLINE
  5
1BA
100
AcDbEntity
  8
Sketch020
  6
ByLayer
 62
    1
370
   -1
100
AcDbSpline
210
0
220
0
230
0
 70
    8
 71
    2
 72
    6
 73
    3
 74
    0
 42
1e-07
 43
1e-07
 40
0
 40
0
 40
0
 40
1
 40
1
 40
1
 10
26.85
 20
3.37508
 30
0
 10
26.8494
 20
3.27636
 30
0
 10
26.8808
 20
3.18328
 30
0
  0
SPLINE
  5
1BB
100
AcDbEntity
  8
Sketch020
  6
ByLayer
 62
    1
370
   -1
100
AcDbSpline
210
0
220
0
230
0
 70
    8
 71
    3
 72
    8
 73
    4
 74
    0
 42
1e-07
 43
1e-07
 40
0
 40
0
 40
0
 40
0
 40
1
 40
1
 40
1
 40
1
 10
26.8808
 20
3.18328
 30
0
 10
26.9335
 20
3.03092
 30
0
 10
27.038
 20
2.90513
 30
0
 10
27.1726
 20
2.82451
 30
0
  0
SPLINE
  5
1BC
100
AcDbEntity
  8
Sketch020
  6
ByLayer
 62
    1
370
   -1
100
AcDbSpline
210
0
220
0
230
0
 70
    8
 71
    2
 72
    6
 73
    3
 74
    0
 42
1e-07
 43
1e-07
 40
0
 40
0
 40
0
 40
1
 40
1
 40
1
 10
27.1726
 20
2.82451
 30
0
 10
27.2217
 20
2.79381
 30
0
 10
27.276
 20
2.77428
 30
0
  0
SPLINE
  5
1BD
100
AcDbEntity
  8
Sketch020
  6
ByLayer
 62
    1
370
   -1
100
AcDbSpline
210
0
220
0
230
0
 70
    8
 71
    2
 72
    6
 73
    3
 74
    0
 42
1e-07
 43
1e-07
 40
0
 40
0
 40
0
 40
1
 40
1
 40
1
 10
27.276
 20
2.77428
 30
0
 10
27.3213
 20
2.75646
 30
0
 10
27.3695
 20
2.74508
 30
0
  0
SPLINE
  5
1BE
100
AcDbEntity
  8
Sketch020
  6
ByLayer
 62
    1
370
   -1
100
AcDbSpline
210
0
220
0
230
0
 70
    8
 71
    3
 72
    8
 73
    4
 74
    0
 42
1e-07
 43
1e-07
 40
0
 40
0
 40
0
 40
0
 40
1
 40
1
 40
1
 40
1
 10
27.3695
 20
2.74508
 30
0
 10
27.5957
 20
2.69269
 30
0
 10
27.8343
 20
2.74849
 30
0
 10
27.9953
 20
2.92041
 30
0
  0
SPLINE
  5
1BF
100
AcDbEntity
  8
Sketch020
  6
ByLayer
 62
    1
370
   -1
100
AcDbSpline
210
0
220
0
230
0
 70
    8
 71
    2
 72
    6
 73
    3
 74
    0
 42
1e-07
 43
1e-07
 40
0
 40
0
 40
0
 40
1
 40
1
 40
1
 10
27.9953
 20
2.92041
 30
0
 10
28.0503
 20
2.97964
 30
0
 10
28.0852
 20
3.04896
 30
0
  0
SPLINE
  5
1C0
100
AcDbEntity
  8
Sketch020
  6
ByLayer
 62
    1
370
   -1
100
AcDbSpline
210
0
220
0
230
0
 70
    8
 71
    2
 72
    6
 73
    3
 74
    0
 42
1e-07
 43
1e-07
 40
0
 40
0
 40
0
 40
1
 40
1
 40
1
 10
28.0852
 20
3.04896
 30
0
 10
28.1374
 20
3.12524
 30
0
 10
28.1648
 20
3.21705
 30
0
  0
SPLINE
  5
1C1
100
AcDbEntity
  8
Sketch020
  6
ByLayer
 62
    1
370
   -1
100
AcDbSpline
210
0
220
0
230
0
 70
    8
 71
    3
 72
    8
 73
    4
 74
    0
 42
1e-07
 43
1e-07
 40
0
 40
0
 40
0
 40
0
 40
1
 40
1
 40
1
 40
1
 10
28.1648
 20
3.21705
 30
0
 10
28.2348
 20
3.45612
 30
0
 10
28.1524
 20
3.72948
 30
0
 10
27.9686
 20
3.89617
 30
0
  0
SPLINE
  5
1C2
100
AcDbEntity
  8
Sketch020
  6
ByLayer
 62
    1
370
   -1
100
AcDbSpline
210
0
220
0
230
0
 70
    8
 71
    3
 72
    8
 73
    4
 74
    0
 42
1e-07
 43
1e-07
 40
0
 40
0
 40
0
 40
0
 40
1
 40
1
 40
1
 40
1
 10
27.9686
 20
3.89617
 30
0
 10
27.7114
 20
4.12858
 30
0
 10
27.3485
 20
4.10911
 30
0
 10
27.0899
 20
3.89384
 30
0
  0
SPLINE
  5
1C3
100
AcDbEntity
  8
Sketch020
  6
ByLayer
 62
    1
370
   -1
100
AcDbSpline
210
0
220
0
230
0
 70
    8
 71
    3
 72
    8
 73
    4
 74
    0
 42
1e-07
 43
1e-07
 40
0
 40
0
 40
0
 40
0
 40
1
 40
1
 40
1
 40
1
 10
27.0899
 20
3.89384
 30
0
 10
26.9417
 20
3.77061
 30
0
 10
26.8505
 20
3.57105
 30
0
 10
26.85
 20
3.37508
 30
0
  0
SPLINE
  5
1C4
100
AcDbEntity
  8
Sketch020
  6
ByLayer
 62
    1
370
   -1
100
AcDbSpline
210
0
220
0
230
0
 70
    8
 71
    1
 72
    4
 73
    2
 74
    0
 42
1e-07
 43
1e-07
 40
0
 40
0
 40
3e-05
 40
3e-05
 10
26.85
 20
3.37508
 30
0
 10
26.85
 20
3.37508
 30
0
  0
SPLINE
  5
1C5
100
AcDbEntity
  8
Sketch020
  6
ByLayer
 62
    1
370
   -1
100
AcDbSpline
210
0
220
0
230
0
 70
    8
 71
    3
 72
    8
 73
    4
 74
    0
 42
1e-07
 43
1e-07
 40
0
 40
0
 40
0
 40
0
 40
1
 40
1
 40
1
 40
1
 10
26.7438
 20
-4.82488
 30
0
 10
26.7363
 20
-5.02364
 30
0
 10
26.8511
 20
-5.2493
 30
0
 10
27.0661
 20
-5.28681
 30
0
  0
SPLINE
  5
1C6
100
AcDbEntity
  8
Sketch020
  6
ByLayer
 62
    1
370
   -1
100
AcDbSpline
210
0
220
0
230
0
 70
    8
 71
    3
 72
    8
 73
    4
 74
    0
 42
1e-07
 43
1e-07
 40
0
 40
0
 40
0
 40
0
 40
1
 40
1
 40
1
 40
1
 10
27.0661
 20
-5.28681
 30
0
 10
27.3509
 20
-5.33681
 30
0
 10
27.6137
 20
-5.30545
 30
0
 10
27.8714
 20
-5.16877
 30
0
  0
SPLINE
  5
1C7
100
AcDbEntity
  8
Sketch020
  6
ByLayer
 62
    1
370
   -1
100
AcDbSpline
210
0
220
0
230
0
 70
    8
 71
    3
 72
    8
 73
    4
 74
    0
 42
1e-07
 43
1e-07
 40
0
 40
0
 40
0
 40
0
 40
1
 40
1
 40
1
 40
1
 10
27.8714
 20
-5.16877
 30
0
 10
27.9638
 20
-5.11971
 30
0
 10
28.0529
 20
-5.00447
 30
0
 10
28.0762
 20
-4.90255
 30
0
  0
SPLINE
  5
1C8
100
AcDbEntity
  8
Sketch020
  6
ByLayer
 62
    1
370
   -1
100
AcDbSpline
210
0
220
0
230
0
 70
    8
 71
    2
 72
    6
 73
    3
 74
    0
 42
1e-07
 43
1e-07
 40
0
 40
0
 40
0
 40
1
 40
1
 40
1
 10
28.0762
 20
-4.90255
 30
0
 10
28.101
 20
-4.79046
 30
0
 10
28.0767
 20
-4.68926
 30
0
  0
SPLINE
  5
1C9
100
AcDbEntity
  8
Sketch020
  6
ByLayer
 62
    1
370
   -1
100
AcDbSpline
210
0
220
0
230
0
 70
    8
 71
    3
 72
    8
 73
    4
 74
    0
 42
1e-07
 43
1e-07
 40
0
 40
0
 40
0
 40
0
 40
1
 40
1
 40
1
 40
1
 10
28.0767
 20
-4.68926
 30
0
 10
28.1116
 20
-4.53022
 30
0
 10
28.0878
 20
-4.35554
 30
0
 10
27.9976
 20
-4.20817
 30
0
  0
SPLINE
  5
1CA
100
AcDbEntity
  8
Sketch020
  6
ByLayer
 62
    1
370
   -1
100
AcDbSpline
210
0
220
0
230
0
 70
    8
 71
    3
 72
    8
 73
    4
 74
    0
 42
1e-07
 43
1e-07
 40
0
 40
0
 40
0
 40
0
 40
1
 40
1
 40
1
 40
1
 10
27.9976
 20
-4.20817
 30
0
 10
27.7523
 20
-3.80765
 30
0
 10
27.1652
 20
-3.84567
 30
0
 10
26.9128
 20
-4.21143
 30
0
  0
SPLINE
  5
1CB
100
AcDbEntity
  8
Sketch020
  6
ByLayer
 62
    1
370
   -1
100
AcDbSpline
210
0
220
0
230
0
 70
    8
 71
    3
 72
    8
 73
    4
 74
    0
 42
1e-07
 43
1e-07
 40
0
 40
0
 40
0
 40
0
 40
1
 40
1
 40
1
 40
1
 10
26.9128
 20
-4.21143
 30
0
 10
26.83
 20
-4.33136
 30
0
 10
26.8003
 20
-4.47467
 30
0
 10
26.812
 20
-4.61662
 30
0
  0
SPLINE
  5
1CC
100
AcDbEntity
  8
Sketch020
  6
ByLayer
 62
    1
370
   -1
100
AcDbSpline
210
0
220
0
230
0
 70
    8
 71
    2
 72
    6
 73
    3
 74
    0
 42
1e-07
 43
1e-07
 40
0
 40
0
 40
0
 40
1
 40
1
 40
1
 10
26.812
 20
-4.61662
 30
0
 10
26.7705
 20
-4.67664
 30
0
 10
26.7546
 20
-4.742
 30
0
  0
SPLINE
  5
1CD
100
AcDbEntity
  8
Sketch020
  6
ByLayer
 62
    1
370
   -1
100
AcDbSpline
210
0
220
0
230
0
 70
    8
 71
    2
 72
    6
 73
    3
 74
    0
 42
1e-07
 43
1e-07
 40
0
 40
0
 40
0
 40
1
 40
1
 40
1
 10
26.7546
 20
-4.742
 30
0
 10
26.7454
 20
-4.78215
 30
0
 10
26.7438
 20
-4.82488
 30
0
  0
SPLINE
  5
1CE
100
AcDbEntity
  8
Sketch020
  6
ByLayer
 62
    1
370
   -1
100
AcDbSpline
210
0
220
0
230
0
 70
    8
 71
    1
 72
    4
 73
    2
 74
    0
 42
1e-07
 43
1e-07
 40
0
 40
0
 40
0.000233452
 40
0.000233452
 10
26.7438
 20
-4.82488
 30
0
 10
26.7438
 20
-4.82488
 30
0
  0
SPLINE
  5
1CF
100
AcDbEntity
  8
Sketch020
  6
ByLayer
 62
    1
370
   -1
100
AcDbSpline
210
0
220
0
230
0
 70
    8
 71
    3
 72
    8
 73
    4
 74
    0
 42
1e-07
 43
1e-07
 40
0
 40
0
 40
0
 40
0
 40
1
 40
1
 40
1
 40
1
 10
24.9544
 20
-5.82072
 30
0
 10
24.1376
 20
-4.63962
 30
0
 10
23.94
 20
-3.05514
 30
0
 10
24.5281
 20
-1.72973
 30
0
  0
SPLINE
  5
1D0
100
AcDbEntity
  8
Sketch020
  6
ByLayer
 62
    1
370
   -1
100
AcDbSpline
210
0
220
0
230
0
 70
    8
 71
    3
 72
    8
 73
    4
 74
    0
 42
1e-07
 43
1e-07
 40
0
 40
0
 40
0
 40
0
 40
1
 40
1
 40
1
 40
1
 10
24.5281
 20
-1.72973
 30
0
 10
24.6258
 20
-1.51018
 30
0
 10
24.592
 20
-1.2511
 30
0
 10
24.3681
 20
-1.12013
 30
0
  0
SPLINE
  5
1D1
100
AcDbEntity
  8
Sketch020
  6
ByLayer
 62
    1
370
   -1
100
AcDbSpline
210
0
220
0
230
0
 70
    8
 71
    3
 72
    8
 73
    4
 74
    0
 42
1e-07
 43
1e-07
 40
0
 40
0
 40
0
 40
0
 40
1
 40
1
 40
1
 40
1
 10
24.3681
 20
-1.12013
 30
0
 10
24.1786
 20
-1.00917
 30
0
 10
23.8566
 20
-1.0587
 30
0
 10
23.7585
 20
-1.28015
 30
0
  0
SPLINE
  5
1D2
100
AcDbEntity
  8
Sketch020
  6
ByLayer
 62
    1
370
   -1
100
AcDbSpline
210
0
220
0
230
0
 70
    8
 71
    3
 72
    8
 73
    4
 74
    0
 42
1e-07
 43
1e-07
 40
0
 40
0
 40
0
 40
0
 40
1
 40
1
 40
1
 40
1
 10
23.7585
 20
-1.28015
 30
0
 10
23.0441
 20
-2.88988
 30
0
 10
23.1751
 20
-4.81012
 30
0
 10
24.1848
 20
-6.27078
 30
0
  0
SPLINE
  5
1D3
100
AcDbEntity
  8
Sketch020
  6
ByLayer
 62
    1
370
   -1
100
AcDbSpline
210
0
220
0
230
0
 70
    8
 71
    3
 72
    8
 73
    4
 74
    0
 42
1e-07
 43
1e-07
 40
0
 40
0
 40
0
 40
0
 40
1
 40
1
 40
1
 40
1
 10
24.1848
 20
-6.27078
 30
0
 10
24.3215
 20
-6.46842
 30
0
 10
24.5753
 20
-6.55843
 30
0
 10
24.7944
 20
-6.4308
 30
0
  0
SPLINE
  5
1D4
100
AcDbEntity
  8
Sketch020
  6
ByLayer
 62
    1
370
   -1
100
AcDbSpline
210
0
220
0
230
0
 70
    8
 71
    3
 72
    8
 73
    4
 74
    0
 42
1e-07
 43
1e-07
 40
0
 40
0
 40
0
 40
0
 40
1
 40
1
 40
1
 40
1
 10
24.7944
 20
-6.4308
 30
0
 10
24.9906
 20
-6.31554
 30
0
 10
25.092
 20
-6.01932
 30
0
 10
24.9544
 20
-5.82072
 30
0
  0
SPLINE
  5
1D5
100
AcDbEntity
  8
Sketch020
  6
ByLayer
 62
    1
370
   -1
100
AcDbSpline
210
0
220
0
230
0
 70
    8
 71
    3
 72
    8
 73
    4
 74
    0
 42
1e-07
 43
1e-07
 40
0
 40
0
 40
0
 40
0
 40
1
 40
1
 40
1
 40
1
 10
24.4477
 20
1.36589
 30
0
 10
24.1229
 20
1.92025
 30
0
 10
24.0047
 20
2.55604
 30
0
 10
24.1186
 20
3.19041
 30
0
  0
SPLINE
  5
1D6
100
AcDbEntity
  8
Sketch020
  6
ByLayer
 62
    1
370
   -1
100
AcDbSpline
210
0
220
0
230
0
 70
    8
 71
    3
 72
    8
 73
    4
 74
    0
 42
1e-07
 43
1e-07
 40
0
 40
0
 40
0
 40
0
 40
1
 40
1
 40
1
 40
1
 10
24.1186
 20
3.19041
 30
0
 10
24.2453
 20
3.89478
 30
0
 10
24.4891
 20
4.58534
 30
0
 10
24.6867
 20
5.2721
 30
0
  0
SPLINE
  5
1D7
100
AcDbEntity
  8
Sketch020
  6
ByLayer
 62
    1
370
   -1
100
AcDbSpline
210
0
220
0
230
0
 70
    8
 71
    3
 72
    8
 73
    4
 74
    0
 42
1e-07
 43
1e-07
 40
0
 40
0
 40
0
 40
0
 40
1
 40
1
 40
1
 40
1
 10
24.6867
 20
5.2721
 30
0
 10
24.8458
 20
5.82407
 30
0
 10
23.9862
 20
6.05981
 30
0
 10
23.8276
 20
5.50879
 30
0
  0
SPLINE
  5
1D8
100
AcDbEntity
  8
Sketch020
  6
ByLayer
 62
    1
370
   -1
100
AcDbSpline
210
0
220
0
230
0
 70
    8
 71
    3
 72
    8
 73
    4
 74
    0
 42
1e-07
 43
1e-07
 40
0
 40
0
 40
0
 40
0
 40
1
 40
1
 40
1
 40
1
 10
23.8276
 20
5.50879
 30
0
 10
23.6028
 20
4.72822
 30
0
 10
23.3166
 20
3.94002
 30
0
 10
23.2146
 20
3.13135
 30
0
  0
SPLINE
  5
1D9
100
AcDbEntity
  8
Sketch020
  6
ByLayer
 62
    1
370
   -1
100
AcDbSpline
210
0
220
0
230
0
 70
    8
 71
    3
 72
    8
 73
    4
 74
    0
 42
1e-07
 43
1e-07
 40
0
 40
0
 40
0
 40
0
 40
1
 40
1
 40
1
 40
1
 10
23.2146
 20
3.13135
 30
0
 10
23.1175
 20
2.36078
 30
0
 10
23.2856
 20
1.58544
 30
0
 10
23.678
 20
0.916313
 30
0
  0
SPLINE
  5
1DA
100
AcDbEntity
  8
Sketch020
  6
ByLayer
 62
    1
370
   -1
100
AcDbSpline
210
0
220
0
230
0
 70
    8
 71
    3
 72
    8
 73
    4
 74
    0
 42
1e-07
 43
1e-07
 40
0
 40
0
 40
0
 40
0
 40
1
 40
1
 40
1
 40
1
 10
23.678
 20
0.916313
 30
0
 10
23.9681
 20
0.421965
 30
0
 10
24.7386
 20
0.86964
 30
0
 10
24.4477
 20
1.36589
 30
0
  0
SPLINE
  5
1DB
100
AcDbEntity
  8
Sketch020
  6
ByLayer
 62
    1
370
   -1
100
AcDbSpline
210
0
220
0
230
0
 70
    8
 71
    2
 72
    6
 73
    3
 74
    0
 42
1e-07
 43
1e-07
 40
0
 40
0
 40
0
 40
1
 40
1
 40
1
 10
19.2864
 20
5.38836
 30
0
 10
19.2783
 20
5.3077
 30
0
 10
19.3085
 20
5.21637
 30
0
  0
SPLINE
  5
1DC
100
AcDbEntity
  8
Sketch020
  6
ByLayer
 62
    1
370
   -1
100
AcDbSpline
210
0
220
0
230
0
 70
    8
 71
    2
 72
    6
 73
    3
 74
    0
 42
1e-07
 43
1e-07
 40
0
 40
0
 40
0
 40
1
 40
1
 40
1
 10
19.3085
 20
5.21637
 30
0
 10
19.5223
 20
4.58678
 30
0
 10
19.7323
 20
3.95551
 30
0
  0
SPLINE
  5
1DD
100
AcDbEntity
  8
Sketch020
  6
ByLayer
 62
    1
370
   -1
100
AcDbSpline
210
0
220
0
230
0
 70
    8
 71
    3
 72
    8
 73
    4
 74
    0
 42
1e-07
 43
1e-07
 40
0
 40
0
 40
0
 40
0
 40
1
 40
1
 40
1
 40
1
 10
19.7323
 20
3.95551
 30
0
 10
19.7852
 20
3.33209
 30
0
 10
19.8656
 20
2.70941
 30
0
 10
19.9451
 20
2.08874
 30
0
  0
SPLINE
  5
1DE
100
AcDbEntity
  8
Sketch020
  6
ByLayer
 62
    1
370
   -1
100
AcDbSpline
210
0
220
0
230
0
 70
    8
 71
    3
 72
    8
 73
    4
 74
    0
 42
1e-07
 43
1e-07
 40
0
 40
0
 40
0
 40
0
 40
1
 40
1
 40
1
 40
1
 10
19.9451
 20
2.08874
 30
0
 10
19.7376
 20
-0.880204
 30
0
 10
19.7636
 20
-3.86233
 30
0
 10
19.7923
 20
-6.83797
 30
0
  0
SPLINE
  5
1DF
100
AcDbEntity
  8
Sketch020
  6
ByLayer
 62
    1
370
   -1
100
AcDbSpline
210
0
220
0
230
0
 70
    8
 71
    2
 72
    6
 73
    3
 74
    0
 42
1e-07
 43
1e-07
 40
0
 40
0
 40
0
 40
1
 40
1
 40
1
 10
19.7923
 20
-6.83797
 30
0
 10
19.7966
 20
-6.97879
 30
0
 10
19.8717
 20
-7.07805
 30
0
  0
SPLINE
  5
1E0
100
AcDbEntity
  8
Sketch020
  6
ByLayer
 62
    1
370
   -1
100
AcDbSpline
210
0
220
0
230
0
 70
    8
 71
    2
 72
    6
 73
    3
 74
    0
 42
1e-07
 43
1e-07
 40
0
 40
0
 40
0
 40
1
 40
1
 40
1
 10
19.8717
 20
-7.07805
 30
0
 10
19.734
 20
-7.12253
 30
0
 10
19.647
 20
-7.26324
 30
0
  0
SPLINE
  5
1E1
100
AcDbEntity
  8
Sketch020
  6
ByLayer
 62
    1
370
   -1
100
AcDbSpline
210
0
220
0
230
0
 70
    8
 71
    3
 72
    8
 73
    4
 74
    0
 42
1e-07
 43
1e-07
 40
0
 40
0
 40
0
 40
0
 40
1
 40
1
 40
1
 40
1
 10
19.647
 20
-7.26324
 30
0
 10
19.5346
 20
-7.45327
 30
0
 10
19.5847
 20
-7.7743
 30
0
 10
19.8056
 20
-7.87288
 30
0
  0
SPLINE
  5
1E2
100
AcDbEntity
  8
Sketch020
  6
ByLayer
 62
    1
370
   -1
100
AcDbSpline
210
0
220
0
230
0
 70
    8
 71
    3
 72
    8
 73
    4
 74
    0
 42
1e-07
 43
1e-07
 40
0
 40
0
 40
0
 40
0
 40
1
 40
1
 40
1
 40
1
 10
19.8056
 20
-7.87288
 30
0
 10
20.671
 20
-8.259600000000001
 30
0
 10
21.6349
 20
-7.80054
 30
0
 10
22.0492
 20
-6.97805
 30
0
  0
SPLINE
  5
1E3
100
AcDbEntity
  8
Sketch020
  6
ByLayer
 62
    1
370
   -1
100
AcDbSpline
210
0
220
0
230
0
 70
    8
 71
    3
 72
    8
 73
    4
 74
    0
 42
1e-07
 43
1e-07
 40
0
 40
0
 40
0
 40
0
 40
1
 40
1
 40
1
 40
1
 10
22.0492
 20
-6.97805
 30
0
 10
22.4893
 20
-6.10509
 30
0
 10
22.4364
 20
-5.01635
 30
0
 10
22.3974
 20
-4.06623
 30
0
  0
SPLINE
  5
1E4
100
AcDbEntity
  8
Sketch020
  6
ByLayer
 62
    1
370
   -1
100
AcDbSpline
210
0
220
0
230
0
 70
    8
 71
    3
 72
    8
 73
    4
 74
    0
 42
1e-07
 43
1e-07
 40
0
 40
0
 40
0
 40
0
 40
1
 40
1
 40
1
 40
1
 10
22.3974
 20
-4.06623
 30
0
 10
22.3121
 20
-1.97121
 30
0
 10
21.8487
 20
0.0899874
 30
0
 10
21.2544
 20
2.09405
 30
0
  0
SPLINE
  5
1E5
100
AcDbEntity
  8
Sketch020
  6
ByLayer
 62
    1
370
   -1
100
AcDbSpline
210
0
220
0
230
0
 70
    8
 71
    2
 72
    6
 73
    3
 74
    0
 42
1e-07
 43
1e-07
 40
0
 40
0
 40
0
 40
1
 40
1
 40
1
 10
21.2544
 20
2.09405
 30
0
 10
21.0939
 20
2.63256
 30
0
 10
20.9227
 20
3.16784
 30
0
  0
SPLINE
  5
1E6
100
AcDbEntity
  8
Sketch020
  6
ByLayer
 62
    1
370
   -1
100
AcDbSpline
210
0
220
0
230
0
 70
    8
 71
    2
 72
    6
 73
    3
 74
    0
 42
1e-07
 43
1e-07
 40
0
 40
0
 40
0
 40
1
 40
1
 40
1
 10
20.9227
 20
3.16784
 30
0
 10
20.9702
 20
3.70217
 30
0
 10
21.0297
 20
4.23578
 30
0
  0
SPLINE
  5
1E7
100
AcDbEntity
  8
Sketch020
  6
ByLayer
 62
    1
370
   -1
100
AcDbSpline
210
0
220
0
230
0
 70
    8
 71
    3
 72
    8
 73
    4
 74
    0
 42
1e-07
 43
1e-07
 40
0
 40
0
 40
0
 40
0
 40
1
 40
1
 40
1
 40
1
 10
21.0297
 20
4.23578
 30
0
 10
21.0485
 20
4.40235
 30
0
 10
20.9319
 20
4.55084
 30
0
 10
20.7853
 20
4.62691
 30
0
  0
SPLINE
  5
1E8
100
AcDbEntity
  8
Sketch020
  6
ByLayer
 62
    1
370
   -1
100
AcDbSpline
210
0
220
0
230
0
 70
    8
 71
    3
 72
    8
 73
    4
 74
    0
 42
1e-07
 43
1e-07
 40
0
 40
0
 40
0
 40
0
 40
1
 40
1
 40
1
 40
1
 10
20.7853
 20
4.62691
 30
0
 10
21.0813
 20
4.73052
 30
0
 10
21.3454
 20
4.93399
 30
0
 10
21.4987
 20
5.22213
 30
0
  0
SPLINE
  5
1E9
100
AcDbEntity
  8
Sketch020
  6
ByLayer
 62
    1
370
   -1
100
AcDbSpline
210
0
220
0
230
0
 70
    8
 71
    3
 72
    8
 73
    4
 74
    0
 42
1e-07
 43
1e-07
 40
0
 40
0
 40
0
 40
0
 40
1
 40
1
 40
1
 40
1
 10
21.4987
 20
5.22213
 30
0
 10
22.0355
 20
6.22988
 30
0
 10
21.3835
 20
7.21945
 30
0
 10
20.7558
 20
7.99145
 30
0
  0
SPLINE
  5
1EA
100
AcDbEntity
  8
Sketch020
  6
ByLayer
 62
    1
370
   -1
100
AcDbSpline
210
0
220
0
230
0
 70
    8
 71
    3
 72
    8
 73
    4
 74
    0
 42
1e-07
 43
1e-07
 40
0
 40
0
 40
0
 40
0
 40
1
 40
1
 40
1
 40
1
 10
20.7558
 20
7.99145
 30
0
 10
20.5458
 20
8.2491
 30
0
 10
20.0786
 20
8.10342
 30
0
 10
20.0109
 20
7.79481
 30
0
  0
SPLINE
  5
1EB
100
AcDbEntity
  8
Sketch020
  6
ByLayer
 62
    1
370
   -1
100
AcDbSpline
210
0
220
0
230
0
 70
    8
 71
    2
 72
    6
 73
    3
 74
    0
 42
1e-07
 43
1e-07
 40
0
 40
0
 40
0
 40
1
 40
1
 40
1
 10
20.0109
 20
7.79481
 30
0
 10
19.9384
 20
7.46101
 30
0
 10
19.8977
 20
7.12639
 30
0
  0
SPLINE
  5
1EC
100
AcDbEntity
  8
Sketch020
  6
ByLayer
 62
    1
370
   -1
100
AcDbSpline
210
0
220
0
230
0
 70
    8
 71
    3
 72
    8
 73
    4
 74
    0
 42
1e-07
 43
1e-07
 40
0
 40
0
 40
0
 40
0
 40
1
 40
1
 40
1
 40
1
 10
19.8977
 20
7.12639
 30
0
 10
19.735
 20
6.97605
 30
0
 10
19.6893
 20
6.72224
 30
0
 10
19.8505
 20
6.52336
 30
0
  0
SPLINE
  5
1ED
100
AcDbEntity
  8
Sketch020
  6
ByLayer
 62
    1
370
   -1
100
AcDbSpline
210
0
220
0
230
0
 70
    8
 71
    2
 72
    6
 73
    3
 74
    0
 42
1e-07
 43
1e-07
 40
0
 40
0
 40
0
 40
1
 40
1
 40
1
 10
19.8505
 20
6.52336
 30
0
 10
19.8357
 20
6.14154
 30
0
 10
19.861
 20
5.75894
 30
0
  0
SPLINE
  5
1EE
100
AcDbEntity
  8
Sketch020
  6
ByLayer
 62
    1
370
   -1
100
AcDbSpline
210
0
220
0
230
0
 70
    8
 71
    3
 72
    8
 73
    4
 74
    0
 42
1e-07
 43
1e-07
 40
0
 40
0
 40
0
 40
0
 40
1
 40
1
 40
1
 40
1
 10
19.861
 20
5.75894
 30
0
 10
19.6116
 20
5.81744
 30
0
 10
19.3107
 20
5.65291
 30
0
 10
19.2864
 20
5.38836
 30
0
  0
ENDSEC
  0
SECTION
  2
OBJECTS
  0
DICTIONARY
  5
C
330
0
100
AcDbDictionary
281
    1
  3
ACAD_GROUP
350
D
  0
DICTIONARY
  5
D
330
C
100
AcDbDictionary
281
    1
  0
ENDSEC
  0
EOF
